G04 Layer_Color=16711935*
%FSLAX24Y24*%
%MOIN*%
G70*
G01*
G75*
%ADD54C,0.0030*%
%ADD55C,0.0030*%
D54*
X527Y14764D02*
G03*
X0Y14231I3J-530D01*
G01*
X15748Y14272D02*
G03*
X15279Y14764I-481J11D01*
G01*
X15202Y0D02*
G03*
X15748Y542I2J544D01*
G01*
X0Y472D02*
G03*
X467Y0I470J-2D01*
G01*
D55*
X15748Y542D02*
Y14272D01*
X-779Y838D02*
X-713Y885D01*
X-919Y640D02*
X-884Y714D01*
X-837Y781D01*
X-779Y838D01*
X-947Y479D02*
X-940Y561D01*
X-947Y397D02*
X-927Y164D01*
X-940Y561D02*
X-919Y640D01*
X-389Y941D02*
X-310Y920D01*
X-639D02*
X-560Y941D01*
X-478Y948D01*
X-470D02*
X-389Y941D01*
X-236Y885D02*
X-169Y838D01*
X-112Y781D01*
X-65Y714D01*
X-30Y640D01*
X-310Y920D02*
X-236Y885D01*
X-713D02*
X-639Y920D01*
X-866Y-61D02*
X-768Y-273D01*
X-634Y-464D02*
X-469Y-629D01*
X-278Y-763D02*
X-66Y-861D01*
X-469Y-629D02*
X-278Y-763D01*
X-768Y-273D02*
X-634Y-464D01*
X15856Y781D02*
X15913Y838D01*
X15810Y714D02*
X15856Y781D01*
X15775Y640D02*
X15810Y714D01*
X16222Y948D02*
X16305Y941D01*
X15980Y885D02*
X16055Y920D01*
X16134Y941D02*
X16215Y948D01*
X16055Y920D02*
X16134Y941D01*
X15913Y838D02*
X15980Y885D01*
X15754Y561D02*
X15775Y640D01*
X16384Y920D02*
X16458Y885D01*
X16629Y714D02*
X16664Y640D01*
X16581Y781D02*
X16629Y714D01*
X16524Y838D02*
X16581Y781D01*
X16458Y885D02*
X16524Y838D01*
X16684Y561D02*
X16691Y479D01*
X16672Y164D02*
X16691Y397D01*
X16664Y640D02*
X16684Y561D01*
X16305Y941D02*
X16384Y920D01*
X159Y-922D02*
X392Y-942D01*
X15586Y-922D02*
X15811Y-861D01*
X16022Y-763D01*
X16379Y-464D02*
X16513Y-273D01*
X16610Y-61D01*
X16214Y-629D02*
X16379Y-464D01*
X16022Y-763D02*
X16214Y-629D01*
X15352Y-942D02*
X15586Y-922D01*
X16610Y-61D02*
X16672Y164D01*
X-66Y-861D02*
X159Y-922D01*
X-927Y164D02*
X-866Y-61D01*
X16691Y397D02*
Y479D01*
X-947Y397D02*
Y479D01*
X16215Y948D02*
X16222D01*
X-478D02*
X-470D01*
X467Y0D02*
X15202D01*
X392Y-942D02*
X15352D01*
X-478Y13822D02*
X-470D01*
X16215D02*
X16222D01*
X527Y14764D02*
X15279D01*
X392Y15711D02*
X15352D01*
X-947Y14290D02*
Y14373D01*
X16691Y14290D02*
Y14373D01*
X-66Y15631D02*
X159Y15691D01*
X15352Y15711D02*
X15586Y15691D01*
X16379Y15233D02*
X16513Y15042D01*
X16672Y14605D02*
X16691Y14373D01*
X16305Y13829D02*
X16384Y13850D01*
X16581Y13989D02*
X16629Y14056D01*
X16524Y13931D02*
X16581Y13989D01*
X16384Y13850D02*
X16458Y13884D01*
X16524Y13931D01*
X16629Y14056D02*
X16664Y14130D01*
X16684Y14209D01*
X16691Y14290D01*
X16610Y14831D02*
X16672Y14605D01*
X16513Y15042D02*
X16610Y14831D01*
X15810Y14056D02*
X15856Y13989D01*
X15914Y13931D02*
X15980Y13884D01*
X16055Y13850D01*
X16134Y13829D01*
X16215Y13822D01*
X16222D02*
X16305Y13829D01*
X15856Y13989D02*
X15914Y13931D01*
X15775Y14130D02*
X15810Y14056D01*
X16214Y15398D02*
X16379Y15233D01*
X15586Y15691D02*
X15811Y15631D01*
X16022Y15532D01*
X16214Y15398D01*
X159Y15691D02*
X392Y15711D01*
X-768Y15042D02*
X-634Y15233D01*
X-947Y14373D02*
X-927Y14605D01*
X-713Y13884D02*
X-639Y13850D01*
X-111Y13989D02*
X-65Y14056D01*
X-310Y13850D02*
X-236Y13884D01*
X-169Y13931D02*
X-111Y13989D01*
X-236Y13884D02*
X-169Y13931D01*
X-9Y14209D02*
X-2Y14290D01*
X-30Y14130D02*
X-9Y14209D01*
X-65Y14056D02*
X-30Y14130D01*
X-470Y13822D02*
X-389Y13829D01*
X-560D02*
X-478Y13822D01*
X-639Y13850D02*
X-560Y13829D01*
X-389D02*
X-310Y13850D01*
X-884Y14056D02*
X-837Y13989D01*
X-779Y13931D01*
X-713Y13884D01*
X-947Y14290D02*
X-940Y14209D01*
X-919Y14130D01*
X-884Y14056D01*
X-927Y14605D02*
X-866Y14831D01*
X-768Y15042D01*
X-278Y15532D02*
X-66Y15631D01*
X-634Y15233D02*
X-469Y15398D01*
X-278Y15532D01*
X-9Y561D02*
X-2Y479D01*
X-30Y640D02*
X-9Y561D01*
X0Y472D02*
Y14231D01*
X15754Y14209D02*
X15775Y14130D01*
M02*
