G04 Layer_Physical_Order=4*
G04 Layer_Color=16711680*
%FSLAX24Y24*%
%MOIN*%
G70*
G01*
G75*
G04:AMPARAMS|DCode=11|XSize=23.6mil|YSize=23.6mil|CornerRadius=2.4mil|HoleSize=0mil|Usage=FLASHONLY|Rotation=270.000|XOffset=0mil|YOffset=0mil|HoleType=Round|Shape=RoundedRectangle|*
%AMROUNDEDRECTD11*
21,1,0.0236,0.0189,0,0,270.0*
21,1,0.0189,0.0236,0,0,270.0*
1,1,0.0047,-0.0094,-0.0094*
1,1,0.0047,-0.0094,0.0094*
1,1,0.0047,0.0094,0.0094*
1,1,0.0047,0.0094,-0.0094*
%
%ADD11ROUNDEDRECTD11*%
G04:AMPARAMS|DCode=15|XSize=19.7mil|YSize=23.6mil|CornerRadius=2mil|HoleSize=0mil|Usage=FLASHONLY|Rotation=0.000|XOffset=0mil|YOffset=0mil|HoleType=Round|Shape=RoundedRectangle|*
%AMROUNDEDRECTD15*
21,1,0.0197,0.0197,0,0,0.0*
21,1,0.0157,0.0236,0,0,0.0*
1,1,0.0039,0.0079,-0.0098*
1,1,0.0039,-0.0079,-0.0098*
1,1,0.0039,-0.0079,0.0098*
1,1,0.0039,0.0079,0.0098*
%
%ADD15ROUNDEDRECTD15*%
%ADD19C,0.0060*%
%ADD20C,0.0100*%
%ADD23C,0.0532*%
%ADD24C,0.0200*%
%ADD25C,0.0200*%
G04:AMPARAMS|DCode=26|XSize=78.7mil|YSize=29.1mil|CornerRadius=2.9mil|HoleSize=0mil|Usage=FLASHONLY|Rotation=270.000|XOffset=0mil|YOffset=0mil|HoleType=Round|Shape=RoundedRectangle|*
%AMROUNDEDRECTD26*
21,1,0.0787,0.0233,0,0,270.0*
21,1,0.0729,0.0291,0,0,270.0*
1,1,0.0058,-0.0117,-0.0365*
1,1,0.0058,-0.0117,0.0365*
1,1,0.0058,0.0117,0.0365*
1,1,0.0058,0.0117,-0.0365*
%
%ADD26ROUNDEDRECTD26*%
%ADD27C,0.0394*%
G04:AMPARAMS|DCode=28|XSize=19.7mil|YSize=23.6mil|CornerRadius=2mil|HoleSize=0mil|Usage=FLASHONLY|Rotation=270.000|XOffset=0mil|YOffset=0mil|HoleType=Round|Shape=RoundedRectangle|*
%AMROUNDEDRECTD28*
21,1,0.0197,0.0197,0,0,270.0*
21,1,0.0157,0.0236,0,0,270.0*
1,1,0.0039,-0.0098,-0.0079*
1,1,0.0039,-0.0098,0.0079*
1,1,0.0039,0.0098,0.0079*
1,1,0.0039,0.0098,-0.0079*
%
%ADD28ROUNDEDRECTD28*%
%ADD29R,0.0551X0.0591*%
G04:AMPARAMS|DCode=30|XSize=11.8mil|YSize=29.5mil|CornerRadius=1.2mil|HoleSize=0mil|Usage=FLASHONLY|Rotation=180.000|XOffset=0mil|YOffset=0mil|HoleType=Round|Shape=RoundedRectangle|*
%AMROUNDEDRECTD30*
21,1,0.0118,0.0272,0,0,180.0*
21,1,0.0094,0.0295,0,0,180.0*
1,1,0.0024,-0.0047,0.0136*
1,1,0.0024,0.0047,0.0136*
1,1,0.0024,0.0047,-0.0136*
1,1,0.0024,-0.0047,-0.0136*
%
%ADD30ROUNDEDRECTD30*%
G04:AMPARAMS|DCode=31|XSize=15mil|YSize=19.7mil|CornerRadius=1.5mil|HoleSize=0mil|Usage=FLASHONLY|Rotation=180.000|XOffset=0mil|YOffset=0mil|HoleType=Round|Shape=RoundedRectangle|*
%AMROUNDEDRECTD31*
21,1,0.0150,0.0167,0,0,180.0*
21,1,0.0120,0.0197,0,0,180.0*
1,1,0.0030,-0.0060,0.0083*
1,1,0.0030,0.0060,0.0083*
1,1,0.0030,0.0060,-0.0083*
1,1,0.0030,-0.0060,-0.0083*
%
%ADD31ROUNDEDRECTD31*%
G04:AMPARAMS|DCode=32|XSize=15.4mil|YSize=19.7mil|CornerRadius=1.5mil|HoleSize=0mil|Usage=FLASHONLY|Rotation=180.000|XOffset=0mil|YOffset=0mil|HoleType=Round|Shape=RoundedRectangle|*
%AMROUNDEDRECTD32*
21,1,0.0154,0.0166,0,0,180.0*
21,1,0.0123,0.0197,0,0,180.0*
1,1,0.0031,-0.0061,0.0083*
1,1,0.0031,0.0061,0.0083*
1,1,0.0031,0.0061,-0.0083*
1,1,0.0031,-0.0061,-0.0083*
%
%ADD32ROUNDEDRECTD32*%
G04:AMPARAMS|DCode=33|XSize=11.8mil|YSize=19.7mil|CornerRadius=1.2mil|HoleSize=0mil|Usage=FLASHONLY|Rotation=180.000|XOffset=0mil|YOffset=0mil|HoleType=Round|Shape=RoundedRectangle|*
%AMROUNDEDRECTD33*
21,1,0.0118,0.0173,0,0,180.0*
21,1,0.0094,0.0197,0,0,180.0*
1,1,0.0024,-0.0047,0.0087*
1,1,0.0024,0.0047,0.0087*
1,1,0.0024,0.0047,-0.0087*
1,1,0.0024,-0.0047,-0.0087*
%
%ADD33ROUNDEDRECTD33*%
G04:AMPARAMS|DCode=34|XSize=53.2mil|YSize=37.4mil|CornerRadius=4.7mil|HoleSize=0mil|Usage=FLASHONLY|Rotation=270.000|XOffset=0mil|YOffset=0mil|HoleType=Round|Shape=RoundedRectangle|*
%AMROUNDEDRECTD34*
21,1,0.0532,0.0281,0,0,270.0*
21,1,0.0438,0.0374,0,0,270.0*
1,1,0.0094,-0.0140,-0.0219*
1,1,0.0094,-0.0140,0.0219*
1,1,0.0094,0.0140,0.0219*
1,1,0.0094,0.0140,-0.0219*
%
%ADD34ROUNDEDRECTD34*%
%ADD35C,0.0120*%
G36*
X568Y14549D02*
X8409Y14549D01*
X8445Y14514D01*
X8445Y14192D01*
X8646Y14192D01*
X8681Y14157D01*
Y13982D01*
X8646Y13947D01*
X8366Y13947D01*
Y13081D01*
X10335Y13081D01*
X10335Y14192D01*
X15516Y14193D01*
X15551Y14158D01*
X15548Y509D01*
X15550Y481D01*
X15543Y424D01*
X15525Y371D01*
X15497Y322D01*
X15460Y279D01*
X15415Y245D01*
X15364Y219D01*
X15309Y205D01*
X15281Y203D01*
X665Y203D01*
X621Y203D01*
X535Y220D01*
X453Y254D01*
X380Y302D01*
X318Y365D01*
X269Y438D01*
X235Y519D01*
X218Y605D01*
X218Y649D01*
Y14199D01*
X218Y14234D01*
X232Y14302D01*
X258Y14365D01*
X296Y14423D01*
X345Y14471D01*
X402Y14510D01*
X466Y14536D01*
X534Y14549D01*
X568Y14549D01*
D02*
G37*
%LPC*%
G36*
X11593Y5134D02*
X11402D01*
X11403Y5127D01*
X11429Y5065D01*
X11470Y5011D01*
X11524Y4970D01*
X11586Y4944D01*
X11593Y4943D01*
Y5134D01*
D02*
G37*
G36*
X11905D02*
X11713D01*
Y4943D01*
X11721Y4944D01*
X11783Y4970D01*
X11837Y5011D01*
X11878Y5065D01*
X11904Y5127D01*
X11905Y5134D01*
D02*
G37*
G36*
X11713Y5445D02*
Y5254D01*
X11905D01*
X11904Y5261D01*
X11878Y5324D01*
X11837Y5377D01*
X11783Y5418D01*
X11721Y5444D01*
X11713Y5445D01*
D02*
G37*
G36*
X11593Y5445D02*
X11586Y5444D01*
X11524Y5418D01*
X11470Y5377D01*
X11429Y5324D01*
X11403Y5261D01*
X11402Y5254D01*
X11593D01*
Y5445D01*
D02*
G37*
G36*
X8996Y4140D02*
X8934Y4127D01*
X8881Y4092D01*
X8846Y4039D01*
X8833Y3977D01*
X8846Y3914D01*
X8881Y3861D01*
X8934Y3826D01*
X8996Y3813D01*
X9059Y3826D01*
X9112Y3861D01*
X9147Y3914D01*
X9160Y3977D01*
X9147Y4039D01*
X9112Y4092D01*
X9059Y4127D01*
X8996Y4140D01*
D02*
G37*
G36*
X4014Y3998D02*
X3825D01*
Y3730D01*
X3905D01*
X3947Y3739D01*
X3982Y3762D01*
X4005Y3798D01*
X4014Y3839D01*
Y3998D01*
D02*
G37*
G36*
X3697Y5021D02*
X3634Y5009D01*
X3581Y4974D01*
X3546Y4921D01*
X3534Y4858D01*
Y4766D01*
X3528Y4761D01*
X3484Y4744D01*
X3470Y4753D01*
X3437Y4760D01*
X3248D01*
X3215Y4753D01*
X3188Y4735D01*
X3169Y4707D01*
X3163Y4674D01*
Y4631D01*
X3034Y4502D01*
X2999Y4449D01*
X2986Y4387D01*
Y4384D01*
X2953Y4378D01*
X2917Y4354D01*
X2894Y4319D01*
X2886Y4277D01*
Y3839D01*
X2894Y3798D01*
X2917Y3762D01*
X2953Y3739D01*
X2953Y3739D01*
X2976Y3690D01*
X2970Y3659D01*
Y3501D01*
X2976Y3470D01*
X2986Y3455D01*
Y3367D01*
X2976Y3351D01*
X2970Y3320D01*
Y3163D01*
X2976Y3132D01*
X2986Y3116D01*
Y2991D01*
X2973Y2988D01*
X2943Y2968D01*
X2924Y2939D01*
X2917Y2904D01*
Y2175D01*
X2924Y2140D01*
X2943Y2111D01*
X2973Y2091D01*
X3007Y2084D01*
X3241D01*
X3275Y2091D01*
X3305Y2111D01*
X3325Y2140D01*
X3331Y2175D01*
Y2904D01*
X3325Y2939D01*
X3313Y2956D01*
Y3073D01*
X3316Y3076D01*
X3363Y3095D01*
X3374Y3088D01*
X3405Y3081D01*
X3444D01*
Y3241D01*
X3564D01*
Y3081D01*
X3602D01*
X3633Y3088D01*
X3654Y3101D01*
X3684Y3096D01*
X3708Y3088D01*
X3743Y3035D01*
X3743Y3032D01*
X3708Y2995D01*
X3507D01*
X3473Y2988D01*
X3443Y2968D01*
X3424Y2939D01*
X3417Y2904D01*
Y2175D01*
X3424Y2140D01*
X3443Y2111D01*
X3473Y2091D01*
X3507Y2084D01*
X3741D01*
X3775Y2091D01*
X3805Y2111D01*
X3825Y2140D01*
X3831Y2175D01*
Y2853D01*
X3867Y2888D01*
X3917Y2868D01*
Y2175D01*
X3924Y2140D01*
X3943Y2111D01*
X3959Y2100D01*
X3977Y2052D01*
X3979Y2039D01*
X3968Y2022D01*
X3955Y1960D01*
X3968Y1898D01*
X3971Y1893D01*
X3951Y1832D01*
X3943Y1826D01*
X3924Y1797D01*
X3917Y1762D01*
Y1033D01*
X3924Y998D01*
X3943Y969D01*
X3978Y932D01*
X3965Y870D01*
X3978Y808D01*
X4013Y755D01*
X4066Y719D01*
X4128Y707D01*
X4191Y719D01*
X4244Y755D01*
X4279Y808D01*
X4292Y870D01*
X4279Y932D01*
X4305Y969D01*
X4325Y998D01*
X4331Y1033D01*
Y1762D01*
X4325Y1797D01*
X4305Y1826D01*
X4289Y1837D01*
X4271Y1886D01*
X4269Y1898D01*
X4282Y1960D01*
X4269Y2022D01*
X4260Y2037D01*
X4274Y2085D01*
X4281Y2095D01*
X4305Y2111D01*
X4325Y2140D01*
X4331Y2175D01*
Y2904D01*
X4325Y2939D01*
X4305Y2968D01*
X4275Y2988D01*
X4241Y2995D01*
X4007D01*
X4002Y2994D01*
X3984Y3020D01*
X3977Y3040D01*
X4009Y3088D01*
X4022Y3150D01*
X4009Y3212D01*
X3974Y3265D01*
X3921Y3301D01*
X3859Y3313D01*
X3796Y3301D01*
X3743Y3265D01*
X3734Y3251D01*
X3684Y3266D01*
Y3320D01*
X3677Y3351D01*
X3660Y3378D01*
X3652Y3383D01*
Y3439D01*
X3660Y3444D01*
X3677Y3470D01*
X3684Y3501D01*
Y3520D01*
X3504D01*
Y3640D01*
X3684D01*
Y3659D01*
X3679Y3680D01*
X3697Y3714D01*
X3705Y3723D01*
Y4058D01*
X3765D01*
Y4118D01*
X4014D01*
Y4277D01*
X4005Y4319D01*
X3982Y4354D01*
X3947Y4378D01*
X3905Y4386D01*
X3881D01*
X3872Y4398D01*
X3859Y4436D01*
X3870Y4453D01*
X3877Y4485D01*
Y4674D01*
X3870Y4707D01*
X3860Y4722D01*
Y4858D01*
X3848Y4921D01*
X3812Y4974D01*
X3759Y5009D01*
X3697Y5021D01*
D02*
G37*
G36*
X12933Y5180D02*
X12866Y5171D01*
X12804Y5146D01*
X12750Y5104D01*
X12709Y5051D01*
X12683Y4988D01*
X12674Y4921D01*
X12683Y4854D01*
X12709Y4792D01*
X12750Y4738D01*
X12804Y4697D01*
X12866Y4671D01*
X12933Y4662D01*
X13000Y4671D01*
X13063Y4697D01*
X13116Y4738D01*
X13157Y4792D01*
X13183Y4854D01*
X13192Y4921D01*
X13183Y4988D01*
X13157Y5051D01*
X13116Y5104D01*
X13063Y5146D01*
X13000Y5171D01*
X12933Y5180D01*
D02*
G37*
G36*
X8457Y8928D02*
X8390Y8920D01*
X8327Y8894D01*
X8274Y8852D01*
X8232Y8799D01*
X8206Y8736D01*
X8198Y8669D01*
X8206Y8602D01*
X8232Y8540D01*
X8274Y8486D01*
X8327Y8445D01*
X8390Y8419D01*
X8432Y8413D01*
Y8329D01*
X8388Y8305D01*
X8380Y8311D01*
X8317Y8323D01*
X8255Y8311D01*
X8202Y8275D01*
X8178Y8239D01*
X8026Y8087D01*
X8006Y8057D01*
X7999Y8022D01*
Y7993D01*
X7961Y7978D01*
X7907Y7936D01*
X7866Y7883D01*
X7840Y7820D01*
X7831Y7753D01*
X7840Y7686D01*
X7866Y7624D01*
X7907Y7570D01*
X7961Y7529D01*
X8023Y7503D01*
X8091Y7494D01*
X8158Y7503D01*
X8220Y7529D01*
X8274Y7570D01*
X8315Y7624D01*
X8332Y7665D01*
X8370Y7664D01*
X8385Y7662D01*
X8418Y7611D01*
X8471Y7576D01*
X8534Y7564D01*
X8596Y7576D01*
X8649Y7611D01*
X8665Y7635D01*
X9205D01*
X9206Y7627D01*
X9232Y7565D01*
X9273Y7511D01*
X9327Y7470D01*
X9390Y7444D01*
X9457Y7435D01*
X9524Y7444D01*
X9586Y7470D01*
X9640Y7511D01*
X9681Y7565D01*
X9707Y7627D01*
X9716Y7694D01*
X9707Y7761D01*
X9681Y7824D01*
X9640Y7877D01*
X9586Y7918D01*
X9524Y7944D01*
X9457Y7953D01*
X9390Y7944D01*
X9327Y7918D01*
X9273Y7877D01*
X9232Y7824D01*
X9230Y7819D01*
X8665D01*
X8649Y7842D01*
X8639Y7849D01*
Y7877D01*
X8674Y7930D01*
X8687Y7992D01*
X8674Y8055D01*
X8639Y8107D01*
X8615Y8123D01*
Y8455D01*
X8643Y8483D01*
X8663Y8512D01*
X8664Y8518D01*
X8681Y8540D01*
X8707Y8602D01*
X8716Y8669D01*
X8707Y8736D01*
X8681Y8799D01*
X8640Y8852D01*
X8586Y8894D01*
X8524Y8920D01*
X8457Y8928D01*
D02*
G37*
G36*
X9607Y8303D02*
X9544Y8291D01*
X9491Y8256D01*
X9456Y8203D01*
X9444Y8140D01*
X9456Y8078D01*
X9491Y8025D01*
X9544Y7989D01*
X9607Y7977D01*
X9669Y7989D01*
X9722Y8025D01*
X9757Y8078D01*
X9770Y8140D01*
X9757Y8203D01*
X9722Y8256D01*
X9669Y8291D01*
X9607Y8303D01*
D02*
G37*
G36*
X5738Y8993D02*
X5676Y8981D01*
X5623Y8945D01*
X5588Y8892D01*
X5575Y8830D01*
X5588Y8768D01*
X5623Y8715D01*
X5657Y8692D01*
X5671Y8633D01*
X5666Y8626D01*
X5654Y8563D01*
X5666Y8501D01*
X5702Y8448D01*
X5755Y8413D01*
X5817Y8400D01*
X5880Y8413D01*
X5932Y8448D01*
X5968Y8501D01*
X5980Y8563D01*
X5968Y8626D01*
X5932Y8679D01*
X5898Y8702D01*
X5884Y8760D01*
X5889Y8768D01*
X5902Y8830D01*
X5889Y8892D01*
X5854Y8945D01*
X5801Y8981D01*
X5738Y8993D01*
D02*
G37*
G36*
X9457Y8946D02*
X9390Y8937D01*
X9327Y8912D01*
X9273Y8870D01*
X9232Y8817D01*
X9206Y8754D01*
X9198Y8687D01*
X9206Y8620D01*
X9232Y8558D01*
X9273Y8504D01*
X9327Y8463D01*
X9390Y8437D01*
X9457Y8428D01*
X9524Y8437D01*
X9564Y8453D01*
X9575Y8446D01*
X9600Y8409D01*
X9653Y8373D01*
X9715Y8361D01*
X9777Y8373D01*
X9830Y8409D01*
X9866Y8462D01*
X9878Y8524D01*
X9866Y8586D01*
X9830Y8639D01*
X9777Y8675D01*
X9716Y8687D01*
X9716Y8687D01*
X9707Y8754D01*
X9681Y8817D01*
X9640Y8870D01*
X9586Y8912D01*
X9524Y8937D01*
X9457Y8946D01*
D02*
G37*
G36*
X8014Y5931D02*
X7914D01*
Y5893D01*
X7920Y5862D01*
X7938Y5835D01*
X7964Y5818D01*
X7995Y5812D01*
X8014D01*
Y5931D01*
D02*
G37*
G36*
X12441Y6063D02*
X12374Y6055D01*
X12311Y6029D01*
X12258Y5988D01*
X12217Y5934D01*
X12191Y5871D01*
X12182Y5804D01*
X12188Y5760D01*
X12133Y5705D01*
X12098Y5652D01*
X12085Y5590D01*
X12098Y5528D01*
X12133Y5475D01*
X12186Y5439D01*
X12249Y5427D01*
X12311Y5439D01*
X12364Y5475D01*
X12435Y5546D01*
X12441Y5545D01*
X12508Y5554D01*
X12570Y5580D01*
X12624Y5621D01*
X12665Y5675D01*
X12691Y5737D01*
X12700Y5804D01*
X12691Y5871D01*
X12665Y5934D01*
X12624Y5988D01*
X12570Y6029D01*
X12508Y6055D01*
X12441Y6063D01*
D02*
G37*
G36*
X8093Y6981D02*
X8026Y6973D01*
X7964Y6947D01*
X7910Y6905D01*
X7869Y6852D01*
X7843Y6789D01*
X7834Y6722D01*
X7843Y6655D01*
X7869Y6593D01*
X7909Y6541D01*
X7938Y6502D01*
X7920Y6475D01*
X7914Y6444D01*
Y6247D01*
X7920Y6216D01*
X7938Y6190D01*
Y6147D01*
X7920Y6121D01*
X7914Y6090D01*
Y6051D01*
X8074D01*
X8234D01*
Y6090D01*
X8228Y6121D01*
X8210Y6147D01*
Y6190D01*
X8228Y6216D01*
X8234Y6247D01*
Y6444D01*
X8228Y6475D01*
X8220Y6487D01*
X8223Y6498D01*
X8277Y6539D01*
X8312Y6585D01*
X8336Y6569D01*
X8399Y6557D01*
X8461Y6569D01*
X8514Y6605D01*
X8549Y6658D01*
X8562Y6720D01*
X8549Y6782D01*
X8514Y6835D01*
X8461Y6871D01*
X8399Y6883D01*
X8336Y6871D01*
X8314Y6856D01*
X8277Y6905D01*
X8223Y6947D01*
X8161Y6973D01*
X8093Y6981D01*
D02*
G37*
G36*
X8234Y5931D02*
X8134D01*
Y5812D01*
X8153D01*
X8184Y5818D01*
X8210Y5835D01*
X8228Y5862D01*
X8234Y5893D01*
Y5931D01*
D02*
G37*
G36*
X5177Y3968D02*
X5110Y3959D01*
X5048Y3933D01*
X4994Y3892D01*
X4953Y3838D01*
X4927Y3776D01*
X4918Y3709D01*
X4927Y3642D01*
X4953Y3579D01*
X4994Y3525D01*
X5048Y3484D01*
X5110Y3458D01*
X5177Y3450D01*
X5244Y3458D01*
X5307Y3484D01*
X5360Y3525D01*
X5402Y3579D01*
X5427Y3642D01*
X5436Y3709D01*
X5427Y3776D01*
X5402Y3838D01*
X5360Y3892D01*
X5307Y3933D01*
X5244Y3959D01*
X5177Y3968D01*
D02*
G37*
G36*
X12831Y1338D02*
X12684D01*
Y942D01*
X12741D01*
X12775Y949D01*
X12805Y969D01*
X12825Y998D01*
X12831Y1033D01*
Y1338D01*
D02*
G37*
G36*
X12564D02*
X12417D01*
Y1033D01*
X12424Y998D01*
X12443Y969D01*
X12473Y949D01*
X12507Y942D01*
X12564D01*
Y1338D01*
D02*
G37*
G36*
X11479Y3863D02*
X11416Y3851D01*
X11363Y3815D01*
X11328Y3762D01*
X11315Y3700D01*
X11328Y3638D01*
X11335Y3627D01*
X11333Y3625D01*
X11291Y3572D01*
X11265Y3509D01*
X11257Y3442D01*
X11265Y3375D01*
X11291Y3313D01*
X11333Y3259D01*
X11386Y3218D01*
X11449Y3192D01*
X11516Y3183D01*
X11562Y3189D01*
X11581Y3170D01*
X11596Y3148D01*
X11596Y3146D01*
X11585Y3090D01*
X11594Y3045D01*
X11564Y2995D01*
X11507D01*
X11473Y2988D01*
X11443Y2968D01*
X11424Y2939D01*
X11417Y2904D01*
Y2175D01*
X11424Y2140D01*
X11441Y2114D01*
X11413Y2095D01*
X11378Y2042D01*
X11365Y1980D01*
X11378Y1918D01*
X11413Y1865D01*
X11437Y1849D01*
Y1817D01*
X11424Y1797D01*
X11417Y1762D01*
Y1033D01*
X11424Y998D01*
X11443Y969D01*
X11473Y949D01*
X11507Y942D01*
X11741D01*
X11775Y949D01*
X11805Y969D01*
X11825Y998D01*
X11831Y1033D01*
Y1762D01*
X11829Y1773D01*
X11857Y1818D01*
X11886Y1824D01*
X11921Y1785D01*
X11917Y1762D01*
Y1033D01*
X11924Y998D01*
X11943Y969D01*
X11972Y949D01*
X11973Y949D01*
X11995Y894D01*
X11988Y882D01*
X11975Y820D01*
X11988Y758D01*
X12023Y705D01*
X12076Y669D01*
X12139Y657D01*
X12201Y669D01*
X12254Y705D01*
X12289Y758D01*
X12302Y820D01*
X12289Y882D01*
X12278Y899D01*
X12278Y908D01*
X12296Y963D01*
X12305Y969D01*
X12325Y998D01*
X12331Y1033D01*
Y1762D01*
X12373Y1774D01*
X12373Y1773D01*
X12417Y1731D01*
Y1458D01*
X12564D01*
Y1853D01*
X12543D01*
X12516Y1903D01*
X12519Y1908D01*
X12532Y1970D01*
X12519Y2032D01*
X12518Y2034D01*
X12545Y2084D01*
X12741D01*
X12775Y2091D01*
X12805Y2111D01*
X12825Y2140D01*
X12831Y2175D01*
Y2904D01*
X12825Y2939D01*
X12805Y2968D01*
X12775Y2988D01*
X12741Y2995D01*
X12507D01*
X12473Y2988D01*
X12443Y2968D01*
X12424Y2939D01*
X12417Y2904D01*
Y2209D01*
X12372Y2166D01*
X12368Y2165D01*
X12339Y2167D01*
X12332Y2175D01*
X12331Y2177D01*
Y2904D01*
X12325Y2939D01*
X12305Y2968D01*
X12299Y2972D01*
X12281Y3030D01*
X12282Y3037D01*
X12289Y3048D01*
X12302Y3110D01*
X12289Y3172D01*
X12254Y3225D01*
X12201Y3261D01*
X12139Y3273D01*
X12076Y3261D01*
X12023Y3225D01*
X11988Y3172D01*
X11975Y3110D01*
X11988Y3048D01*
X11991Y3043D01*
X11973Y2990D01*
X11969Y2986D01*
X11943Y2968D01*
X11924Y2939D01*
X11917Y2904D01*
Y2186D01*
X11893Y2160D01*
X11878Y2151D01*
X11835Y2174D01*
X11831Y2202D01*
Y2626D01*
X11833Y2629D01*
X11840Y2664D01*
Y2959D01*
X11864Y2975D01*
X11899Y3028D01*
X11912Y3090D01*
X11899Y3152D01*
X11864Y3205D01*
X11811Y3241D01*
X11756Y3252D01*
X11739Y3277D01*
X11731Y3301D01*
X11740Y3313D01*
X11766Y3375D01*
X11775Y3442D01*
X11766Y3509D01*
X11740Y3572D01*
X11699Y3625D01*
X11645Y3666D01*
X11636Y3670D01*
X11642Y3700D01*
X11629Y3762D01*
X11594Y3815D01*
X11541Y3851D01*
X11479Y3863D01*
D02*
G37*
G36*
X3064Y1853D02*
X3007D01*
X2973Y1846D01*
X2943Y1826D01*
X2924Y1797D01*
X2917Y1762D01*
Y1458D01*
X3064D01*
Y1853D01*
D02*
G37*
G36*
Y1338D02*
X2917D01*
Y1033D01*
X2924Y998D01*
X2943Y969D01*
X2973Y949D01*
X3007Y942D01*
X3064D01*
Y1338D01*
D02*
G37*
G36*
X3741Y1853D02*
X3507D01*
X3473Y1846D01*
X3443Y1826D01*
X3424Y1797D01*
X3417Y1762D01*
Y1033D01*
X3424Y998D01*
X3443Y969D01*
X3466Y954D01*
X3473Y934D01*
X3475Y923D01*
X3478Y897D01*
X3448Y852D01*
X3444Y834D01*
X3440Y829D01*
X3388Y806D01*
X3351Y821D01*
X3283Y830D01*
X3216Y821D01*
X3154Y795D01*
X3100Y754D01*
X3059Y700D01*
X3033Y638D01*
X3024Y571D01*
X3033Y504D01*
X3059Y441D01*
X3100Y388D01*
X3154Y347D01*
X3216Y321D01*
X3283Y312D01*
X3351Y321D01*
X3413Y347D01*
X3467Y388D01*
X3508Y441D01*
X3534Y504D01*
X3543Y571D01*
X3540Y587D01*
X3585Y630D01*
X3598Y627D01*
X3661Y639D01*
X3714Y675D01*
X3749Y728D01*
X3762Y790D01*
X3749Y852D01*
X3723Y892D01*
X3738Y935D01*
X3744Y943D01*
X3775Y949D01*
X3805Y969D01*
X3825Y998D01*
X3831Y1033D01*
Y1762D01*
X3825Y1797D01*
X3805Y1826D01*
X3775Y1846D01*
X3741Y1853D01*
D02*
G37*
G36*
X4331Y3566D02*
X4264Y3557D01*
X4201Y3531D01*
X4148Y3490D01*
X4106Y3437D01*
X4080Y3374D01*
X4072Y3307D01*
X4080Y3240D01*
X4106Y3178D01*
X4148Y3124D01*
X4201Y3083D01*
X4264Y3057D01*
X4331Y3048D01*
X4398Y3057D01*
X4460Y3083D01*
X4488Y3104D01*
X4493Y3103D01*
X4539Y3080D01*
X4546Y3045D01*
X4529Y3003D01*
X4525Y2995D01*
X4507D01*
X4473Y2988D01*
X4443Y2968D01*
X4424Y2939D01*
X4417Y2904D01*
Y2175D01*
X4424Y2140D01*
X4443Y2111D01*
X4473Y2091D01*
X4476Y2090D01*
X4500Y2035D01*
X4498Y2032D01*
X4485Y1970D01*
X4498Y1908D01*
X4502Y1901D01*
X4478Y1847D01*
X4473Y1846D01*
X4443Y1826D01*
X4424Y1797D01*
X4417Y1762D01*
Y1033D01*
X4424Y998D01*
X4443Y969D01*
X4473Y949D01*
X4507Y942D01*
X4741D01*
X4775Y949D01*
X4805Y969D01*
X4825Y998D01*
X4831Y1033D01*
Y1762D01*
X4825Y1797D01*
X4805Y1826D01*
X4788Y1890D01*
X4789Y1892D01*
X4799Y1908D01*
X4812Y1970D01*
X4799Y2032D01*
X4791Y2045D01*
X4790Y2047D01*
X4805Y2111D01*
X4825Y2140D01*
X4831Y2175D01*
Y2904D01*
X4825Y2939D01*
X4805Y2968D01*
X4831Y3011D01*
X4849Y3038D01*
X4862Y3100D01*
X4849Y3162D01*
X4814Y3215D01*
X4761Y3251D01*
X4699Y3263D01*
X4636Y3251D01*
X4632Y3248D01*
X4586Y3277D01*
X4590Y3307D01*
X4581Y3374D01*
X4555Y3437D01*
X4514Y3490D01*
X4460Y3531D01*
X4398Y3557D01*
X4331Y3566D01*
D02*
G37*
G36*
X3331Y1338D02*
X3184D01*
Y942D01*
X3241D01*
X3275Y949D01*
X3305Y969D01*
X3325Y998D01*
X3331Y1033D01*
Y1338D01*
D02*
G37*
G36*
X8658Y5443D02*
X8596Y5431D01*
X8543Y5395D01*
X8508Y5342D01*
X8495Y5280D01*
X8508Y5218D01*
X8543Y5165D01*
X8596Y5129D01*
X8658Y5117D01*
X8670Y5119D01*
X8845Y4944D01*
Y4686D01*
X8807Y4670D01*
X8754Y4629D01*
X8713Y4576D01*
X8687Y4513D01*
X8678Y4446D01*
X8687Y4379D01*
X8713Y4317D01*
X8754Y4263D01*
X8807Y4222D01*
X8870Y4196D01*
X8937Y4187D01*
X9004Y4196D01*
X9067Y4222D01*
X9120Y4263D01*
X9161Y4317D01*
X9177Y4354D01*
X9284D01*
X10287Y3352D01*
Y3235D01*
X10267Y3223D01*
X10237Y3214D01*
X10192Y3244D01*
X10189Y3244D01*
X10156Y3302D01*
X10162Y3330D01*
X10149Y3392D01*
X10114Y3445D01*
X10061Y3481D01*
X9998Y3493D01*
X9936Y3481D01*
X9883Y3445D01*
X9848D01*
X9830Y3472D01*
X9777Y3507D01*
X9715Y3520D01*
X9653Y3507D01*
X9600Y3472D01*
X9572Y3431D01*
X9530Y3425D01*
X9515Y3427D01*
X9513Y3429D01*
X9436Y3507D01*
X9435Y3507D01*
X9442Y3540D01*
X9429Y3602D01*
X9394Y3655D01*
X9341Y3691D01*
X9279Y3703D01*
X9216Y3691D01*
X9163Y3655D01*
X9102Y3654D01*
X9086Y3666D01*
X9024Y3692D01*
X8957Y3701D01*
X8890Y3692D01*
X8827Y3666D01*
X8773Y3625D01*
X8732Y3572D01*
X8706Y3509D01*
X8698Y3442D01*
X8706Y3375D01*
X8732Y3313D01*
X8773Y3259D01*
X8827Y3218D01*
X8890Y3192D01*
X8957Y3183D01*
X9024Y3192D01*
X9086Y3218D01*
X9140Y3259D01*
X9181Y3313D01*
X9197Y3350D01*
X9333D01*
X9363Y3320D01*
X9364Y3316D01*
X9373Y3303D01*
X9370Y3282D01*
X9362Y3253D01*
X9356Y3244D01*
X9313Y3215D01*
X9278Y3162D01*
X9265Y3100D01*
X9278Y3038D01*
X9247Y2994D01*
X9241Y2995D01*
X9007D01*
X8973Y2988D01*
X8943Y2968D01*
X8924Y2939D01*
X8917Y2904D01*
Y2175D01*
X8924Y2140D01*
X8943Y2111D01*
X8973Y2091D01*
X9007Y2084D01*
X9079D01*
X9105Y2034D01*
X9098Y2022D01*
X9085Y1960D01*
X9097Y1903D01*
X9093Y1888D01*
X9074Y1853D01*
X9007D01*
X8973Y1846D01*
X8943Y1826D01*
X8924Y1797D01*
X8917Y1762D01*
Y1033D01*
X8924Y998D01*
X8935Y981D01*
X8933Y971D01*
X8920Y939D01*
X8913Y930D01*
X8866Y921D01*
X8813Y885D01*
X8760Y888D01*
X8753Y895D01*
X8771Y948D01*
X8775Y949D01*
X8805Y969D01*
X8825Y998D01*
X8831Y1033D01*
Y1762D01*
X8825Y1797D01*
X8805Y1826D01*
X8791Y1836D01*
X8773Y1886D01*
X8773Y1898D01*
X8779Y1908D01*
X8792Y1970D01*
X8779Y2032D01*
X8772Y2043D01*
X8793Y2102D01*
X8805Y2111D01*
X8825Y2140D01*
X8831Y2175D01*
Y2904D01*
X8825Y2939D01*
X8805Y2968D01*
X8775Y2988D01*
X8741Y2995D01*
X8507D01*
X8473Y2988D01*
X8443Y2968D01*
X8424Y2939D01*
X8417Y2904D01*
Y2175D01*
X8424Y2140D01*
X8443Y2111D01*
X8462Y2098D01*
X8478Y2061D01*
X8482Y2038D01*
X8478Y2032D01*
X8465Y1970D01*
X8478Y1908D01*
X8483Y1899D01*
X8477Y1867D01*
X8463Y1840D01*
X8443Y1826D01*
X8424Y1797D01*
X8417Y1762D01*
Y1033D01*
X8424Y998D01*
X8443Y969D01*
X8473Y949D01*
X8507Y942D01*
X8508D01*
X8523Y892D01*
X8513Y885D01*
X8492Y854D01*
X8435D01*
X8414Y885D01*
X8361Y921D01*
X8332Y927D01*
X8323Y940D01*
X8313Y981D01*
X8325Y998D01*
X8331Y1033D01*
Y1762D01*
X8325Y1797D01*
X8305Y1826D01*
X8280Y1843D01*
X8274Y1849D01*
X8258Y1901D01*
X8269Y1918D01*
X8282Y1980D01*
X8269Y2042D01*
X8269Y2043D01*
X8290Y2101D01*
X8305Y2111D01*
X8325Y2140D01*
X8331Y2175D01*
Y2904D01*
X8325Y2939D01*
X8305Y2968D01*
X8275Y2988D01*
X8241Y2995D01*
X8007D01*
X7973Y2988D01*
X7943Y2968D01*
X7924Y2939D01*
X7917Y2904D01*
Y2217D01*
X7874Y2182D01*
X7839Y2190D01*
X7831Y2211D01*
Y2904D01*
X7825Y2939D01*
X7805Y2968D01*
X7775Y2988D01*
X7741Y2995D01*
X7507D01*
X7473Y2988D01*
X7443Y2968D01*
X7424Y2939D01*
X7417Y2904D01*
Y2175D01*
X7424Y2140D01*
X7443Y2111D01*
X7429Y2060D01*
X7418Y2042D01*
X7405Y1980D01*
X7418Y1918D01*
X7440Y1884D01*
X7443Y1826D01*
X7424Y1797D01*
X7417Y1762D01*
Y1033D01*
X7424Y998D01*
X7443Y969D01*
X7473Y949D01*
X7507Y942D01*
X7741D01*
X7775Y949D01*
X7805Y969D01*
X7825Y998D01*
X7831Y1033D01*
Y1727D01*
X7881Y1747D01*
X7917Y1712D01*
Y1033D01*
X7924Y998D01*
X7943Y969D01*
X7973Y949D01*
X8007Y942D01*
X8178D01*
X8193Y892D01*
X8183Y885D01*
X8148Y832D01*
X8135Y770D01*
X8148Y708D01*
X8183Y655D01*
X8236Y619D01*
X8299Y607D01*
X8361Y619D01*
X8414Y655D01*
X8435Y686D01*
X8492D01*
X8513Y655D01*
X8566Y619D01*
X8629Y607D01*
X8691Y619D01*
X8744Y655D01*
X8753Y669D01*
X8803D01*
X8813Y655D01*
X8866Y619D01*
X8928Y607D01*
X8991Y619D01*
X9044Y655D01*
X9057Y674D01*
X9117D01*
X9123Y665D01*
X9176Y629D01*
X9238Y617D01*
X9301Y629D01*
X9354Y665D01*
X9389Y718D01*
X9402Y780D01*
X9389Y842D01*
X9354Y895D01*
X9330Y911D01*
Y1027D01*
X9331Y1033D01*
Y1737D01*
X9381Y1757D01*
X9417Y1722D01*
Y1033D01*
X9424Y998D01*
X9443Y969D01*
X9473Y949D01*
X9507Y942D01*
X9741D01*
X9775Y949D01*
X9805Y969D01*
X9825Y998D01*
X9831Y1033D01*
Y1747D01*
X9872Y1768D01*
X9880Y1769D01*
X9917Y1732D01*
Y1033D01*
X9924Y998D01*
X9943Y969D01*
X9973Y949D01*
X10007Y942D01*
X10241D01*
X10275Y949D01*
X10305Y969D01*
X10325Y998D01*
X10331Y1033D01*
Y1727D01*
X10381Y1747D01*
X10417Y1712D01*
Y1033D01*
X10424Y998D01*
X10443Y969D01*
X10473Y949D01*
X10507Y942D01*
X10741D01*
X10775Y949D01*
X10805Y969D01*
X10825Y998D01*
X10831Y1033D01*
Y1762D01*
X10825Y1797D01*
X10808Y1821D01*
X10813Y1849D01*
X10822Y1875D01*
X10824Y1875D01*
X10853Y1895D01*
X10908Y1950D01*
X10963Y1934D01*
X10968Y1908D01*
X10975Y1898D01*
X10974Y1886D01*
X10956Y1835D01*
X10943Y1826D01*
X10924Y1797D01*
X10917Y1762D01*
Y1033D01*
X10924Y998D01*
X10943Y969D01*
X10961Y957D01*
X10978Y914D01*
X10981Y897D01*
X10978Y892D01*
X10965Y830D01*
X10978Y768D01*
X11013Y715D01*
X11066Y679D01*
X11128Y667D01*
X11191Y679D01*
X11244Y715D01*
X11279Y768D01*
X11292Y830D01*
X11279Y892D01*
X11273Y902D01*
X11293Y961D01*
X11305Y969D01*
X11325Y998D01*
X11331Y1033D01*
Y1762D01*
X11325Y1797D01*
X11305Y1826D01*
X11284Y1840D01*
X11272Y1863D01*
X11264Y1899D01*
X11269Y1908D01*
X11282Y1970D01*
X11269Y2032D01*
X11266Y2038D01*
X11271Y2066D01*
X11286Y2098D01*
X11305Y2111D01*
X11325Y2140D01*
X11331Y2175D01*
Y2904D01*
X11325Y2939D01*
X11305Y2968D01*
X11275Y2988D01*
X11241Y2995D01*
X11007D01*
X10973Y2988D01*
X10943Y2968D01*
X10924Y2939D01*
X10917Y2904D01*
Y2218D01*
X10881Y2183D01*
X10831Y2203D01*
Y2904D01*
X10825Y2939D01*
X10805Y2968D01*
X10775Y2988D01*
X10767Y2990D01*
X10741Y3035D01*
X10741Y3045D01*
X10752Y3100D01*
X10739Y3162D01*
X10704Y3215D01*
X10651Y3251D01*
X10589Y3263D01*
X10526Y3251D01*
X10520Y3247D01*
X10470Y3274D01*
Y3390D01*
X10463Y3425D01*
X10443Y3455D01*
X9387Y4511D01*
X9358Y4531D01*
X9322Y4538D01*
X9177D01*
X9161Y4576D01*
X9120Y4629D01*
X9067Y4670D01*
X9029Y4686D01*
Y4982D01*
X9022Y5017D01*
X9002Y5046D01*
X8813Y5235D01*
X8822Y5280D01*
X8809Y5342D01*
X8774Y5395D01*
X8721Y5431D01*
X8658Y5443D01*
D02*
G37*
G36*
X5868Y3313D02*
X5806Y3301D01*
X5753Y3265D01*
X5718Y3212D01*
X5705Y3150D01*
X5711Y3122D01*
X5584Y2995D01*
X5507D01*
X5473Y2988D01*
X5443Y2968D01*
X5424Y2939D01*
X5417Y2904D01*
Y2175D01*
X5423Y2143D01*
X5407Y2121D01*
X5391Y2102D01*
X5351Y2107D01*
X5345Y2115D01*
X5329Y2142D01*
X5327Y2152D01*
X5331Y2175D01*
Y2904D01*
X5325Y2939D01*
X5305Y2968D01*
X5275Y2988D01*
X5241Y2995D01*
X5007D01*
X4973Y2988D01*
X4943Y2968D01*
X4924Y2939D01*
X4917Y2904D01*
Y2175D01*
X4924Y2140D01*
X4943Y2111D01*
X4946Y2049D01*
X4928Y2022D01*
X4915Y1960D01*
X4928Y1898D01*
X4938Y1883D01*
X4943Y1826D01*
X4924Y1797D01*
X4917Y1762D01*
Y1033D01*
X4924Y998D01*
X4943Y969D01*
X4973Y949D01*
X5007Y942D01*
X5241D01*
X5275Y949D01*
X5305Y969D01*
X5325Y998D01*
X5331Y1033D01*
Y1733D01*
X5368Y1770D01*
X5380Y1768D01*
X5412Y1750D01*
X5417Y1744D01*
Y1033D01*
X5424Y998D01*
X5443Y969D01*
X5473Y949D01*
X5507Y942D01*
X5741D01*
X5775Y949D01*
X5805Y969D01*
X5825Y998D01*
X5831Y1033D01*
Y1762D01*
X5825Y1797D01*
X5805Y1826D01*
X5787Y1839D01*
X5759Y1888D01*
X5772Y1950D01*
X5759Y2012D01*
X5744Y2035D01*
X5744Y2037D01*
X5768Y2089D01*
X5775Y2091D01*
X5805Y2111D01*
X5825Y2140D01*
X5831Y2175D01*
Y2904D01*
X5825Y2939D01*
X5814Y2955D01*
X5848Y2991D01*
X5868Y2987D01*
X5900Y2993D01*
X5930Y2948D01*
X5924Y2939D01*
X5917Y2904D01*
Y2175D01*
X5924Y2140D01*
X5943Y2111D01*
X5956Y2102D01*
X5974Y2050D01*
X5974Y2040D01*
X5962Y2021D01*
X5949Y1959D01*
X5962Y1896D01*
X5965Y1892D01*
X5947Y1829D01*
X5943Y1826D01*
X5924Y1797D01*
X5917Y1762D01*
Y1033D01*
X5924Y998D01*
X5943Y969D01*
X5973Y949D01*
X6007Y942D01*
X6241D01*
X6275Y949D01*
X6305Y969D01*
X6325Y998D01*
X6331Y1033D01*
Y1733D01*
X6368Y1770D01*
X6380Y1768D01*
X6417Y1748D01*
Y1033D01*
X6424Y998D01*
X6443Y969D01*
X6473Y949D01*
X6507Y942D01*
X6741D01*
X6775Y949D01*
X6805Y969D01*
X6825Y998D01*
X6831Y1033D01*
Y1762D01*
X6871Y1799D01*
X6881Y1799D01*
X6900Y1780D01*
X6917Y1757D01*
Y1033D01*
X6924Y998D01*
X6943Y969D01*
X6973Y949D01*
X7007Y942D01*
X7241D01*
X7275Y949D01*
X7305Y969D01*
X7325Y998D01*
X7331Y1033D01*
Y1762D01*
X7325Y1797D01*
X7305Y1826D01*
X7275Y1846D01*
X7241Y1853D01*
X7127D01*
X7053Y1928D01*
X7063Y1980D01*
X7052Y2034D01*
X7079Y2084D01*
X7241D01*
X7275Y2091D01*
X7305Y2111D01*
X7325Y2140D01*
X7331Y2175D01*
Y2904D01*
X7325Y2939D01*
X7305Y2968D01*
X7275Y2988D01*
X7241Y2995D01*
X7007D01*
X6973Y2988D01*
X6943Y2968D01*
X6924Y2939D01*
X6917Y2904D01*
Y2191D01*
X6910Y2171D01*
X6883Y2157D01*
X6834Y2179D01*
X6831Y2181D01*
Y2904D01*
X6825Y2939D01*
X6805Y2968D01*
X6775Y2988D01*
X6741Y2995D01*
X6716D01*
Y3004D01*
X6709Y3040D01*
X6689Y3069D01*
X6686Y3072D01*
X6692Y3100D01*
X6679Y3162D01*
X6644Y3215D01*
X6591Y3251D01*
X6528Y3263D01*
X6466Y3251D01*
X6413Y3215D01*
X6378Y3162D01*
X6365Y3100D01*
X6378Y3038D01*
X6413Y2985D01*
X6442Y2966D01*
X6424Y2939D01*
X6417Y2904D01*
Y2202D01*
X6376Y2163D01*
X6349Y2166D01*
X6343Y2169D01*
X6331Y2183D01*
Y2904D01*
X6325Y2939D01*
X6305Y2968D01*
X6275Y2988D01*
X6241Y2995D01*
X6013D01*
X6001Y3011D01*
X5989Y3042D01*
X6019Y3088D01*
X6032Y3150D01*
X6019Y3212D01*
X5984Y3265D01*
X5931Y3301D01*
X5868Y3313D01*
D02*
G37*
G36*
X5870Y3693D02*
X5808Y3681D01*
X5755Y3645D01*
X5719Y3592D01*
X5707Y3530D01*
X5719Y3468D01*
X5755Y3415D01*
X5808Y3379D01*
X5870Y3367D01*
X5932Y3379D01*
X5985Y3415D01*
X6021Y3468D01*
X6033Y3530D01*
X6021Y3592D01*
X5985Y3645D01*
X5932Y3681D01*
X5870Y3693D01*
D02*
G37*
G36*
X6880Y3653D02*
X6818Y3641D01*
X6765Y3605D01*
X6729Y3552D01*
X6717Y3490D01*
X6729Y3428D01*
X6765Y3375D01*
X6818Y3339D01*
X6880Y3327D01*
X6942Y3339D01*
X6995Y3375D01*
X7031Y3428D01*
X7043Y3490D01*
X7031Y3552D01*
X6995Y3605D01*
X6942Y3641D01*
X6880Y3653D01*
D02*
G37*
G36*
X12741Y1853D02*
X12684D01*
Y1458D01*
X12831D01*
Y1762D01*
X12825Y1797D01*
X12805Y1826D01*
X12775Y1846D01*
X12741Y1853D01*
D02*
G37*
G36*
X3241D02*
X3184D01*
Y1458D01*
X3331D01*
Y1762D01*
X3325Y1797D01*
X3305Y1826D01*
X3275Y1846D01*
X3241Y1853D01*
D02*
G37*
G36*
X13249Y2297D02*
X13164Y2286D01*
X13085Y2253D01*
X13016Y2201D01*
X12964Y2133D01*
X12931Y2054D01*
X12920Y1969D01*
X12931Y1883D01*
X12964Y1804D01*
X13016Y1736D01*
X13085Y1684D01*
X13164Y1651D01*
X13249Y1640D01*
X13334Y1651D01*
X13413Y1684D01*
X13481Y1736D01*
X13533Y1804D01*
X13566Y1883D01*
X13577Y1969D01*
X13566Y2054D01*
X13533Y2133D01*
X13481Y2201D01*
X13413Y2253D01*
X13334Y2286D01*
X13249Y2297D01*
D02*
G37*
G36*
X2499D02*
X2414Y2286D01*
X2335Y2253D01*
X2267Y2201D01*
X2215Y2133D01*
X2182Y2054D01*
X2171Y1969D01*
X2182Y1883D01*
X2215Y1804D01*
X2267Y1736D01*
X2335Y1684D01*
X2414Y1651D01*
X2499Y1640D01*
X2584Y1651D01*
X2663Y1684D01*
X2732Y1736D01*
X2784Y1804D01*
X2817Y1883D01*
X2828Y1969D01*
X2817Y2054D01*
X2784Y2133D01*
X2732Y2201D01*
X2663Y2253D01*
X2584Y2286D01*
X2499Y2297D01*
D02*
G37*
G36*
X12064Y12444D02*
X12007D01*
X11973Y12437D01*
X11943Y12417D01*
X11924Y12388D01*
X11917Y12353D01*
Y12048D01*
X12064D01*
Y12444D01*
D02*
G37*
G36*
X3064D02*
X3007D01*
X2973Y12437D01*
X2943Y12417D01*
X2924Y12388D01*
X2917Y12353D01*
Y12048D01*
X3064D01*
Y12444D01*
D02*
G37*
G36*
X12241D02*
X12184D01*
Y12048D01*
X12331D01*
Y12353D01*
X12325Y12388D01*
X12305Y12417D01*
X12275Y12437D01*
X12241Y12444D01*
D02*
G37*
G36*
X3241D02*
X3184D01*
Y12048D01*
X3331D01*
Y12353D01*
X3325Y12388D01*
X3305Y12417D01*
X3275Y12437D01*
X3241Y12444D01*
D02*
G37*
G36*
X5241D02*
X5007D01*
X4973Y12437D01*
X4943Y12417D01*
X4924Y12388D01*
X4917Y12353D01*
Y11624D01*
X4924Y11589D01*
X4943Y11559D01*
X4973Y11540D01*
X5007Y11533D01*
X5241D01*
X5275Y11540D01*
X5305Y11559D01*
X5325Y11589D01*
X5331Y11624D01*
Y12353D01*
X5325Y12388D01*
X5305Y12417D01*
X5275Y12437D01*
X5241Y12444D01*
D02*
G37*
G36*
X4508Y12742D02*
X4445Y12729D01*
X4393Y12694D01*
X4357Y12641D01*
X4345Y12579D01*
X4357Y12516D01*
X4393Y12463D01*
X4411Y12451D01*
X4441Y12420D01*
X4424Y12388D01*
X4417Y12353D01*
Y11624D01*
X4424Y11589D01*
X4443Y11559D01*
X4473Y11540D01*
X4507Y11533D01*
X4741D01*
X4775Y11540D01*
X4805Y11559D01*
X4825Y11589D01*
X4831Y11624D01*
Y12353D01*
X4825Y12388D01*
X4805Y12417D01*
X4775Y12437D01*
X4741Y12444D01*
X4670D01*
X4643Y12494D01*
X4659Y12516D01*
X4671Y12579D01*
X4659Y12641D01*
X4623Y12694D01*
X4570Y12729D01*
X4508Y12742D01*
D02*
G37*
G36*
X12331Y11928D02*
X12184D01*
Y11533D01*
X12241D01*
X12275Y11540D01*
X12305Y11559D01*
X12325Y11589D01*
X12331Y11624D01*
Y11928D01*
D02*
G37*
G36*
X12064D02*
X11917D01*
Y11624D01*
X11924Y11589D01*
X11943Y11559D01*
X11973Y11540D01*
X12007Y11533D01*
X12064D01*
Y11928D01*
D02*
G37*
G36*
X7111Y13855D02*
X7048Y13843D01*
X6995Y13807D01*
X6960Y13754D01*
X6948Y13692D01*
X6960Y13630D01*
X6995Y13577D01*
X6986Y13530D01*
X6963Y13494D01*
X6950Y13432D01*
X6963Y13370D01*
X6998Y13317D01*
X6974Y13289D01*
X6971Y13287D01*
X6936Y13234D01*
X6923Y13172D01*
X6936Y13109D01*
X6971Y13056D01*
X7024Y13021D01*
X7086Y13009D01*
X7149Y13021D01*
X7189Y13048D01*
X7196Y13045D01*
X7231Y12992D01*
X7284Y12957D01*
X7346Y12945D01*
X7409Y12957D01*
X7457Y12989D01*
X7509D01*
X7593Y12905D01*
X7623Y12885D01*
X7626Y12834D01*
X7615Y12780D01*
X7628Y12718D01*
X7663Y12665D01*
X7716Y12629D01*
X7723Y12613D01*
X7727Y12576D01*
X7715Y12520D01*
X7721Y12494D01*
X7682Y12444D01*
X7637D01*
X7624Y12446D01*
X7494D01*
X7159Y12781D01*
X7163Y12800D01*
X7151Y12862D01*
X7115Y12915D01*
X7062Y12951D01*
X7000Y12963D01*
X6938Y12951D01*
X6885Y12915D01*
X6849Y12862D01*
X6837Y12800D01*
X6849Y12738D01*
X6862Y12718D01*
X6852Y12651D01*
X6844Y12645D01*
X6808Y12593D01*
X6796Y12530D01*
X6807Y12476D01*
X6789Y12453D01*
X6768Y12438D01*
X6741Y12444D01*
X6650D01*
X6622Y12494D01*
X6632Y12543D01*
X6619Y12606D01*
X6584Y12659D01*
X6531Y12694D01*
X6468Y12707D01*
X6406Y12694D01*
X6353Y12659D01*
X6324D01*
X6271Y12694D01*
X6209Y12707D01*
X6146Y12694D01*
X6093Y12659D01*
X6044Y12676D01*
X6008Y12701D01*
X5945Y12713D01*
X5883Y12701D01*
X5830Y12665D01*
X5794Y12612D01*
X5782Y12550D01*
X5794Y12487D01*
X5800Y12479D01*
X5788Y12458D01*
X5767Y12438D01*
X5741Y12444D01*
X5507D01*
X5473Y12437D01*
X5443Y12417D01*
X5424Y12388D01*
X5417Y12353D01*
Y11624D01*
X5424Y11589D01*
X5443Y11559D01*
X5473Y11540D01*
X5507Y11533D01*
X5741D01*
X5775Y11540D01*
X5805Y11559D01*
X5825Y11589D01*
X5831Y11624D01*
Y12338D01*
X5858Y12370D01*
X5876Y12383D01*
X5896Y12381D01*
X5917Y12353D01*
Y11624D01*
X5924Y11589D01*
X5943Y11559D01*
X5973Y11540D01*
X6007Y11533D01*
X6032D01*
Y11514D01*
X6039Y11479D01*
X6059Y11450D01*
X6161Y11348D01*
X6141Y11302D01*
X6007D01*
X5973Y11295D01*
X5943Y11275D01*
X5924Y11246D01*
X5917Y11211D01*
Y10482D01*
X5924Y10447D01*
X5943Y10418D01*
X5962Y10405D01*
X5955Y10370D01*
X5968Y10308D01*
X6003Y10255D01*
X6056Y10219D01*
X6119Y10207D01*
X6181Y10219D01*
X6234Y10255D01*
X6256Y10287D01*
X6271Y10293D01*
X6311Y10295D01*
X6315Y10293D01*
X6410Y10199D01*
X6439Y10179D01*
X6475Y10172D01*
X6716D01*
X6835Y10053D01*
X6835Y10053D01*
X6896Y9992D01*
Y9924D01*
X6873Y9909D01*
X6837Y9856D01*
X6825Y9793D01*
X6837Y9731D01*
X6873Y9678D01*
X6926Y9643D01*
X6988Y9630D01*
X7051Y9643D01*
X7104Y9678D01*
X7139Y9731D01*
X7151Y9793D01*
X7139Y9856D01*
X7104Y9909D01*
X7080Y9924D01*
Y10030D01*
X7076Y10047D01*
X7098Y10086D01*
X7111Y10097D01*
X7378D01*
X7395Y10072D01*
X7448Y10037D01*
X7510Y10024D01*
X7573Y10037D01*
X7625Y10072D01*
X7661Y10125D01*
X7673Y10187D01*
X7669Y10209D01*
X7715Y10233D01*
X7777Y10172D01*
X7743Y10121D01*
X7731Y10059D01*
X7743Y9997D01*
X7778Y9944D01*
X7831Y9908D01*
X7894Y9896D01*
X7956Y9908D01*
X7963Y9913D01*
X8005Y9891D01*
X8004Y9842D01*
X7977Y9831D01*
X7923Y9789D01*
X7882Y9736D01*
X7856Y9673D01*
X7847Y9606D01*
X7856Y9539D01*
X7882Y9477D01*
X7923Y9423D01*
X7977Y9382D01*
X8039Y9356D01*
X8106Y9347D01*
X8173Y9356D01*
X8233Y9381D01*
X8244Y9376D01*
X8276Y9350D01*
X8272Y9331D01*
X8285Y9269D01*
X8320Y9216D01*
X8373Y9180D01*
X8435Y9168D01*
X8498Y9180D01*
X8500Y9179D01*
X8511Y9127D01*
X8546Y9074D01*
X8599Y9039D01*
X8662Y9026D01*
X8724Y9039D01*
X8777Y9074D01*
X8812Y9127D01*
X8825Y9190D01*
X8812Y9252D01*
X8777Y9305D01*
X8724Y9340D01*
X8662Y9353D01*
X8599Y9340D01*
X8596Y9341D01*
X8586Y9394D01*
X8551Y9447D01*
X8498Y9482D01*
X8435Y9494D01*
X8415Y9490D01*
X8358Y9548D01*
X8365Y9606D01*
X8357Y9673D01*
X8349Y9691D01*
X8383Y9741D01*
X8472D01*
X8487Y9718D01*
X8540Y9682D01*
X8603Y9670D01*
X8665Y9682D01*
X8718Y9718D01*
X8753Y9771D01*
X8766Y9833D01*
X8753Y9896D01*
X8725Y9938D01*
X8739Y9976D01*
X8747Y9988D01*
X8857D01*
X8882Y9938D01*
X8870Y9922D01*
X8844Y9860D01*
X8835Y9793D01*
X8844Y9725D01*
X8870Y9663D01*
X8911Y9609D01*
X8965Y9568D01*
X9008Y9550D01*
X9010Y9542D01*
X9030Y9512D01*
X9124Y9418D01*
X9118Y9390D01*
X9131Y9327D01*
X9166Y9274D01*
X9219Y9239D01*
X9281Y9227D01*
X9344Y9239D01*
X9397Y9274D01*
X9432Y9327D01*
X9445Y9390D01*
X9433Y9450D01*
X9451Y9475D01*
X9468Y9489D01*
X9498Y9482D01*
X9656D01*
X9691Y9489D01*
X9721Y9509D01*
X9807Y9596D01*
X9857Y9575D01*
Y9449D01*
X9863Y9420D01*
X9879Y9395D01*
X9897Y9384D01*
Y9308D01*
X9904Y9273D01*
X9924Y9244D01*
X10002Y9165D01*
X9995Y9129D01*
X10002Y9098D01*
X9969Y9054D01*
X9964Y9052D01*
X9906Y9041D01*
X9853Y9005D01*
X9818Y8952D01*
X9805Y8890D01*
X9818Y8828D01*
X9853Y8775D01*
X9906Y8739D01*
X9969Y8727D01*
X10031Y8739D01*
X10053Y8754D01*
X10098Y8724D01*
X10095Y8710D01*
X10108Y8648D01*
X10143Y8595D01*
X10196Y8559D01*
X10259Y8547D01*
X10321Y8559D01*
X10366Y8590D01*
X10384Y8592D01*
X10384Y8592D01*
X10406Y8534D01*
X10398Y8522D01*
X10385Y8460D01*
X10398Y8398D01*
X10433Y8345D01*
X10486Y8309D01*
X10548Y8297D01*
X10611Y8309D01*
X10626Y8320D01*
X10676Y8293D01*
Y8220D01*
X10676Y8220D01*
X10685Y8177D01*
X10709Y8141D01*
X10785Y8065D01*
Y7911D01*
X10791Y7883D01*
X10801Y7868D01*
Y7566D01*
X10810Y7519D01*
X10837Y7479D01*
X10996Y7320D01*
X10978Y7292D01*
X10965Y7230D01*
X10978Y7168D01*
X11013Y7115D01*
X11066Y7079D01*
X11128Y7067D01*
X11191Y7079D01*
X11244Y7115D01*
X11279Y7168D01*
X11282Y7169D01*
X11326Y7139D01*
X11388Y7127D01*
X11451Y7139D01*
X11504Y7175D01*
X11539Y7228D01*
X11552Y7290D01*
X11539Y7352D01*
X11532Y7363D01*
X11542Y7388D01*
X11561Y7410D01*
X11740D01*
X11773Y7417D01*
X11788Y7427D01*
X11876D01*
Y7020D01*
X11859Y7013D01*
X11805Y6972D01*
X11764Y6918D01*
X11738Y6856D01*
X11729Y6789D01*
X11738Y6722D01*
X11764Y6659D01*
X11805Y6605D01*
X11859Y6564D01*
X11921Y6538D01*
X11988Y6530D01*
X12055Y6538D01*
X12118Y6564D01*
X12171Y6605D01*
X12213Y6659D01*
X12238Y6722D01*
X12247Y6789D01*
X12238Y6856D01*
X12213Y6918D01*
X12171Y6972D01*
X12118Y7013D01*
X12100Y7020D01*
Y7520D01*
X12100Y7520D01*
X12092Y7563D01*
X12080Y7581D01*
X12082Y7590D01*
X12069Y7652D01*
X12065Y7658D01*
X12092Y7708D01*
X12208D01*
X12240Y7714D01*
X12275Y7700D01*
X12342Y7691D01*
X12410Y7700D01*
X12472Y7726D01*
X12526Y7767D01*
X12567Y7820D01*
X12593Y7883D01*
X12602Y7950D01*
X12593Y8017D01*
X12582Y8044D01*
X12694Y8156D01*
X12714Y8186D01*
X12721Y8221D01*
Y10391D01*
X12741D01*
X12775Y10398D01*
X12805Y10418D01*
X12825Y10447D01*
X12831Y10482D01*
Y11211D01*
X12825Y11246D01*
X12805Y11275D01*
X12775Y11295D01*
X12741Y11302D01*
X12616D01*
X12596Y11348D01*
X12689Y11441D01*
X12709Y11470D01*
X12716Y11506D01*
Y11533D01*
X12741D01*
X12775Y11540D01*
X12805Y11559D01*
X12825Y11589D01*
X12831Y11624D01*
Y12353D01*
X12825Y12388D01*
X12805Y12417D01*
X12775Y12437D01*
X12741Y12444D01*
X12507D01*
X12473Y12437D01*
X12443Y12417D01*
X12424Y12388D01*
X12417Y12353D01*
Y11624D01*
X12424Y11589D01*
X12443Y11559D01*
X12464Y11546D01*
X12475Y11507D01*
X12477Y11488D01*
X12314Y11325D01*
X12294Y11295D01*
X12244Y11301D01*
X12241Y11302D01*
X12007D01*
X11973Y11295D01*
X11943Y11275D01*
X11924Y11246D01*
X11917Y11211D01*
Y10482D01*
X11924Y10447D01*
X11943Y10418D01*
X11973Y10398D01*
X12007Y10391D01*
X12012D01*
Y10208D01*
X12002Y10200D01*
X11961Y10146D01*
X11935Y10084D01*
X11926Y10017D01*
X11935Y9950D01*
X11961Y9887D01*
X12002Y9834D01*
X12055Y9793D01*
X12118Y9767D01*
X12185Y9758D01*
X12252Y9767D01*
X12315Y9793D01*
X12330Y9805D01*
X12380Y9780D01*
Y9266D01*
X12342Y9233D01*
X12342Y9233D01*
X12275Y9224D01*
X12213Y9198D01*
X12159Y9157D01*
X12118Y9103D01*
X12092Y9041D01*
X12092Y9038D01*
X12039Y9019D01*
X12025Y9032D01*
Y9041D01*
X12042Y9068D01*
X12048Y9099D01*
Y9137D01*
X11729D01*
Y9099D01*
X11735Y9068D01*
X11752Y9041D01*
Y8999D01*
X11735Y8972D01*
X11729Y8941D01*
Y8859D01*
X11725Y8843D01*
Y8640D01*
X11738Y8578D01*
X11750Y8559D01*
X11733Y8505D01*
X11704Y8485D01*
X11583Y8364D01*
X11536Y8383D01*
Y8973D01*
X11571Y8985D01*
X11595Y9001D01*
X11611Y9025D01*
X11617Y9053D01*
Y9129D01*
X11496D01*
Y9189D01*
X11436D01*
Y9395D01*
X11421Y9392D01*
X11398Y9377D01*
X11374Y9392D01*
X11359Y9395D01*
Y9189D01*
X11239D01*
Y9395D01*
X11224Y9392D01*
X11201Y9377D01*
X11178Y9392D01*
X11162Y9395D01*
Y9189D01*
X11042D01*
Y9395D01*
X11027Y9392D01*
X11004Y9377D01*
X10981Y9392D01*
X10953Y9398D01*
X10858D01*
X10830Y9392D01*
X10806Y9377D01*
X10791Y9353D01*
X10785Y9325D01*
Y9255D01*
X10770Y9244D01*
X10720Y9269D01*
Y9441D01*
X10720Y9441D01*
X10791D01*
X10826Y9448D01*
X10856Y9468D01*
X11113Y9725D01*
X11133Y9755D01*
X11140Y9790D01*
Y9970D01*
X11133Y10005D01*
X11113Y10035D01*
X10997Y10151D01*
X10968Y10171D01*
X10944Y10176D01*
X10931Y10190D01*
X10922Y10203D01*
X10912Y10228D01*
X10921Y10276D01*
X10909Y10339D01*
X10874Y10391D01*
X10821Y10427D01*
X10830Y10476D01*
X10831Y10482D01*
Y11211D01*
X10825Y11246D01*
X10847Y11289D01*
X10852Y11294D01*
X10868Y11302D01*
X10899Y11299D01*
X10928Y11252D01*
X10924Y11246D01*
X10924Y11246D01*
X10922Y11240D01*
X10917Y11211D01*
Y10482D01*
X10924Y10447D01*
X10943Y10418D01*
X10973Y10398D01*
X11007Y10391D01*
X11241D01*
X11275Y10398D01*
X11305Y10418D01*
X11325Y10447D01*
X11331Y10482D01*
Y11211D01*
X11325Y11246D01*
X11324Y11247D01*
X11331Y11297D01*
X11340Y11305D01*
X11384Y11335D01*
X11419Y11388D01*
X11432Y11450D01*
X11419Y11512D01*
X11416Y11518D01*
X11452Y11554D01*
X11473Y11540D01*
X11507Y11533D01*
X11741D01*
X11775Y11540D01*
X11805Y11559D01*
X11825Y11589D01*
X11831Y11624D01*
Y12353D01*
X11825Y12388D01*
X11805Y12417D01*
X11775Y12437D01*
X11741Y12444D01*
X11620D01*
X11593Y12494D01*
X11609Y12518D01*
X11622Y12580D01*
X11609Y12642D01*
X11574Y12695D01*
X11521Y12731D01*
X11458Y12743D01*
X11396Y12731D01*
X11343Y12695D01*
X11311Y12648D01*
X11291Y12646D01*
X11259Y12653D01*
X11224Y12705D01*
X11171Y12741D01*
X11108Y12753D01*
X11046Y12741D01*
X10993Y12705D01*
X10958Y12652D01*
X10945Y12590D01*
X10958Y12528D01*
X10983Y12490D01*
X10975Y12448D01*
X10973Y12443D01*
X10966Y12432D01*
X10943Y12417D01*
X10924Y12388D01*
X10917Y12353D01*
Y11624D01*
X10924Y11589D01*
X10903Y11562D01*
X10847Y11562D01*
X10844Y11565D01*
X10826Y11596D01*
X10831Y11624D01*
Y12353D01*
X10825Y12388D01*
X10805Y12417D01*
X10775Y12437D01*
X10741Y12444D01*
X10507D01*
X10473Y12437D01*
X10443Y12417D01*
X10424Y12388D01*
X10417Y12353D01*
Y11624D01*
X10421Y11601D01*
X10424Y11551D01*
X10374Y11517D01*
X10328Y11564D01*
Y11606D01*
X10331Y11624D01*
Y12353D01*
X10325Y12388D01*
X10305Y12417D01*
X10289Y12427D01*
X10270Y12478D01*
X10269Y12488D01*
X10282Y12550D01*
X10269Y12612D01*
X10234Y12665D01*
X10181Y12701D01*
X10118Y12713D01*
X10056Y12701D01*
X10003Y12665D01*
X9968Y12612D01*
X9955Y12550D01*
X9968Y12488D01*
X9971Y12483D01*
X9951Y12422D01*
X9943Y12417D01*
X9924Y12388D01*
X9917Y12353D01*
Y11691D01*
X9867Y11671D01*
X9831Y11706D01*
Y12353D01*
X9825Y12388D01*
X9813Y12405D01*
X9844Y12427D01*
X9880Y12479D01*
X9892Y12542D01*
X9880Y12604D01*
X9844Y12657D01*
X9791Y12693D01*
X9729Y12705D01*
X9666Y12693D01*
X9614Y12657D01*
X9578Y12604D01*
X9574Y12582D01*
X9522Y12576D01*
X9495Y12615D01*
X9442Y12651D01*
X9380Y12663D01*
X9317Y12651D01*
X9265Y12615D01*
X9229Y12562D01*
X9217Y12500D01*
X9220Y12482D01*
X9189Y12444D01*
X9007D01*
X8973Y12437D01*
X8943Y12417D01*
X8924Y12388D01*
X8917Y12353D01*
Y11624D01*
X8924Y11589D01*
X8943Y11559D01*
X8973Y11540D01*
X9007Y11533D01*
X9018D01*
X9045Y11483D01*
X9038Y11472D01*
X9025Y11410D01*
X9037Y11352D01*
X9035Y11339D01*
X9015Y11302D01*
X9007D01*
X8973Y11295D01*
X8943Y11275D01*
X8924Y11246D01*
X8917Y11211D01*
Y10492D01*
X8891Y10476D01*
X8868Y10470D01*
X8831Y10507D01*
Y11211D01*
X8825Y11246D01*
X8805Y11275D01*
X8775Y11295D01*
X8741Y11302D01*
X8516D01*
X8497Y11320D01*
X8481Y11348D01*
X8492Y11400D01*
X8479Y11462D01*
X8458Y11494D01*
X8490Y11536D01*
X8507Y11533D01*
X8741D01*
X8775Y11540D01*
X8805Y11559D01*
X8825Y11589D01*
X8831Y11624D01*
Y12353D01*
X8825Y12388D01*
X8805Y12417D01*
X8775Y12437D01*
X8741Y12444D01*
X8560D01*
Y12638D01*
X8553Y12673D01*
X8533Y12703D01*
X8201Y13035D01*
X8171Y13055D01*
X8136Y13062D01*
X7922D01*
X7894Y13112D01*
X7903Y13160D01*
X7891Y13222D01*
X7855Y13275D01*
X7802Y13311D01*
X7740Y13323D01*
X7678Y13311D01*
X7625Y13275D01*
X7589Y13222D01*
X7578Y13166D01*
X7547Y13172D01*
X7495D01*
X7462Y13223D01*
X7409Y13258D01*
X7346Y13271D01*
X7284Y13258D01*
X7280Y13256D01*
X7247Y13263D01*
X7228Y13308D01*
X7229Y13317D01*
X7264Y13370D01*
X7276Y13432D01*
X7264Y13494D01*
X7229Y13547D01*
X7238Y13594D01*
X7261Y13630D01*
X7274Y13692D01*
X7261Y13754D01*
X7226Y13807D01*
X7173Y13843D01*
X7111Y13855D01*
D02*
G37*
G36*
X5423Y13904D02*
X5361Y13892D01*
X5308Y13856D01*
X5273Y13803D01*
X5260Y13741D01*
X5273Y13678D01*
X5308Y13625D01*
X5361Y13590D01*
X5423Y13578D01*
X5486Y13590D01*
X5539Y13625D01*
X5574Y13678D01*
X5587Y13741D01*
X5574Y13803D01*
X5539Y13856D01*
X5486Y13892D01*
X5423Y13904D01*
D02*
G37*
G36*
X6090Y13903D02*
X6028Y13891D01*
X5975Y13855D01*
X5939Y13802D01*
X5927Y13740D01*
X5939Y13678D01*
X5975Y13625D01*
X6028Y13589D01*
X6090Y13577D01*
X6152Y13589D01*
X6196Y13619D01*
X6199Y13618D01*
X6235Y13565D01*
X6288Y13529D01*
X6350Y13517D01*
X6412Y13529D01*
X6465Y13565D01*
X6501Y13618D01*
X6513Y13680D01*
X6501Y13742D01*
X6465Y13795D01*
X6412Y13831D01*
X6350Y13843D01*
X6288Y13831D01*
X6244Y13801D01*
X6241Y13802D01*
X6205Y13855D01*
X6152Y13891D01*
X6090Y13903D01*
D02*
G37*
G36*
X8219Y14483D02*
X8156Y14471D01*
X8103Y14435D01*
X8068Y14382D01*
X8055Y14320D01*
X8068Y14258D01*
X8103Y14205D01*
X8156Y14169D01*
X8219Y14157D01*
X8281Y14169D01*
X8334Y14205D01*
X8369Y14258D01*
X8382Y14320D01*
X8369Y14382D01*
X8334Y14435D01*
X8281Y14471D01*
X8219Y14483D01*
D02*
G37*
G36*
X7720Y13943D02*
X7658Y13931D01*
X7605Y13895D01*
X7569Y13842D01*
X7557Y13780D01*
X7569Y13718D01*
X7605Y13665D01*
X7658Y13629D01*
X7720Y13617D01*
X7782Y13629D01*
X7835Y13665D01*
X7871Y13718D01*
X7883Y13780D01*
X7871Y13842D01*
X7835Y13895D01*
X7782Y13931D01*
X7720Y13943D01*
D02*
G37*
G36*
X4508Y13195D02*
X4445Y13182D01*
X4393Y13147D01*
X4357Y13094D01*
X4345Y13032D01*
X4357Y12969D01*
X4393Y12916D01*
X4445Y12881D01*
X4508Y12868D01*
X4570Y12881D01*
X4623Y12916D01*
X4659Y12969D01*
X4671Y13032D01*
X4659Y13094D01*
X4623Y13147D01*
X4570Y13182D01*
X4508Y13195D01*
D02*
G37*
G36*
X5463Y13116D02*
X5400Y13103D01*
X5347Y13068D01*
X5312Y13015D01*
X5299Y12953D01*
X5312Y12890D01*
X5347Y12837D01*
X5400Y12802D01*
X5463Y12790D01*
X5525Y12802D01*
X5578Y12837D01*
X5613Y12890D01*
X5626Y12953D01*
X5613Y13015D01*
X5578Y13068D01*
X5525Y13103D01*
X5463Y13116D01*
D02*
G37*
G36*
X6014Y13510D02*
X5952Y13498D01*
X5899Y13462D01*
X5898Y13462D01*
X5863D01*
X5810Y13497D01*
X5748Y13510D01*
X5686Y13497D01*
X5633Y13462D01*
X5597Y13409D01*
X5585Y13346D01*
X5597Y13284D01*
X5633Y13231D01*
X5686Y13196D01*
X5748Y13183D01*
X5810Y13196D01*
X5863Y13231D01*
X5864Y13232D01*
X5899D01*
X5952Y13196D01*
X6014Y13184D01*
X6076Y13196D01*
X6129Y13232D01*
X6165Y13285D01*
X6177Y13347D01*
X6165Y13410D01*
X6129Y13462D01*
X6076Y13498D01*
X6014Y13510D01*
D02*
G37*
G36*
X6345Y13093D02*
X6282Y13081D01*
X6247Y13057D01*
X6195Y13045D01*
X6142Y13081D01*
X6080Y13093D01*
X6018Y13081D01*
X5965Y13045D01*
X5929Y12992D01*
X5917Y12930D01*
X5929Y12868D01*
X5965Y12815D01*
X6018Y12779D01*
X6080Y12767D01*
X6142Y12779D01*
X6177Y12803D01*
X6230Y12815D01*
X6282Y12779D01*
X6345Y12767D01*
X6407Y12779D01*
X6460Y12815D01*
X6496Y12868D01*
X6508Y12930D01*
X6496Y12993D01*
X6460Y13046D01*
X6407Y13081D01*
X6345Y13093D01*
D02*
G37*
G36*
X3331Y11928D02*
X3184D01*
Y11533D01*
X3241D01*
X3275Y11540D01*
X3305Y11559D01*
X3325Y11589D01*
X3331Y11624D01*
Y11928D01*
D02*
G37*
G36*
X4754Y9651D02*
X4692Y9639D01*
X4639Y9604D01*
X4603Y9551D01*
X4591Y9488D01*
X4603Y9426D01*
X4639Y9373D01*
X4692Y9337D01*
X4754Y9325D01*
X4816Y9337D01*
X4869Y9373D01*
X4905Y9426D01*
X4917Y9488D01*
X4905Y9551D01*
X4869Y9604D01*
X4816Y9639D01*
X4754Y9651D01*
D02*
G37*
G36*
X11967Y9377D02*
X11948D01*
Y9257D01*
X12048D01*
Y9296D01*
X12042Y9327D01*
X12025Y9353D01*
X11998Y9371D01*
X11967Y9377D01*
D02*
G37*
G36*
X5859Y10153D02*
X5796Y10141D01*
X5743Y10105D01*
X5708Y10052D01*
X5695Y9990D01*
X5708Y9928D01*
X5726Y9901D01*
X5732Y9851D01*
X5722Y9829D01*
X5698Y9792D01*
X5685Y9730D01*
X5698Y9668D01*
X5733Y9615D01*
X5786Y9579D01*
X5849Y9567D01*
X5911Y9579D01*
X5946Y9603D01*
X5958Y9598D01*
X5993Y9545D01*
X6046Y9509D01*
X6108Y9497D01*
X6171Y9509D01*
X6224Y9545D01*
X6259Y9598D01*
X6272Y9660D01*
X6259Y9722D01*
X6224Y9775D01*
X6171Y9811D01*
X6108Y9823D01*
X6046Y9811D01*
X6022Y9795D01*
X5981Y9825D01*
X5975Y9869D01*
X5985Y9891D01*
X6009Y9928D01*
X6022Y9990D01*
X6009Y10052D01*
X5974Y10105D01*
X5921Y10141D01*
X5859Y10153D01*
D02*
G37*
G36*
X3241Y11302D02*
X3007D01*
X2973Y11295D01*
X2943Y11275D01*
X2924Y11246D01*
X2917Y11211D01*
Y10482D01*
X2924Y10447D01*
X2943Y10418D01*
X2961Y10406D01*
Y10297D01*
X2973Y10234D01*
X3009Y10181D01*
X3795Y9395D01*
X3848Y9359D01*
X3911Y9347D01*
X4148D01*
X4211Y9359D01*
X4264Y9395D01*
X4299Y9448D01*
X4312Y9510D01*
X4299Y9572D01*
X4264Y9625D01*
X4211Y9661D01*
X4148Y9673D01*
X3978D01*
X3292Y10360D01*
X3295Y10411D01*
X3305Y10418D01*
X3325Y10447D01*
X3331Y10482D01*
Y11211D01*
X3325Y11246D01*
X3305Y11275D01*
X3275Y11295D01*
X3241Y11302D01*
D02*
G37*
G36*
X5453Y9573D02*
X5390Y9561D01*
X5338Y9525D01*
X5302Y9472D01*
X5290Y9410D01*
X5302Y9347D01*
X5338Y9295D01*
X5390Y9259D01*
X5453Y9247D01*
X5476Y9224D01*
X5475Y9220D01*
X5488Y9158D01*
X5523Y9105D01*
X5576Y9069D01*
X5638Y9057D01*
X5701Y9069D01*
X5754Y9105D01*
X5789Y9158D01*
X5802Y9220D01*
X5789Y9282D01*
X5754Y9335D01*
X5701Y9371D01*
X5639Y9383D01*
X5615Y9406D01*
X5616Y9410D01*
X5604Y9472D01*
X5568Y9525D01*
X5515Y9561D01*
X5453Y9573D01*
D02*
G37*
G36*
X6478Y8963D02*
X6416Y8951D01*
X6363Y8915D01*
X6328Y8862D01*
X6315Y8800D01*
X6328Y8738D01*
X6363Y8685D01*
X6416Y8649D01*
X6478Y8637D01*
X6541Y8649D01*
X6594Y8685D01*
X6629Y8738D01*
X6642Y8800D01*
X6629Y8862D01*
X6594Y8915D01*
X6541Y8951D01*
X6478Y8963D01*
D02*
G37*
G36*
X11829Y9377D02*
X11810D01*
X11779Y9371D01*
X11752Y9353D01*
X11735Y9327D01*
X11729Y9296D01*
Y9257D01*
X11829D01*
Y9377D01*
D02*
G37*
G36*
X11556Y9395D02*
Y9249D01*
X11617D01*
Y9325D01*
X11611Y9353D01*
X11595Y9377D01*
X11571Y9392D01*
X11556Y9395D01*
D02*
G37*
G36*
X2499Y11746D02*
X2414Y11735D01*
X2335Y11702D01*
X2267Y11650D01*
X2215Y11582D01*
X2182Y11502D01*
X2171Y11417D01*
X2182Y11332D01*
X2215Y11253D01*
X2267Y11185D01*
X2335Y11133D01*
X2414Y11100D01*
X2499Y11089D01*
X2584Y11100D01*
X2663Y11133D01*
X2732Y11185D01*
X2784Y11253D01*
X2817Y11332D01*
X2828Y11417D01*
X2817Y11502D01*
X2784Y11582D01*
X2732Y11650D01*
X2663Y11702D01*
X2584Y11735D01*
X2499Y11746D01*
D02*
G37*
G36*
X11741Y11302D02*
X11507D01*
X11473Y11295D01*
X11443Y11275D01*
X11424Y11246D01*
X11417Y11211D01*
Y10482D01*
X11424Y10447D01*
X11443Y10418D01*
X11473Y10398D01*
X11507Y10391D01*
X11741D01*
X11775Y10398D01*
X11805Y10418D01*
X11825Y10447D01*
X11831Y10482D01*
Y11211D01*
X11825Y11246D01*
X11805Y11275D01*
X11775Y11295D01*
X11741Y11302D01*
D02*
G37*
G36*
X3064Y11928D02*
X2917D01*
Y11624D01*
X2924Y11589D01*
X2943Y11559D01*
X2973Y11540D01*
X3007Y11533D01*
X3064D01*
Y11928D01*
D02*
G37*
G36*
X13249Y11746D02*
X13164Y11735D01*
X13085Y11702D01*
X13016Y11650D01*
X12964Y11582D01*
X12931Y11502D01*
X12920Y11417D01*
X12931Y11332D01*
X12964Y11253D01*
X13016Y11185D01*
X13085Y11133D01*
X13164Y11100D01*
X13249Y11089D01*
X13334Y11100D01*
X13413Y11133D01*
X13481Y11185D01*
X13533Y11253D01*
X13566Y11332D01*
X13577Y11417D01*
X13566Y11502D01*
X13533Y11582D01*
X13481Y11650D01*
X13413Y11702D01*
X13334Y11735D01*
X13249Y11746D01*
D02*
G37*
G36*
X3638Y12713D02*
X3576Y12701D01*
X3523Y12665D01*
X3488Y12612D01*
X3475Y12550D01*
X3488Y12488D01*
X3477Y12450D01*
X3465Y12432D01*
X3443Y12417D01*
X3424Y12388D01*
X3417Y12353D01*
Y11624D01*
X3424Y11589D01*
X3443Y11559D01*
X3473Y11540D01*
X3507Y11533D01*
X3695D01*
X3708Y11517D01*
X3726Y11483D01*
X3715Y11430D01*
X3728Y11368D01*
X3735Y11356D01*
X3681Y11302D01*
X3507D01*
X3473Y11295D01*
X3443Y11275D01*
X3424Y11246D01*
X3417Y11211D01*
Y10482D01*
X3424Y10447D01*
X3443Y10418D01*
X3473Y10398D01*
X3507Y10391D01*
X3741D01*
X3775Y10398D01*
X3805Y10418D01*
X3825Y10447D01*
X3831Y10482D01*
Y11193D01*
X3870Y11231D01*
X3909Y11214D01*
X3917Y11208D01*
Y10482D01*
X3924Y10447D01*
X3943Y10418D01*
X3973Y10398D01*
X4007Y10391D01*
X4241D01*
X4275Y10398D01*
X4305Y10418D01*
X4325Y10447D01*
X4331Y10482D01*
Y11211D01*
X4325Y11246D01*
X4305Y11275D01*
X4275Y11295D01*
X4241Y11302D01*
X4045D01*
X4019Y11352D01*
X4029Y11368D01*
X4042Y11430D01*
X4031Y11483D01*
X4049Y11517D01*
X4062Y11533D01*
X4241D01*
X4275Y11540D01*
X4305Y11559D01*
X4325Y11589D01*
X4331Y11624D01*
Y12353D01*
X4325Y12388D01*
X4305Y12417D01*
X4275Y12437D01*
X4241Y12444D01*
X4007D01*
X3973Y12437D01*
X3943Y12417D01*
X3924Y12388D01*
X3917Y12353D01*
Y11659D01*
X3874Y11618D01*
X3843Y11621D01*
X3831Y11635D01*
Y12353D01*
X3825Y12388D01*
X3805Y12417D01*
X3803Y12418D01*
X3785Y12482D01*
X3789Y12488D01*
X3802Y12550D01*
X3789Y12612D01*
X3754Y12665D01*
X3701Y12701D01*
X3638Y12713D01*
D02*
G37*
G36*
X4741Y11302D02*
X4507D01*
X4473Y11295D01*
X4443Y11275D01*
X4424Y11246D01*
X4417Y11211D01*
Y10482D01*
X4424Y10447D01*
X4443Y10418D01*
X4473Y10398D01*
X4487Y10395D01*
X4488Y10395D01*
X4507Y10349D01*
X4507Y10341D01*
X4485Y10308D01*
X4473Y10246D01*
X4485Y10184D01*
X4520Y10131D01*
X4573Y10095D01*
X4636Y10083D01*
X4698Y10095D01*
X4751Y10131D01*
X4787Y10184D01*
X4799Y10246D01*
X4787Y10308D01*
X4763Y10344D01*
X4774Y10393D01*
X4780Y10401D01*
X4805Y10418D01*
X4825Y10447D01*
X4831Y10482D01*
Y11211D01*
X4825Y11246D01*
X4805Y11275D01*
X4775Y11295D01*
X4741Y11302D01*
D02*
G37*
G36*
X5241D02*
X5007D01*
X4973Y11295D01*
X4943Y11275D01*
X4924Y11246D01*
X4917Y11211D01*
Y10482D01*
X4924Y10447D01*
X4943Y10418D01*
X4973Y10398D01*
X5007Y10391D01*
X5241D01*
X5275Y10398D01*
X5305Y10418D01*
X5325Y10447D01*
X5331Y10482D01*
Y11211D01*
X5325Y11246D01*
X5305Y11275D01*
X5275Y11295D01*
X5241Y11302D01*
D02*
G37*
G36*
X5741D02*
X5507D01*
X5473Y11295D01*
X5443Y11275D01*
X5424Y11246D01*
X5417Y11211D01*
Y10482D01*
X5424Y10447D01*
X5443Y10418D01*
X5473Y10398D01*
X5507Y10391D01*
X5741D01*
X5775Y10398D01*
X5805Y10418D01*
X5825Y10447D01*
X5831Y10482D01*
Y11211D01*
X5825Y11246D01*
X5805Y11275D01*
X5775Y11295D01*
X5741Y11302D01*
D02*
G37*
%LPD*%
G36*
X12538Y8737D02*
Y8259D01*
X12459Y8180D01*
X12410Y8200D01*
X12342Y8209D01*
X12275Y8200D01*
X12213Y8174D01*
X12159Y8133D01*
X12118Y8080D01*
X12092Y8017D01*
X12083Y7950D01*
X12086Y7929D01*
X12053Y7892D01*
X11633D01*
X11617Y7911D01*
Y8138D01*
X11807Y8328D01*
X12009D01*
X12044Y8335D01*
X12073Y8355D01*
X12413Y8695D01*
X12433Y8725D01*
X12435Y8734D01*
X12472Y8749D01*
X12488Y8761D01*
X12538Y8737D01*
D02*
G37*
D11*
X3342Y4580D02*
D03*
X3697D02*
D03*
X11291Y7590D02*
D03*
X11646D02*
D03*
D15*
X11889Y9197D02*
D03*
Y8843D02*
D03*
X8074Y5991D02*
D03*
Y6346D02*
D03*
D19*
X7000Y12800D02*
X7010D01*
X7547Y13081D02*
X7658Y12970D01*
X7819D01*
X7819Y12970D02*
X8136D01*
X7819Y12970D02*
X7819Y12970D01*
X9888Y1890D02*
Y2925D01*
Y1890D02*
X10124Y1654D01*
X10379Y1880D02*
Y3390D01*
X10628Y1960D02*
X10789D01*
X11529Y1633D02*
Y1980D01*
X6624Y2796D02*
Y3004D01*
X6528Y3100D02*
X6624Y3004D01*
X8468Y12380D02*
Y12638D01*
X8136Y12970D02*
X8468Y12638D01*
X7342Y13081D02*
X7547D01*
X6112Y1959D02*
Y2440D01*
X6378Y1910D02*
Y1978D01*
X6069Y2484D02*
X6112Y2440D01*
X6124Y1656D02*
X6378Y1910D01*
X5624Y2906D02*
X5868Y3150D01*
X5609Y1950D02*
X5624Y1934D01*
X5078Y1960D02*
Y2494D01*
X5339Y1870D02*
Y1940D01*
X5124Y1656D02*
X5339Y1870D01*
X9238Y780D02*
Y1283D01*
X9309Y1960D02*
X9589Y1680D01*
X7849Y1910D02*
Y2000D01*
Y1910D02*
X8124Y1634D01*
X7569Y1462D02*
Y1980D01*
Y1462D02*
X7628Y1402D01*
X6900Y1951D02*
X7128Y1722D01*
X6900Y1951D02*
Y1980D01*
X7010Y12800D02*
X7456Y12354D01*
X10259Y8710D02*
X10489D01*
X8197Y9579D02*
X8435Y9340D01*
X8106Y9488D02*
X8197Y9579D01*
X6754Y10264D02*
X6900Y10118D01*
Y10118D02*
X6988Y10030D01*
Y9793D02*
Y10030D01*
X7010Y10189D02*
X7498D01*
X6668Y10530D02*
X7010Y10189D01*
X6368Y10370D02*
X6475Y10264D01*
X7498Y10189D02*
X7500Y10187D01*
X6475Y10264D02*
X6754D01*
X7510Y10187D02*
X7510D01*
X7608Y10620D02*
X7677D01*
X7735Y10343D02*
X7894Y10185D01*
X7677Y10620D02*
X7735Y10562D01*
Y10343D02*
Y10562D01*
X7874Y10374D02*
Y11506D01*
X8101Y10149D02*
X8106Y10144D01*
X7874Y10374D02*
X8100Y10148D01*
X8169Y10251D02*
Y10710D01*
Y10251D02*
X8226Y10194D01*
Y9943D02*
Y10194D01*
X7894Y10059D02*
Y10185D01*
X8079Y10801D02*
X8169Y10710D01*
X8106Y9606D02*
Y10144D01*
X8226Y9943D02*
X8337Y9833D01*
X8603D01*
X10190Y9388D02*
X10418Y9160D01*
X8106Y9488D02*
Y9606D01*
X8124Y11756D02*
Y11988D01*
X7874Y11506D02*
X8124Y11756D01*
X7456Y12354D02*
X7624D01*
X9914Y11286D02*
Y11493D01*
X9696Y11711D02*
X9914Y11493D01*
X9696Y11711D02*
X9729Y11744D01*
X9869Y11241D02*
X9914Y11286D01*
X10932Y10086D02*
X11049Y9970D01*
X10612Y10086D02*
X10932D01*
X10362Y11400D02*
X10487D01*
X10124Y11988D02*
X10236Y11876D01*
Y11526D02*
Y11876D01*
Y11526D02*
X10362Y11400D01*
X10624Y11531D02*
Y11988D01*
Y11531D02*
X10738Y11418D01*
X10748D01*
X6368Y10370D02*
Y11270D01*
X6124Y11514D02*
X6368Y11270D01*
X11509Y1513D02*
X11579Y1583D01*
X11124Y2296D02*
Y2539D01*
X10789Y1960D02*
X11124Y2296D01*
X10624Y1398D02*
Y1634D01*
X10379Y1880D02*
X10624Y1634D01*
X11509Y1513D02*
X11624Y1398D01*
X11102Y7766D02*
X11288Y7580D01*
X10124Y1398D02*
Y1654D01*
X12629Y8221D02*
Y10846D01*
X12208Y7800D02*
X12629Y8221D01*
X12624Y10846D02*
X12629D01*
X12349Y8760D02*
Y8980D01*
X12472Y9103D01*
Y10136D01*
X11102Y7766D02*
Y8047D01*
X11299Y7889D02*
Y8047D01*
X11496D02*
Y8148D01*
X11768Y8420D01*
X12009D01*
X12349Y8760D01*
X11388Y7800D02*
X12208D01*
X11299Y7889D02*
X11388Y7800D01*
X9118Y10841D02*
X9124Y10846D01*
X9118Y10820D02*
Y10841D01*
X4124Y874D02*
X4128Y870D01*
X4124Y874D02*
Y1398D01*
X12378Y10229D02*
X12472Y10136D01*
X8074Y6346D02*
Y6703D01*
X8093Y6722D01*
X11338Y7290D02*
X11388D01*
X11338D02*
Y7543D01*
X11291Y7590D02*
X11338Y7543D01*
X8937Y4446D02*
Y4982D01*
X11516Y3442D02*
Y3663D01*
X11479Y3700D02*
X11516Y3663D01*
X3624Y2539D02*
Y2776D01*
X3859Y3010D01*
Y3150D01*
X5624Y2539D02*
Y2906D01*
Y1398D02*
Y1934D01*
X5078Y2494D02*
X5124Y2539D01*
Y1398D02*
Y1656D01*
X4624Y1398D02*
Y1946D01*
X4649Y1970D01*
X6069Y2484D02*
X6124Y2539D01*
Y1398D02*
Y1656D01*
X6639Y1412D02*
Y1970D01*
X6624Y1398D02*
X6639Y1412D01*
X7067Y1661D02*
X7128Y1722D01*
X7124Y1398D02*
X7124Y1718D01*
X7067Y1661D02*
X7124Y1718D01*
X7624Y1398D02*
X7628Y1402D01*
X11529Y1633D02*
X11579Y1583D01*
X6624Y2539D02*
Y2796D01*
X4119Y1960D02*
Y2534D01*
X8124Y1398D02*
Y1634D01*
X3598Y790D02*
Y1372D01*
X3624Y1398D01*
X8629Y1402D02*
Y1970D01*
X8624Y1398D02*
X8629Y1402D01*
X12139Y2554D02*
Y3110D01*
X11624Y2539D02*
X11748Y2664D01*
Y3090D01*
X12139Y820D02*
Y1383D01*
X12124Y1398D02*
X12139Y1383D01*
X3638Y12003D02*
Y12550D01*
X3624Y10846D02*
Y11116D01*
X3878Y11370D01*
X11124Y10846D02*
Y11304D01*
Y834D02*
Y1398D01*
Y834D02*
X11128Y830D01*
X9624Y11848D02*
Y11988D01*
Y11848D02*
X9729Y11744D01*
X3878Y11370D02*
Y11430D01*
X8624Y11988D02*
Y12224D01*
X8468Y12380D02*
X8624Y12224D01*
X8093Y6722D02*
X8376D01*
X8079Y10801D02*
X8124Y10846D01*
X7624Y11988D02*
Y12354D01*
X9438Y7670D02*
X9449Y7680D01*
X8957Y3442D02*
X9371D01*
X8937Y4446D02*
X9322D01*
X10379Y3390D01*
X9371Y3442D02*
X9449Y3364D01*
Y3351D02*
Y3364D01*
X11008Y11420D02*
X11124Y11304D01*
Y11764D02*
Y11988D01*
Y11764D02*
X11269Y11620D01*
Y11450D02*
Y11620D01*
X12378Y10229D02*
Y11260D01*
X12624Y11506D01*
Y11988D01*
X7034Y12525D02*
X7124Y12434D01*
Y11988D02*
Y12434D01*
X9248Y1960D02*
X9309D01*
X9589Y1640D02*
Y1680D01*
X9124Y1398D02*
X9238Y1283D01*
X8624Y10584D02*
Y10846D01*
Y10584D02*
X8924Y10285D01*
X8091Y7753D02*
Y8022D01*
X8268Y8200D01*
X6629Y11710D02*
Y11840D01*
X6719Y11620D02*
X6843D01*
X6629Y11710D02*
X6719Y11620D01*
X6843D02*
X7083Y11380D01*
X6668Y10530D02*
Y10720D01*
X6124Y11514D02*
Y11988D01*
X11008Y11420D02*
Y11430D01*
X8658Y5260D02*
Y5280D01*
Y5260D02*
X8937Y4982D01*
X4699Y2614D02*
Y3100D01*
X4624Y2539D02*
X4699Y2614D01*
X8924Y10285D02*
X8928Y10290D01*
X9124Y11674D02*
X9168Y11630D01*
X9288D01*
X9124Y11674D02*
Y11988D01*
X9288Y11630D02*
X9388Y11530D01*
X10489Y8710D02*
X10628Y8850D01*
X10190Y9388D02*
Y9533D01*
X10584D02*
X10628Y9488D01*
X10584Y9533D02*
X10791D01*
X10172Y10256D02*
X10190Y10238D01*
Y9887D02*
Y10238D01*
X9620Y8524D02*
X9715D01*
X9457Y8687D02*
X9620Y8524D01*
X9624Y10846D02*
X9679Y10791D01*
X10624Y10404D02*
Y10846D01*
Y10404D02*
X10752Y10276D01*
X8435Y9331D02*
Y9340D01*
X9118Y10610D02*
X9258Y10470D01*
X9388Y10432D02*
X9489Y10331D01*
X9388Y10432D02*
Y11530D01*
X10628Y8850D02*
Y9488D01*
X10418Y9150D02*
Y9160D01*
X9988Y9497D02*
X10009Y9518D01*
X9988Y9308D02*
Y9497D01*
X8425Y10039D02*
X8465Y10079D01*
X9094Y9577D02*
X9281Y9390D01*
X9094Y9577D02*
Y9793D01*
X9966Y9887D02*
X9993D01*
X8465Y10079D02*
X9213D01*
X10138Y10256D02*
X10172D01*
X8928Y10290D02*
X8999D01*
X9258D02*
Y10470D01*
X9679Y10034D02*
Y10791D01*
X11049Y9790D02*
Y9970D01*
X10791Y9533D02*
X11049Y9790D01*
X10584Y9887D02*
X10841D01*
X10124Y10574D02*
X10612Y10086D01*
X10752Y10276D02*
X10758D01*
X9869Y10210D02*
Y11241D01*
X9489Y10153D02*
Y10331D01*
X9577Y9931D02*
X9679Y10034D01*
X9816Y9737D02*
X9966Y9887D01*
X9988Y9308D02*
X10159Y9138D01*
Y9129D02*
Y9138D01*
X9381Y9691D02*
Y9911D01*
Y9691D02*
X9498Y9574D01*
X9656D01*
X9816Y9734D02*
Y9737D01*
X9656Y9574D02*
X9816Y9734D01*
X9213Y10079D02*
X9381Y9911D01*
X9577Y9764D02*
Y9931D01*
X9686Y3127D02*
X9888Y2925D01*
X9449Y3351D02*
X9673Y3127D01*
X9686D01*
X8309Y8160D02*
X8317D01*
X8268Y8200D02*
X8309Y8160D01*
X8457Y8669D02*
X8579Y8547D01*
X8524Y8493D02*
X8579Y8547D01*
X8524Y7992D02*
Y8493D01*
X9304Y7727D02*
X9343Y7766D01*
X8534Y7727D02*
X9304D01*
X9343Y7766D02*
X9438Y7670D01*
D20*
X11918Y7590D02*
X11988Y7520D01*
Y6789D02*
Y7520D01*
X12124Y10078D02*
Y10846D01*
Y10078D02*
X12185Y10017D01*
X10789Y8220D02*
X10908Y8100D01*
X10789Y8220D02*
Y9072D01*
X10906Y9189D01*
D23*
X13249Y11417D02*
D03*
X2499D02*
D03*
Y1969D02*
D03*
X13249D02*
D03*
D24*
X6090Y13740D02*
D03*
X6350Y13680D02*
D03*
X7086Y13172D02*
D03*
X6080Y12930D02*
D03*
X6345Y12930D02*
D03*
X6209Y12543D02*
D03*
X6468D02*
D03*
X5463Y12953D02*
D03*
X5423Y13741D02*
D03*
X5260Y14450D02*
D03*
X5945Y12550D02*
D03*
X5748Y13346D02*
D03*
X7475Y13879D02*
D03*
X7111Y13692D02*
D03*
X7480Y12874D02*
D03*
Y13386D02*
D03*
X7880Y13568D02*
D03*
X7346Y13108D02*
D03*
X7000Y12800D02*
D03*
X6959Y12530D02*
D03*
X7740Y13160D02*
D03*
X6720Y14140D02*
D03*
X7491Y13628D02*
D03*
X6190Y14450D02*
D03*
X7720Y13780D02*
D03*
X7939Y13960D02*
D03*
X10108Y1980D02*
D03*
X10589Y3100D02*
D03*
X9628Y1970D02*
D03*
X9428Y3100D02*
D03*
X10628Y1960D02*
D03*
X11119Y1970D02*
D03*
X11529Y1980D02*
D03*
X11839Y1990D02*
D03*
X12749Y1970D02*
D03*
X12369D02*
D03*
X8119Y1980D02*
D03*
X5870Y3530D02*
D03*
X6880Y3490D02*
D03*
X7113Y13432D02*
D03*
X4754Y9488D02*
D03*
X5210Y13900D02*
D03*
X5699Y13906D02*
D03*
X6014Y13347D02*
D03*
X7778Y12780D02*
D03*
X7879Y12520D02*
D03*
X8138Y12621D02*
D03*
X4508Y13032D02*
D03*
Y12579D02*
D03*
X6112Y1959D02*
D03*
X6378Y1978D02*
D03*
X5868Y3150D02*
D03*
X5609Y1950D02*
D03*
X5078Y1960D02*
D03*
X5738Y8830D02*
D03*
X5638Y9220D02*
D03*
X5817Y8563D02*
D03*
X6478Y8800D02*
D03*
X5339Y1940D02*
D03*
X9708Y370D02*
D03*
X9238Y780D02*
D03*
X7849Y2000D02*
D03*
X7569Y1980D02*
D03*
X6900D02*
D03*
X9969Y8890D02*
D03*
X10259Y8710D02*
D03*
X6988Y9793D02*
D03*
X7510Y10187D02*
D03*
X7894Y10059D02*
D03*
X10548Y8460D02*
D03*
X7480Y12598D02*
D03*
X9498Y12953D02*
D03*
X10039D02*
D03*
X8563Y14075D02*
D03*
Y12923D02*
D03*
X8957D02*
D03*
X7099Y10390D02*
D03*
X9724Y11407D02*
D03*
X9189Y11410D02*
D03*
X10487Y11400D02*
D03*
X10748Y11418D02*
D03*
X10118Y12550D02*
D03*
X8328Y11400D02*
D03*
X8069Y11424D02*
D03*
X7659Y11420D02*
D03*
X7398Y11410D02*
D03*
X8219Y14320D02*
D03*
X5720Y14450D02*
D03*
X15291Y11265D02*
D03*
Y2249D02*
D03*
X527Y1973D02*
D03*
Y11619D02*
D03*
X14545Y14027D02*
D03*
X2104Y375D02*
D03*
X1119D02*
D03*
X14308D02*
D03*
X13245D02*
D03*
X13753Y14042D02*
D03*
X14308Y12580D02*
D03*
X14348Y10178D02*
D03*
Y7816D02*
D03*
Y5257D02*
D03*
Y3288D02*
D03*
Y966D02*
D03*
X1552Y808D02*
D03*
Y3131D02*
D03*
Y5099D02*
D03*
Y7658D02*
D03*
Y10021D02*
D03*
X1513Y12422D02*
D03*
X2018Y14370D02*
D03*
X1280D02*
D03*
X3150Y5118D02*
D03*
Y6693D02*
D03*
X3108Y8690D02*
D03*
X5364Y7382D02*
D03*
X4134Y8465D02*
D03*
X4183Y7382D02*
D03*
X4839Y4160D02*
D03*
X7749Y3950D02*
D03*
X7879Y5320D02*
D03*
X7234Y6004D02*
D03*
X8928Y770D02*
D03*
X8299D02*
D03*
X11918Y7590D02*
D03*
X11889Y8640D02*
D03*
X4148Y9510D02*
D03*
X11458Y12580D02*
D03*
X11108Y12590D02*
D03*
X3697Y4858D02*
D03*
X4128Y870D02*
D03*
X10709Y14052D02*
D03*
X11082D02*
D03*
X11455D02*
D03*
X11829D02*
D03*
X10443Y13287D02*
D03*
X11455Y13520D02*
D03*
X10453Y13789D02*
D03*
X11158Y12930D02*
D03*
X11809D02*
D03*
X15268Y12920D02*
D03*
X12612D02*
D03*
X15268Y13510D02*
D03*
X12258D02*
D03*
X15268Y14042D02*
D03*
X13005D02*
D03*
X12632D02*
D03*
X12258D02*
D03*
X7818Y5990D02*
D03*
X8069Y5710D02*
D03*
X4770Y14450D02*
D03*
X4409Y14272D02*
D03*
X4849Y13859D02*
D03*
X3239Y12700D02*
D03*
X2558Y13120D02*
D03*
X2608Y14370D02*
D03*
X3888Y14419D02*
D03*
X517Y12419D02*
D03*
Y13145D02*
D03*
X518Y13870D02*
D03*
X591Y14370D02*
D03*
X527Y10792D02*
D03*
Y10065D02*
D03*
Y9339D02*
D03*
Y8612D02*
D03*
Y7752D02*
D03*
Y7025D02*
D03*
Y6299D02*
D03*
Y5572D02*
D03*
Y4872D02*
D03*
Y4145D02*
D03*
Y3419D02*
D03*
Y2692D02*
D03*
X537Y589D02*
D03*
Y1315D02*
D03*
X5212Y370D02*
D03*
X4485D02*
D03*
X3758D02*
D03*
X2979D02*
D03*
X8162D02*
D03*
X7435D02*
D03*
X6708D02*
D03*
X5982D02*
D03*
X11162D02*
D03*
X10435D02*
D03*
X8982D02*
D03*
X15177Y394D02*
D03*
X12519Y380D02*
D03*
X11792D02*
D03*
X15318Y2970D02*
D03*
Y1517D02*
D03*
Y790D02*
D03*
X15298Y5820D02*
D03*
Y5093D02*
D03*
Y4367D02*
D03*
Y3640D02*
D03*
Y8820D02*
D03*
Y8093D02*
D03*
Y7367D02*
D03*
Y6640D02*
D03*
X15328Y12090D02*
D03*
X15288Y10317D02*
D03*
Y9590D02*
D03*
X12249Y4340D02*
D03*
X12948Y9000D02*
D03*
X12938Y7660D02*
D03*
X12909Y6150D02*
D03*
X5358Y6470D02*
D03*
X4419Y5600D02*
D03*
X3399Y11420D02*
D03*
X10639Y12630D02*
D03*
X11868Y11420D02*
D03*
X12399Y8460D02*
D03*
X11868Y8130D02*
D03*
X3839Y1970D02*
D03*
X3108D02*
D03*
X2884Y9931D02*
D03*
X11319Y4210D02*
D03*
X11299Y6750D02*
D03*
X11308Y5500D02*
D03*
X11388Y7290D02*
D03*
X11479Y3700D02*
D03*
X3859Y3150D02*
D03*
X4649Y1970D02*
D03*
X6639D02*
D03*
X8629D02*
D03*
X12139Y3110D02*
D03*
X11748Y3090D02*
D03*
X4119Y1960D02*
D03*
X3598Y790D02*
D03*
X12139Y820D02*
D03*
X3638Y12550D02*
D03*
X11269Y11450D02*
D03*
X12249Y5590D02*
D03*
X11128Y830D02*
D03*
X8629Y770D02*
D03*
X11128Y7230D02*
D03*
X3878Y11430D02*
D03*
X4163Y9921D02*
D03*
X8399Y6720D02*
D03*
X9919Y12720D02*
D03*
X9279Y3540D02*
D03*
X9998Y3330D02*
D03*
X10129Y3093D02*
D03*
X9248Y1960D02*
D03*
X9729Y12542D02*
D03*
X6738Y11410D02*
D03*
X6528Y3100D02*
D03*
X11008Y11430D02*
D03*
X8658Y5280D02*
D03*
X7294Y8396D02*
D03*
X7234Y5315D02*
D03*
X6119Y10370D02*
D03*
X6108Y9660D02*
D03*
X5859Y9990D02*
D03*
X5849Y9730D02*
D03*
X5453Y9410D02*
D03*
X9380Y12500D02*
D03*
X5709Y8071D02*
D03*
X3909Y13140D02*
D03*
X4636Y10246D02*
D03*
X4560Y13570D02*
D03*
X4724Y9055D02*
D03*
X4699Y3100D02*
D03*
X6478Y11430D02*
D03*
X7118Y11410D02*
D03*
X7303Y6919D02*
D03*
X9607Y8140D02*
D03*
X9715Y8524D02*
D03*
X9281Y9390D02*
D03*
X8435Y9331D02*
D03*
X8603Y9833D02*
D03*
X10418Y9150D02*
D03*
X8425Y10039D02*
D03*
X8368Y10320D02*
D03*
X10138Y10256D02*
D03*
X8999Y10290D02*
D03*
X9258D02*
D03*
X10841Y9887D02*
D03*
X10758Y10276D02*
D03*
X9869Y10210D02*
D03*
X9489Y10153D02*
D03*
X9577Y9764D02*
D03*
X10159Y9129D02*
D03*
X9715Y3356D02*
D03*
X8996Y3977D02*
D03*
X8662Y9190D02*
D03*
X8317Y8160D02*
D03*
X8524Y7992D02*
D03*
X8534Y7727D02*
D03*
D25*
X11646Y7590D02*
X11918D01*
X11889Y8640D02*
Y8843D01*
X3697Y4580D02*
Y4858D01*
X3150Y3580D02*
Y4387D01*
Y3241D02*
Y3580D01*
Y2565D02*
Y3241D01*
Y4387D02*
X3342Y4580D01*
X3124Y2539D02*
X3150Y2565D01*
X12249Y5590D02*
X12441Y5782D01*
Y5804D01*
X3124Y10297D02*
X3911Y9510D01*
X3124Y10297D02*
Y10846D01*
X3911Y9510D02*
X4148D01*
D26*
X12624Y11988D02*
D03*
Y10846D02*
D03*
X12124Y11988D02*
D03*
Y10846D02*
D03*
X11624Y11988D02*
D03*
Y10846D02*
D03*
X11124Y11988D02*
D03*
Y10846D02*
D03*
X10624Y11988D02*
D03*
Y10846D02*
D03*
X10124Y11988D02*
D03*
Y10846D02*
D03*
X9624Y11988D02*
D03*
Y10846D02*
D03*
X9124Y11988D02*
D03*
Y10846D02*
D03*
X8624Y11988D02*
D03*
Y10846D02*
D03*
X8124Y11988D02*
D03*
Y10846D02*
D03*
X7624Y11988D02*
D03*
Y10846D02*
D03*
X7124Y11988D02*
D03*
Y10846D02*
D03*
X6624Y11988D02*
D03*
Y10846D02*
D03*
X6124Y11988D02*
D03*
Y10846D02*
D03*
X5624Y11988D02*
D03*
Y10846D02*
D03*
X5124Y11988D02*
D03*
Y10846D02*
D03*
X4624Y11988D02*
D03*
Y10846D02*
D03*
X4124Y11988D02*
D03*
Y10846D02*
D03*
X3624Y11988D02*
D03*
Y10846D02*
D03*
X3124Y11988D02*
D03*
Y10846D02*
D03*
Y1398D02*
D03*
Y2539D02*
D03*
X3624Y1398D02*
D03*
Y2539D02*
D03*
X4124Y1398D02*
D03*
Y2539D02*
D03*
X4624Y1398D02*
D03*
Y2539D02*
D03*
X5124Y1398D02*
D03*
Y2539D02*
D03*
X5624Y1398D02*
D03*
Y2539D02*
D03*
X6124Y1398D02*
D03*
Y2539D02*
D03*
X6624Y1398D02*
D03*
Y2539D02*
D03*
X7124Y1398D02*
D03*
Y2539D02*
D03*
X7624Y1398D02*
D03*
Y2539D02*
D03*
X8124Y1398D02*
D03*
Y2539D02*
D03*
X8624Y1398D02*
D03*
Y2539D02*
D03*
X9124Y1398D02*
D03*
Y2539D02*
D03*
X9624Y1398D02*
D03*
Y2539D02*
D03*
X10124Y1398D02*
D03*
Y2539D02*
D03*
X10624Y1398D02*
D03*
Y2539D02*
D03*
X11124Y1398D02*
D03*
Y2539D02*
D03*
X11624Y1398D02*
D03*
Y2539D02*
D03*
X12124Y1398D02*
D03*
Y2539D02*
D03*
X12624Y1398D02*
D03*
Y2539D02*
D03*
D27*
X8093Y6722D02*
D03*
X4331Y3307D02*
D03*
X5177Y3709D02*
D03*
X12933Y4921D02*
D03*
X8937Y4446D02*
D03*
X11516Y3442D02*
D03*
X12342Y8974D02*
D03*
Y7950D02*
D03*
X11654Y5194D02*
D03*
X12185Y10017D02*
D03*
X12441Y5804D02*
D03*
X11988Y6789D02*
D03*
X8957Y3442D02*
D03*
X8106Y9606D02*
D03*
X8457Y8669D02*
D03*
X9457Y8687D02*
D03*
X8091Y7753D02*
D03*
X9457Y7694D02*
D03*
X9094Y9793D02*
D03*
X3283Y571D02*
D03*
D28*
X3504Y3580D02*
D03*
X3150D02*
D03*
X3504Y3241D02*
D03*
X3150D02*
D03*
D29*
X11201Y8618D02*
D03*
D30*
X10906Y8047D02*
D03*
X11102D02*
D03*
X11299D02*
D03*
X11496D02*
D03*
Y9189D02*
D03*
X11299D02*
D03*
X11102D02*
D03*
X10906D02*
D03*
D31*
X9993Y9533D02*
D03*
D32*
X10584D02*
D03*
X9993Y9887D02*
D03*
X10584D02*
D03*
D33*
X10190Y9533D02*
D03*
X10387D02*
D03*
X10190Y9887D02*
D03*
X10387D02*
D03*
D34*
X3135Y4058D02*
D03*
X3765D02*
D03*
D35*
X10908Y8044D02*
X10923Y8029D01*
Y7566D02*
Y8029D01*
Y7566D02*
X11128Y7361D01*
Y7230D02*
Y7361D01*
M02*
