M48
;Layer_Color=9474304
;FILE_FORMAT=2:4
INCH
;TYPE=PLATED
T1F00S00C0.0098
;TYPE=NON_PLATED
T2F00S00C0.0531
%
T01
X000537Y000589
Y001315
X000527Y001973
Y002692
Y003419
Y004145
Y004872
Y005572
Y006299
Y007025
Y007752
X001552Y007658
Y005099
X003150Y005118
X003697Y004858
X004419Y005600
X005358Y006470
X005364Y007382
X005709Y008071
X004183Y007382
X003150Y006693
X004839Y004160
X004699Y003100
X003859Y003150
X003839Y001970
X004119Y001960
X004649Y001970
X005078Y001960
X005339Y001940
X005609Y001950
X006112Y001959
X006378Y001978
X006639Y001970
X006900Y001980
X007569
X007849Y002000
X008119Y001980
X008629Y001970
X009248Y001960
X009628Y001970
X010108Y001980
X009998Y003330
X009715Y003356
X009428Y003100
X009279Y003540
X008996Y003977
X007749Y003950
X006880Y003490
X006528Y003100
X005868Y003150
X005870Y003530
X007234Y005315
X007879Y005320
X008069Y005710
X007818Y005990
X007234Y006004
X007303Y006919
X008399Y006720
X008534Y007727
X008524Y007992
X009607Y008140
X008658Y005280
X008629Y000770
X008928
X009238Y000780
X008982Y000370
X009708
X008162
X008299Y000770
X007435Y000370
X006708
X005982
X005212
X004485
X003758
X003598Y000790
X004128Y000870
X002979Y000370
X002104Y000375
X001119
X001552Y000808
Y003131
X003108Y001970
X010628Y001960
X011119Y001970
X011529Y001980
X011839Y001990
X012369Y001970
X012749
X012139Y003110
X011748Y003090
X011479Y003700
X011319Y004210
X012249Y004340
Y005590
X011308Y005500
X011299Y006750
X011388Y007290
X011128Y007230
X011918Y007590
X011868Y008130
X012938Y007660
X012909Y006150
X014348Y005257
X015298Y005093
Y005820
Y006640
Y007367
Y008093
X014348Y007816
X015298Y004367
Y003640
X015318Y002970
X015291Y002249
X015318Y001517
Y000790
X015177Y000394
X014308Y000375
X014348Y000966
X013245Y000375
X012519Y000380
X011792
X011162Y000370
X011128Y000830
X012139Y000820
X010435Y000370
X010589Y003100
X010129Y003093
X014348Y003288
X015298Y008820
X015288Y009590
Y010317
X015291Y011265
X015328Y012090
X015268Y012920
X015268Y013510
Y014042
X014545Y014027
X013753Y014042
X013005
X012632
X012258
X011829Y014052
X011455
X011082
X010709
X010453Y013789
X010443Y013287
X010639Y012630
X011108Y012590
X011458Y012580
X011158Y012930
X011809
X012612Y012920
X012258Y013510
X011455Y013520
X011269Y011450
X011008Y011430
X010748Y011418
X010487Y011400
X010758Y010276
X010841Y009887
X010138Y010256
X010159Y009129
X010418Y009150
X010259Y008710
X010548Y008460
X011889Y008640
X012399Y008460
X012948Y009000
X014348Y010178
X014308Y012580
X011868Y011420
X010118Y012550
X009919Y012720
X010039Y012953
X009498
X008957Y012923
X008563
X008138Y012621
X007879Y012520
X007778Y012780
X007480Y012874
Y012598
X006959Y012530
X007000Y012800
X007086Y013172
X007113Y013432
X007111Y013692
X007491Y013628
X007480Y013386
X007346Y013108
X007740Y013160
X007880Y013568
X007720Y013780
X007475Y013879
X007939Y013960
X008219Y014320
X008563Y014075
X006720Y014140
X006350Y013680
X006090Y013740
X006014Y013347
X005748Y013346
X005699Y013906
X005423Y013741
X005210Y013900
X004849Y013859
X004560Y013570
X004508Y013032
Y012579
X003638Y012550
X003239Y012700
X002558Y013120
X002608Y014370
X002018
X001280
X000591
X000518Y013870
X000517Y013145
Y012419
X000527Y011619
Y010792
Y010065
Y009339
Y008612
X001552Y010021
X002884Y009931
X004163Y009921
X004148Y009510
X004754Y009488
X004724Y009055
X005638Y009220
X005453Y009410
X005849Y009730
X005859Y009990
X006108Y009660
X006119Y010370
X007099Y010390
X007510Y010187
X007894Y010059
X008425Y010039
X008368Y010320
X008999Y010290
X009258
X009489Y010153
X009869Y010210
X009577Y009764
X009281Y009390
X008662Y009190
X008435Y009331
X008603Y009833
X006988Y009793
X006478Y008800
X005738Y008830
X005817Y008563
X007294Y008396
X008317Y008160
X009715Y008524
X009969Y008890
X009724Y011407
X009189Y011410
X008328Y011400
X008069Y011424
X007659Y011420
X007398Y011410
X007118
X006738
X006478Y011430
X006468Y012543
X006209
X005945Y012550
X006080Y012930
X006345Y012930
X005463Y012953
X005260Y014450
X005720
X006190
X004770
X004409Y014272
X003888Y014419
X003909Y013140
X003878Y011430
X003399Y011420
X004636Y010246
X004134Y008465
X003108Y008690
X001513Y012422
X009380Y012500
X009729Y012542
T02
X002499Y001969
X013249
Y011417
X002499
M30
