G04 Layer_Color=16777215*
%FSLAX24Y24*%
%MOIN*%
G70*
G01*
G75*
%ADD10C,0.0060*%
G36*
X10551Y14332D02*
Y14319D01*
X10550Y14307D01*
X10549Y14296D01*
X10548Y14287D01*
X10547Y14280D01*
X10546Y14275D01*
X10545Y14271D01*
Y14270D01*
X10542Y14261D01*
X10539Y14253D01*
X10537Y14246D01*
X10534Y14240D01*
X10531Y14234D01*
X10528Y14231D01*
X10527Y14229D01*
X10527Y14228D01*
X10521Y14222D01*
X10516Y14216D01*
X10510Y14212D01*
X10504Y14207D01*
X10499Y14205D01*
X10494Y14202D01*
X10492Y14200D01*
X10490Y14200D01*
X10482Y14196D01*
X10473Y14193D01*
X10464Y14191D01*
X10456Y14189D01*
X10450Y14189D01*
X10445Y14188D01*
X10440D01*
X10428Y14189D01*
X10417Y14191D01*
X10407Y14194D01*
X10398Y14198D01*
X10391Y14202D01*
X10386Y14205D01*
X10383Y14207D01*
X10382Y14207D01*
X10373Y14215D01*
X10366Y14224D01*
X10360Y14233D01*
X10355Y14241D01*
X10352Y14249D01*
X10349Y14255D01*
X10348Y14258D01*
X10348Y14260D01*
X10347Y14261D01*
Y14261D01*
X10342Y14251D01*
X10336Y14243D01*
X10331Y14236D01*
X10325Y14230D01*
X10320Y14226D01*
X10316Y14223D01*
X10314Y14221D01*
X10312Y14220D01*
X10304Y14216D01*
X10296Y14213D01*
X10288Y14210D01*
X10281Y14209D01*
X10274Y14207D01*
X10270Y14207D01*
X10266D01*
X10256Y14207D01*
X10246Y14209D01*
X10238Y14212D01*
X10231Y14215D01*
X10224Y14217D01*
X10219Y14220D01*
X10216Y14222D01*
X10215Y14222D01*
X10206Y14229D01*
X10199Y14235D01*
X10193Y14242D01*
X10187Y14249D01*
X10184Y14255D01*
X10181Y14260D01*
X10179Y14263D01*
X10179Y14264D01*
Y14264D01*
X10174Y14275D01*
X10172Y14286D01*
X10170Y14298D01*
X10168Y14309D01*
X10167Y14319D01*
Y14323D01*
X10167Y14327D01*
Y14330D01*
Y14333D01*
Y14334D01*
Y14334D01*
Y14478D01*
X10551D01*
Y14332D01*
D02*
G37*
G36*
X11053Y14083D02*
X10669D01*
Y14134D01*
X11053D01*
Y14083D01*
D02*
G37*
G36*
X10383Y14133D02*
X10401Y14130D01*
X10417Y14127D01*
X10424Y14125D01*
X10431Y14123D01*
X10438Y14121D01*
X10444Y14119D01*
X10448Y14117D01*
X10452Y14116D01*
X10456Y14114D01*
X10458Y14113D01*
X10460Y14112D01*
X10461D01*
X10476Y14103D01*
X10491Y14093D01*
X10503Y14082D01*
X10513Y14071D01*
X10521Y14062D01*
X10524Y14058D01*
X10527Y14054D01*
X10529Y14051D01*
X10531Y14049D01*
X10531Y14048D01*
X10532Y14047D01*
X10537Y14039D01*
X10540Y14031D01*
X10546Y14014D01*
X10551Y13997D01*
X10554Y13983D01*
X10555Y13976D01*
X10556Y13969D01*
X10557Y13964D01*
Y13959D01*
X10558Y13955D01*
Y13952D01*
Y13951D01*
Y13950D01*
X10556Y13932D01*
X10554Y13914D01*
X10550Y13899D01*
X10546Y13885D01*
X10544Y13879D01*
X10542Y13873D01*
X10539Y13869D01*
X10538Y13865D01*
X10537Y13861D01*
X10535Y13859D01*
X10534Y13858D01*
Y13857D01*
X10524Y13842D01*
X10513Y13828D01*
X10501Y13817D01*
X10490Y13807D01*
X10480Y13800D01*
X10476Y13797D01*
X10472Y13794D01*
X10469Y13793D01*
X10466Y13792D01*
X10465Y13790D01*
X10465D01*
X10447Y13782D01*
X10429Y13776D01*
X10411Y13772D01*
X10395Y13769D01*
X10387Y13768D01*
X10381Y13768D01*
X10375Y13767D01*
X10370D01*
X10366Y13766D01*
X10360D01*
X10339Y13768D01*
X10320Y13770D01*
X10302Y13773D01*
X10294Y13776D01*
X10287Y13778D01*
X10280Y13780D01*
X10274Y13782D01*
X10269Y13784D01*
X10265Y13786D01*
X10262Y13787D01*
X10259Y13788D01*
X10258Y13789D01*
X10257D01*
X10241Y13799D01*
X10227Y13809D01*
X10214Y13820D01*
X10204Y13830D01*
X10197Y13840D01*
X10193Y13844D01*
X10191Y13847D01*
X10188Y13850D01*
X10187Y13852D01*
X10186Y13854D01*
Y13854D01*
X10181Y13862D01*
X10177Y13871D01*
X10172Y13887D01*
X10167Y13903D01*
X10163Y13918D01*
X10163Y13925D01*
X10162Y13931D01*
X10161Y13937D01*
Y13941D01*
X10160Y13945D01*
Y13948D01*
Y13950D01*
Y13950D01*
X10161Y13965D01*
X10163Y13979D01*
X10166Y13993D01*
X10169Y14005D01*
X10173Y14017D01*
X10177Y14028D01*
X10183Y14038D01*
X10187Y14047D01*
X10193Y14055D01*
X10198Y14062D01*
X10202Y14068D01*
X10206Y14074D01*
X10210Y14078D01*
X10212Y14081D01*
X10214Y14082D01*
X10215Y14083D01*
X10225Y14092D01*
X10236Y14100D01*
X10249Y14106D01*
X10261Y14112D01*
X10273Y14117D01*
X10286Y14122D01*
X10298Y14124D01*
X10310Y14127D01*
X10321Y14130D01*
X10331Y14131D01*
X10341Y14132D01*
X10349Y14133D01*
X10355D01*
X10360Y14134D01*
X10365D01*
X10383Y14133D01*
D02*
G37*
G36*
X11053Y13945D02*
X10751D01*
X11053Y13744D01*
Y13692D01*
X10669D01*
Y13740D01*
X10971D01*
X10669Y13943D01*
Y13994D01*
X11053D01*
Y13945D01*
D02*
G37*
G36*
X10551Y13689D02*
X10435Y13648D01*
Y13486D01*
X10551Y13442D01*
Y13384D01*
X10167Y13541D01*
Y13596D01*
X10551Y13743D01*
Y13689D01*
D02*
G37*
G36*
X11053Y13553D02*
X10879D01*
Y13373D01*
X10834D01*
Y13553D01*
X10714D01*
Y13345D01*
X10669D01*
Y13604D01*
X11053D01*
Y13553D01*
D02*
G37*
G36*
X10551Y13291D02*
X10380D01*
Y13233D01*
Y13226D01*
X10381Y13220D01*
Y13215D01*
X10382Y13211D01*
X10382Y13208D01*
Y13206D01*
X10383Y13205D01*
Y13204D01*
X10386Y13195D01*
X10389Y13188D01*
X10391Y13185D01*
X10392Y13183D01*
X10393Y13182D01*
X10393Y13181D01*
X10396Y13177D01*
X10400Y13173D01*
X10408Y13164D01*
X10413Y13161D01*
X10416Y13158D01*
X10418Y13156D01*
X10419Y13156D01*
X10427Y13150D01*
X10435Y13144D01*
X10444Y13138D01*
X10452Y13132D01*
X10460Y13126D01*
X10466Y13122D01*
X10468Y13121D01*
X10470Y13120D01*
X10471Y13119D01*
X10472D01*
X10551Y13068D01*
Y13004D01*
X10447Y13071D01*
X10436Y13078D01*
X10426Y13086D01*
X10417Y13093D01*
X10410Y13099D01*
X10404Y13105D01*
X10399Y13109D01*
X10397Y13112D01*
X10396Y13113D01*
X10392Y13117D01*
X10389Y13122D01*
X10382Y13132D01*
X10380Y13136D01*
X10378Y13140D01*
X10377Y13142D01*
X10376Y13143D01*
X10375Y13133D01*
X10373Y13124D01*
X10370Y13115D01*
X10367Y13108D01*
X10365Y13100D01*
X10362Y13094D01*
X10359Y13087D01*
X10356Y13082D01*
X10353Y13077D01*
X10351Y13073D01*
X10348Y13070D01*
X10346Y13067D01*
X10344Y13065D01*
X10342Y13063D01*
X10341Y13062D01*
X10336Y13057D01*
X10330Y13053D01*
X10318Y13046D01*
X10307Y13042D01*
X10296Y13039D01*
X10287Y13036D01*
X10283Y13036D01*
X10279D01*
X10276Y13035D01*
X10272D01*
X10260Y13036D01*
X10250Y13037D01*
X10240Y13040D01*
X10231Y13043D01*
X10224Y13046D01*
X10219Y13049D01*
X10215Y13051D01*
X10214Y13052D01*
X10205Y13058D01*
X10197Y13065D01*
X10191Y13072D01*
X10186Y13079D01*
X10182Y13085D01*
X10179Y13090D01*
X10178Y13093D01*
X10177Y13094D01*
Y13094D01*
X10176Y13099D01*
X10174Y13105D01*
X10172Y13118D01*
X10169Y13131D01*
X10168Y13143D01*
X10167Y13154D01*
Y13159D01*
X10167Y13164D01*
Y13167D01*
Y13170D01*
Y13171D01*
Y13172D01*
Y13342D01*
X10551D01*
Y13291D01*
D02*
G37*
G36*
X10885Y13293D02*
X10903Y13291D01*
X10919Y13287D01*
X10926Y13286D01*
X10933Y13283D01*
X10940Y13282D01*
X10946Y13280D01*
X10950Y13278D01*
X10954Y13276D01*
X10958Y13274D01*
X10960Y13274D01*
X10962Y13273D01*
X10962D01*
X10978Y13263D01*
X10993Y13253D01*
X11005Y13242D01*
X11015Y13232D01*
X11023Y13222D01*
X11026Y13218D01*
X11029Y13215D01*
X11031Y13212D01*
X11033Y13210D01*
X11033Y13208D01*
X11034Y13208D01*
X11039Y13200D01*
X11042Y13191D01*
X11048Y13174D01*
X11053Y13158D01*
X11056Y13143D01*
X11057Y13136D01*
X11058Y13130D01*
X11059Y13125D01*
Y13120D01*
X11060Y13116D01*
Y13113D01*
Y13111D01*
Y13111D01*
X11058Y13093D01*
X11056Y13075D01*
X11052Y13059D01*
X11048Y13046D01*
X11046Y13039D01*
X11044Y13034D01*
X11041Y13029D01*
X11040Y13025D01*
X11039Y13022D01*
X11037Y13019D01*
X11036Y13018D01*
Y13018D01*
X11026Y13002D01*
X11015Y12989D01*
X11003Y12977D01*
X10992Y12968D01*
X10982Y12961D01*
X10978Y12958D01*
X10974Y12955D01*
X10971Y12953D01*
X10968Y12952D01*
X10967Y12951D01*
X10967D01*
X10949Y12943D01*
X10931Y12937D01*
X10913Y12933D01*
X10897Y12930D01*
X10889Y12929D01*
X10883Y12928D01*
X10877Y12928D01*
X10872D01*
X10868Y12927D01*
X10862D01*
X10841Y12928D01*
X10821Y12931D01*
X10804Y12934D01*
X10796Y12936D01*
X10789Y12938D01*
X10782Y12940D01*
X10776Y12943D01*
X10771Y12945D01*
X10767Y12946D01*
X10764Y12947D01*
X10761Y12949D01*
X10759Y12950D01*
X10759D01*
X10743Y12959D01*
X10728Y12969D01*
X10716Y12980D01*
X10706Y12991D01*
X10699Y13000D01*
X10695Y13004D01*
X10693Y13008D01*
X10690Y13011D01*
X10689Y13013D01*
X10688Y13014D01*
Y13015D01*
X10683Y13023D01*
X10679Y13031D01*
X10673Y13048D01*
X10669Y13064D01*
X10665Y13079D01*
X10665Y13086D01*
X10664Y13091D01*
X10663Y13097D01*
Y13102D01*
X10662Y13105D01*
Y13108D01*
Y13110D01*
Y13111D01*
X10663Y13125D01*
X10665Y13140D01*
X10668Y13153D01*
X10671Y13166D01*
X10675Y13177D01*
X10679Y13189D01*
X10685Y13198D01*
X10689Y13208D01*
X10695Y13216D01*
X10700Y13223D01*
X10704Y13229D01*
X10708Y13234D01*
X10712Y13238D01*
X10714Y13241D01*
X10716Y13243D01*
X10717Y13243D01*
X10727Y13252D01*
X10738Y13260D01*
X10751Y13267D01*
X10763Y13273D01*
X10775Y13278D01*
X10788Y13282D01*
X10800Y13285D01*
X10812Y13288D01*
X10823Y13290D01*
X10833Y13291D01*
X10843Y13293D01*
X10851Y13294D01*
X10857D01*
X10862Y13294D01*
X10867D01*
X10885Y13293D01*
D02*
G37*
G36*
X10551Y12818D02*
X10551Y12805D01*
X10550Y12793D01*
X10549Y12782D01*
X10548Y12774D01*
X10546Y12766D01*
X10546Y12761D01*
X10545Y12757D01*
Y12756D01*
X10542Y12746D01*
X10539Y12737D01*
X10536Y12730D01*
X10533Y12723D01*
X10530Y12718D01*
X10528Y12714D01*
X10527Y12711D01*
X10526Y12710D01*
X10521Y12703D01*
X10515Y12697D01*
X10509Y12691D01*
X10504Y12686D01*
X10499Y12681D01*
X10494Y12678D01*
X10492Y12676D01*
X10491Y12675D01*
X10482Y12670D01*
X10473Y12664D01*
X10463Y12660D01*
X10455Y12656D01*
X10446Y12653D01*
X10441Y12651D01*
X10438Y12650D01*
X10437Y12650D01*
X10435Y12649D01*
X10435D01*
X10422Y12646D01*
X10408Y12643D01*
X10395Y12641D01*
X10383Y12640D01*
X10373Y12639D01*
X10368D01*
X10365Y12639D01*
X10357D01*
X10338Y12639D01*
X10321Y12641D01*
X10306Y12643D01*
X10299Y12645D01*
X10293Y12646D01*
X10287Y12647D01*
X10281Y12649D01*
X10277Y12650D01*
X10273Y12651D01*
X10270Y12653D01*
X10268Y12653D01*
X10267Y12654D01*
X10266D01*
X10252Y12660D01*
X10239Y12667D01*
X10228Y12675D01*
X10218Y12682D01*
X10211Y12689D01*
X10205Y12694D01*
X10201Y12698D01*
X10200Y12699D01*
Y12699D01*
X10193Y12709D01*
X10187Y12718D01*
X10183Y12727D01*
X10179Y12736D01*
X10176Y12744D01*
X10174Y12750D01*
X10173Y12753D01*
Y12754D01*
X10173Y12755D01*
Y12756D01*
X10171Y12765D01*
X10169Y12776D01*
X10168Y12788D01*
X10167Y12798D01*
X10167Y12808D01*
Y12813D01*
Y12816D01*
Y12820D01*
Y12822D01*
Y12823D01*
Y12824D01*
Y12956D01*
X10551D01*
Y12818D01*
D02*
G37*
G36*
X15079Y9853D02*
X14869D01*
Y9722D01*
X14869Y9703D01*
X14868Y9685D01*
X14866Y9668D01*
X14862Y9653D01*
X14859Y9639D01*
X14855Y9627D01*
X14851Y9616D01*
X14847Y9607D01*
X14843Y9598D01*
X14839Y9591D01*
X14835Y9585D01*
X14832Y9580D01*
X14829Y9577D01*
X14826Y9574D01*
X14826Y9573D01*
X14825Y9572D01*
X14816Y9564D01*
X14807Y9558D01*
X14798Y9553D01*
X14788Y9548D01*
X14770Y9540D01*
X14752Y9535D01*
X14744Y9533D01*
X14737Y9532D01*
X14730Y9532D01*
X14725Y9531D01*
X14720Y9530D01*
X14714D01*
X14700Y9531D01*
X14687Y9532D01*
X14675Y9535D01*
X14665Y9538D01*
X14656Y9541D01*
X14650Y9543D01*
X14646Y9545D01*
X14645Y9546D01*
X14633Y9552D01*
X14623Y9559D01*
X14615Y9566D01*
X14608Y9572D01*
X14602Y9578D01*
X14598Y9582D01*
X14596Y9586D01*
X14595Y9587D01*
X14589Y9597D01*
X14584Y9608D01*
X14580Y9618D01*
X14577Y9628D01*
X14574Y9637D01*
X14573Y9644D01*
X14571Y9649D01*
Y9649D01*
Y9650D01*
X14570Y9661D01*
X14568Y9674D01*
X14567Y9687D01*
X14566Y9699D01*
X14566Y9711D01*
Y9720D01*
Y9724D01*
Y9726D01*
Y9728D01*
Y9728D01*
Y9921D01*
X15079D01*
Y9853D01*
D02*
G37*
G36*
X14846Y9462D02*
X14871Y9459D01*
X14894Y9454D01*
X14905Y9452D01*
X14915Y9450D01*
X14924Y9447D01*
X14932Y9445D01*
X14939Y9443D01*
X14945Y9440D01*
X14950Y9439D01*
X14953Y9437D01*
X14955Y9436D01*
X14956D01*
X14979Y9425D01*
X14998Y9412D01*
X15015Y9400D01*
X15029Y9386D01*
X15040Y9375D01*
X15048Y9366D01*
X15050Y9362D01*
X15052Y9360D01*
X15053Y9358D01*
X15054Y9357D01*
X15060Y9347D01*
X15065Y9336D01*
X15073Y9314D01*
X15079Y9292D01*
X15083Y9270D01*
X15084Y9261D01*
X15086Y9251D01*
X15087Y9243D01*
Y9236D01*
X15087Y9230D01*
Y9226D01*
Y9223D01*
Y9222D01*
X15087Y9207D01*
X15086Y9193D01*
X15080Y9168D01*
X15077Y9156D01*
X15073Y9144D01*
X15069Y9134D01*
X15065Y9125D01*
X15062Y9116D01*
X15058Y9109D01*
X15054Y9103D01*
X15051Y9097D01*
X15048Y9093D01*
X15045Y9089D01*
X15044Y9088D01*
X15044Y9087D01*
X15035Y9077D01*
X15026Y9068D01*
X15005Y9052D01*
X14984Y9038D01*
X14963Y9028D01*
X14954Y9023D01*
X14945Y9020D01*
X14937Y9017D01*
X14930Y9014D01*
X14924Y9012D01*
X14920Y9011D01*
X14917Y9010D01*
X14916D01*
X14899Y9078D01*
X14922Y9084D01*
X14942Y9092D01*
X14958Y9101D01*
X14973Y9110D01*
X14983Y9118D01*
X14990Y9125D01*
X14995Y9130D01*
X14996Y9131D01*
X14997Y9132D01*
X15008Y9147D01*
X15015Y9163D01*
X15022Y9179D01*
X15026Y9194D01*
X15028Y9207D01*
X15029Y9214D01*
Y9218D01*
X15030Y9222D01*
Y9225D01*
Y9227D01*
Y9228D01*
X15029Y9245D01*
X15026Y9261D01*
X15022Y9276D01*
X15018Y9289D01*
X15013Y9300D01*
X15010Y9308D01*
X15008Y9311D01*
X15007Y9314D01*
X15006Y9314D01*
Y9315D01*
X14996Y9329D01*
X14984Y9341D01*
X14973Y9351D01*
X14960Y9360D01*
X14950Y9366D01*
X14941Y9370D01*
X14937Y9371D01*
X14935Y9373D01*
X14933Y9374D01*
X14933D01*
X14914Y9380D01*
X14894Y9385D01*
X14875Y9388D01*
X14857Y9390D01*
X14849Y9391D01*
X14842Y9392D01*
X14835D01*
X14830Y9393D01*
X14819D01*
X14800Y9392D01*
X14782Y9390D01*
X14766Y9388D01*
X14751Y9385D01*
X14738Y9382D01*
X14733Y9381D01*
X14729Y9379D01*
X14725Y9378D01*
X14723Y9378D01*
X14721Y9377D01*
X14720D01*
X14703Y9370D01*
X14687Y9361D01*
X14675Y9352D01*
X14664Y9343D01*
X14655Y9335D01*
X14649Y9328D01*
X14645Y9323D01*
X14644Y9322D01*
Y9321D01*
X14634Y9306D01*
X14627Y9289D01*
X14622Y9273D01*
X14619Y9257D01*
X14616Y9243D01*
X14616Y9238D01*
Y9232D01*
X14615Y9229D01*
Y9225D01*
Y9224D01*
Y9223D01*
X14616Y9204D01*
X14619Y9188D01*
X14623Y9173D01*
X14627Y9161D01*
X14633Y9151D01*
X14637Y9144D01*
X14640Y9139D01*
X14641Y9138D01*
X14652Y9125D01*
X14664Y9115D01*
X14678Y9106D01*
X14691Y9099D01*
X14703Y9093D01*
X14709Y9091D01*
X14713Y9089D01*
X14717Y9087D01*
X14720Y9086D01*
X14722Y9086D01*
X14723D01*
X14707Y9018D01*
X14682Y9028D01*
X14670Y9033D01*
X14660Y9039D01*
X14650Y9045D01*
X14641Y9051D01*
X14633Y9057D01*
X14625Y9063D01*
X14619Y9068D01*
X14613Y9074D01*
X14608Y9079D01*
X14604Y9083D01*
X14601Y9087D01*
X14598Y9089D01*
X14598Y9091D01*
X14597Y9092D01*
X14590Y9102D01*
X14584Y9112D01*
X14578Y9123D01*
X14573Y9134D01*
X14566Y9156D01*
X14562Y9176D01*
X14560Y9186D01*
X14559Y9194D01*
X14559Y9202D01*
X14558Y9208D01*
X14557Y9214D01*
Y9218D01*
Y9221D01*
Y9221D01*
X14559Y9246D01*
X14562Y9270D01*
X14567Y9291D01*
X14570Y9300D01*
X14573Y9309D01*
X14576Y9317D01*
X14578Y9325D01*
X14581Y9331D01*
X14584Y9336D01*
X14585Y9340D01*
X14587Y9343D01*
X14588Y9345D01*
Y9346D01*
X14601Y9365D01*
X14616Y9383D01*
X14630Y9398D01*
X14645Y9410D01*
X14659Y9420D01*
X14664Y9424D01*
X14669Y9427D01*
X14673Y9429D01*
X14677Y9431D01*
X14678Y9432D01*
X14679D01*
X14702Y9443D01*
X14726Y9450D01*
X14749Y9455D01*
X14771Y9459D01*
X14781Y9460D01*
X14790Y9461D01*
X14798Y9462D01*
X14805D01*
X14811Y9463D01*
X14819D01*
X14846Y9462D01*
D02*
G37*
G36*
X15079Y8734D02*
Y8716D01*
X15077Y8701D01*
X15076Y8687D01*
X15075Y8674D01*
X15073Y8665D01*
X15072Y8658D01*
X15071Y8653D01*
Y8651D01*
X15067Y8640D01*
X15063Y8629D01*
X15059Y8619D01*
X15055Y8611D01*
X15051Y8604D01*
X15048Y8599D01*
X15047Y8596D01*
X15046Y8595D01*
X15039Y8587D01*
X15031Y8579D01*
X15023Y8573D01*
X15015Y8568D01*
X15008Y8564D01*
X15003Y8560D01*
X14999Y8558D01*
X14998Y8558D01*
X14986Y8552D01*
X14974Y8548D01*
X14962Y8546D01*
X14952Y8544D01*
X14944Y8543D01*
X14937Y8542D01*
X14930D01*
X14914Y8543D01*
X14899Y8546D01*
X14887Y8550D01*
X14875Y8555D01*
X14866Y8560D01*
X14858Y8564D01*
X14855Y8567D01*
X14853Y8568D01*
X14841Y8578D01*
X14832Y8590D01*
X14824Y8601D01*
X14817Y8613D01*
X14812Y8623D01*
X14809Y8632D01*
X14808Y8635D01*
X14807Y8637D01*
X14806Y8639D01*
Y8640D01*
X14799Y8626D01*
X14791Y8615D01*
X14784Y8606D01*
X14776Y8598D01*
X14770Y8593D01*
X14765Y8588D01*
X14762Y8586D01*
X14760Y8585D01*
X14749Y8579D01*
X14737Y8575D01*
X14727Y8572D01*
X14718Y8569D01*
X14709Y8568D01*
X14703Y8567D01*
X14698D01*
X14684Y8568D01*
X14672Y8570D01*
X14661Y8573D01*
X14651Y8577D01*
X14642Y8581D01*
X14635Y8584D01*
X14631Y8587D01*
X14630Y8587D01*
X14618Y8596D01*
X14609Y8604D01*
X14600Y8614D01*
X14593Y8623D01*
X14588Y8631D01*
X14584Y8637D01*
X14582Y8642D01*
X14581Y8643D01*
Y8644D01*
X14576Y8658D01*
X14572Y8673D01*
X14570Y8689D01*
X14567Y8704D01*
X14566Y8717D01*
Y8722D01*
X14566Y8728D01*
Y8732D01*
Y8735D01*
Y8736D01*
Y8737D01*
Y8929D01*
X15079D01*
Y8734D01*
D02*
G37*
G36*
X14956Y8273D02*
X15079D01*
Y8209D01*
X14956D01*
Y8140D01*
X14898D01*
Y8209D01*
X14566D01*
Y8261D01*
X14898Y8495D01*
X14956D01*
Y8273D01*
D02*
G37*
G36*
X14955Y8073D02*
X14965Y8071D01*
X14986Y8064D01*
X15004Y8056D01*
X15019Y8047D01*
X15026Y8043D01*
X15031Y8038D01*
X15036Y8034D01*
X15040Y8031D01*
X15044Y8028D01*
X15046Y8026D01*
X15047Y8025D01*
X15048Y8024D01*
X15055Y8016D01*
X15061Y8006D01*
X15066Y7998D01*
X15070Y7988D01*
X15078Y7970D01*
X15083Y7952D01*
X15084Y7944D01*
X15085Y7936D01*
X15086Y7930D01*
X15087Y7923D01*
X15087Y7919D01*
Y7916D01*
Y7913D01*
Y7913D01*
X15087Y7899D01*
X15085Y7886D01*
X15083Y7873D01*
X15080Y7862D01*
X15076Y7851D01*
X15072Y7841D01*
X15069Y7831D01*
X15064Y7823D01*
X15060Y7816D01*
X15056Y7809D01*
X15052Y7802D01*
X15048Y7798D01*
X15045Y7794D01*
X15044Y7791D01*
X15042Y7790D01*
X15041Y7789D01*
X15032Y7781D01*
X15023Y7773D01*
X15013Y7766D01*
X15004Y7761D01*
X14994Y7756D01*
X14984Y7752D01*
X14966Y7746D01*
X14958Y7744D01*
X14951Y7742D01*
X14944Y7741D01*
X14938Y7741D01*
X14933Y7740D01*
X14927D01*
X14909Y7741D01*
X14893Y7744D01*
X14879Y7748D01*
X14867Y7752D01*
X14858Y7758D01*
X14851Y7762D01*
X14846Y7765D01*
X14844Y7766D01*
X14833Y7776D01*
X14823Y7788D01*
X14816Y7799D01*
X14810Y7810D01*
X14805Y7820D01*
X14803Y7828D01*
X14801Y7831D01*
Y7834D01*
X14801Y7835D01*
Y7836D01*
X14794Y7823D01*
X14787Y7813D01*
X14780Y7804D01*
X14773Y7796D01*
X14766Y7791D01*
X14762Y7786D01*
X14759Y7784D01*
X14757Y7783D01*
X14747Y7777D01*
X14736Y7773D01*
X14726Y7770D01*
X14716Y7767D01*
X14709Y7766D01*
X14702Y7765D01*
X14697D01*
X14684Y7766D01*
X14672Y7768D01*
X14661Y7771D01*
X14651Y7774D01*
X14643Y7777D01*
X14637Y7781D01*
X14633Y7783D01*
X14631Y7784D01*
X14620Y7791D01*
X14610Y7800D01*
X14602Y7809D01*
X14595Y7818D01*
X14589Y7826D01*
X14585Y7832D01*
X14583Y7837D01*
X14582Y7838D01*
Y7838D01*
X14576Y7852D01*
X14571Y7865D01*
X14568Y7878D01*
X14566Y7890D01*
X14564Y7900D01*
X14563Y7908D01*
Y7911D01*
Y7913D01*
Y7914D01*
Y7915D01*
Y7926D01*
X14565Y7937D01*
X14569Y7956D01*
X14574Y7974D01*
X14580Y7989D01*
X14587Y8001D01*
X14591Y8005D01*
X14593Y8009D01*
X14595Y8013D01*
X14597Y8016D01*
X14598Y8016D01*
X14598Y8017D01*
X14612Y8031D01*
X14628Y8042D01*
X14645Y8052D01*
X14660Y8058D01*
X14674Y8063D01*
X14680Y8065D01*
X14686Y8066D01*
X14690Y8067D01*
X14693Y8068D01*
X14695Y8069D01*
X14696D01*
X14707Y8005D01*
X14691Y8002D01*
X14677Y7998D01*
X14665Y7993D01*
X14655Y7987D01*
X14648Y7983D01*
X14642Y7979D01*
X14639Y7976D01*
X14638Y7975D01*
X14630Y7965D01*
X14625Y7955D01*
X14620Y7945D01*
X14618Y7934D01*
X14616Y7927D01*
X14615Y7920D01*
Y7915D01*
Y7914D01*
Y7913D01*
X14616Y7900D01*
X14619Y7888D01*
X14622Y7878D01*
X14627Y7870D01*
X14630Y7863D01*
X14634Y7857D01*
X14637Y7854D01*
X14638Y7853D01*
X14647Y7845D01*
X14657Y7840D01*
X14666Y7835D01*
X14675Y7833D01*
X14684Y7831D01*
X14690Y7830D01*
X14695D01*
X14711Y7831D01*
X14724Y7835D01*
X14735Y7840D01*
X14744Y7846D01*
X14751Y7852D01*
X14756Y7857D01*
X14759Y7861D01*
X14760Y7863D01*
X14767Y7875D01*
X14772Y7888D01*
X14776Y7899D01*
X14778Y7910D01*
X14780Y7920D01*
X14780Y7927D01*
Y7930D01*
Y7933D01*
Y7934D01*
Y7934D01*
Y7938D01*
X14780Y7941D01*
Y7944D01*
Y7945D01*
X14835Y7952D01*
X14833Y7942D01*
X14831Y7934D01*
X14830Y7926D01*
X14830Y7920D01*
X14829Y7914D01*
Y7910D01*
Y7908D01*
Y7907D01*
X14830Y7891D01*
X14834Y7878D01*
X14837Y7866D01*
X14843Y7856D01*
X14848Y7847D01*
X14852Y7841D01*
X14855Y7838D01*
X14857Y7836D01*
X14868Y7827D01*
X14880Y7820D01*
X14892Y7814D01*
X14903Y7811D01*
X14913Y7809D01*
X14921Y7808D01*
X14924Y7807D01*
X14928D01*
X14944Y7809D01*
X14959Y7812D01*
X14973Y7816D01*
X14983Y7822D01*
X14993Y7828D01*
X14999Y7833D01*
X15003Y7836D01*
X15005Y7838D01*
X15015Y7849D01*
X15023Y7862D01*
X15027Y7874D01*
X15031Y7887D01*
X15033Y7897D01*
X15034Y7905D01*
X15035Y7908D01*
Y7910D01*
Y7912D01*
Y7913D01*
X15034Y7926D01*
X15031Y7938D01*
X15027Y7949D01*
X15023Y7958D01*
X15019Y7966D01*
X15015Y7971D01*
X15012Y7974D01*
X15012Y7976D01*
X15001Y7984D01*
X14990Y7992D01*
X14976Y7998D01*
X14964Y8003D01*
X14952Y8007D01*
X14943Y8009D01*
X14940Y8011D01*
X14937D01*
X14935Y8012D01*
X14934D01*
X14943Y8075D01*
X14955Y8073D01*
D02*
G37*
G36*
X14851Y7677D02*
X14876Y7675D01*
X14898Y7673D01*
X14919Y7670D01*
X14938Y7666D01*
X14955Y7662D01*
X14971Y7657D01*
X14984Y7652D01*
X14997Y7648D01*
X15007Y7643D01*
X15015Y7639D01*
X15023Y7635D01*
X15028Y7632D01*
X15032Y7630D01*
X15034Y7628D01*
X15035Y7627D01*
X15044Y7619D01*
X15052Y7610D01*
X15059Y7601D01*
X15065Y7591D01*
X15070Y7581D01*
X15075Y7571D01*
X15081Y7552D01*
X15083Y7544D01*
X15084Y7536D01*
X15086Y7529D01*
X15087Y7523D01*
X15087Y7517D01*
Y7513D01*
Y7511D01*
Y7510D01*
X15086Y7490D01*
X15083Y7472D01*
X15078Y7456D01*
X15072Y7442D01*
X15067Y7432D01*
X15062Y7424D01*
X15060Y7421D01*
X15059Y7419D01*
X15058Y7418D01*
Y7417D01*
X15045Y7404D01*
X15031Y7393D01*
X15017Y7384D01*
X15003Y7376D01*
X14990Y7370D01*
X14986Y7367D01*
X14981Y7365D01*
X14977Y7363D01*
X14974Y7363D01*
X14973Y7362D01*
X14972D01*
X14961Y7359D01*
X14950Y7356D01*
X14926Y7351D01*
X14901Y7348D01*
X14878Y7346D01*
X14867Y7345D01*
X14857Y7344D01*
X14848D01*
X14841Y7343D01*
X14826D01*
X14798Y7344D01*
X14787D01*
X14775Y7345D01*
X14764Y7346D01*
X14754Y7347D01*
X14745Y7348D01*
X14737Y7349D01*
X14730Y7350D01*
X14723Y7351D01*
X14717Y7352D01*
X14713Y7353D01*
X14709Y7354D01*
X14707D01*
X14705Y7355D01*
X14705D01*
X14688Y7360D01*
X14673Y7365D01*
X14660Y7371D01*
X14649Y7375D01*
X14641Y7380D01*
X14634Y7384D01*
X14630Y7386D01*
X14628Y7387D01*
X14617Y7395D01*
X14608Y7403D01*
X14599Y7412D01*
X14592Y7420D01*
X14587Y7428D01*
X14584Y7433D01*
X14581Y7437D01*
X14580Y7438D01*
X14575Y7450D01*
X14570Y7463D01*
X14567Y7475D01*
X14566Y7486D01*
X14564Y7495D01*
X14563Y7503D01*
Y7506D01*
Y7509D01*
Y7510D01*
Y7510D01*
X14565Y7531D01*
X14568Y7549D01*
X14573Y7565D01*
X14578Y7578D01*
X14584Y7589D01*
X14589Y7597D01*
X14591Y7600D01*
X14592Y7602D01*
X14594Y7603D01*
Y7604D01*
X14606Y7617D01*
X14620Y7628D01*
X14634Y7638D01*
X14648Y7645D01*
X14660Y7652D01*
X14666Y7654D01*
X14670Y7656D01*
X14674Y7657D01*
X14677Y7659D01*
X14679Y7659D01*
X14680D01*
X14691Y7663D01*
X14702Y7666D01*
X14726Y7670D01*
X14750Y7673D01*
X14773Y7675D01*
X14784Y7676D01*
X14794Y7677D01*
X14803D01*
X14811Y7677D01*
X14826D01*
X14851Y7677D01*
D02*
G37*
G36*
X15079Y6948D02*
X15019D01*
Y7200D01*
X15006Y7192D01*
X14996Y7183D01*
X14991Y7179D01*
X14988Y7176D01*
X14986Y7174D01*
X14985Y7174D01*
X14981Y7170D01*
X14977Y7166D01*
X14968Y7156D01*
X14957Y7143D01*
X14946Y7132D01*
X14936Y7120D01*
X14928Y7110D01*
X14925Y7107D01*
X14923Y7103D01*
X14921Y7102D01*
X14920Y7101D01*
X14909Y7089D01*
X14900Y7078D01*
X14891Y7067D01*
X14882Y7057D01*
X14873Y7049D01*
X14866Y7041D01*
X14859Y7033D01*
X14853Y7027D01*
X14848Y7021D01*
X14843Y7017D01*
X14836Y7010D01*
X14831Y7006D01*
X14830Y7004D01*
X14817Y6994D01*
X14806Y6985D01*
X14795Y6978D01*
X14786Y6972D01*
X14778Y6968D01*
X14773Y6964D01*
X14769Y6963D01*
X14767Y6962D01*
X14756Y6957D01*
X14745Y6954D01*
X14735Y6952D01*
X14726Y6950D01*
X14718Y6950D01*
X14712Y6949D01*
X14706D01*
X14695Y6950D01*
X14684Y6950D01*
X14665Y6956D01*
X14648Y6963D01*
X14633Y6971D01*
X14621Y6978D01*
X14616Y6982D01*
X14612Y6985D01*
X14609Y6989D01*
X14606Y6991D01*
X14605Y6992D01*
X14605Y6993D01*
X14598Y7001D01*
X14591Y7010D01*
X14585Y7019D01*
X14580Y7029D01*
X14573Y7049D01*
X14569Y7067D01*
X14566Y7076D01*
X14566Y7084D01*
X14565Y7091D01*
X14564Y7097D01*
X14563Y7103D01*
Y7107D01*
Y7109D01*
Y7110D01*
X14564Y7123D01*
X14565Y7135D01*
X14570Y7159D01*
X14572Y7169D01*
X14575Y7179D01*
X14579Y7188D01*
X14582Y7196D01*
X14586Y7203D01*
X14589Y7209D01*
X14593Y7214D01*
X14595Y7219D01*
X14598Y7222D01*
X14600Y7224D01*
X14601Y7226D01*
X14602Y7227D01*
X14609Y7235D01*
X14617Y7241D01*
X14635Y7253D01*
X14653Y7261D01*
X14671Y7267D01*
X14687Y7272D01*
X14694Y7273D01*
X14700Y7274D01*
X14705Y7275D01*
X14709Y7276D01*
X14712D01*
X14719Y7211D01*
X14702Y7210D01*
X14687Y7207D01*
X14674Y7203D01*
X14663Y7197D01*
X14655Y7192D01*
X14648Y7188D01*
X14645Y7185D01*
X14644Y7184D01*
X14634Y7173D01*
X14627Y7161D01*
X14623Y7149D01*
X14619Y7137D01*
X14617Y7127D01*
X14616Y7119D01*
X14616Y7116D01*
Y7114D01*
Y7112D01*
Y7111D01*
X14616Y7096D01*
X14620Y7082D01*
X14623Y7070D01*
X14628Y7060D01*
X14634Y7052D01*
X14637Y7046D01*
X14641Y7042D01*
X14641Y7041D01*
X14652Y7032D01*
X14662Y7025D01*
X14673Y7021D01*
X14683Y7017D01*
X14691Y7015D01*
X14698Y7014D01*
X14703Y7014D01*
X14705D01*
X14718Y7015D01*
X14732Y7018D01*
X14744Y7023D01*
X14756Y7028D01*
X14766Y7034D01*
X14774Y7039D01*
X14777Y7040D01*
X14780Y7042D01*
X14780Y7043D01*
X14781D01*
X14789Y7050D01*
X14798Y7057D01*
X14806Y7064D01*
X14815Y7074D01*
X14833Y7092D01*
X14851Y7111D01*
X14866Y7128D01*
X14873Y7136D01*
X14878Y7143D01*
X14883Y7149D01*
X14887Y7153D01*
X14889Y7156D01*
X14890Y7157D01*
X14906Y7175D01*
X14921Y7192D01*
X14934Y7207D01*
X14945Y7218D01*
X14955Y7228D01*
X14962Y7234D01*
X14966Y7238D01*
X14967Y7239D01*
X14968D01*
X14980Y7249D01*
X14992Y7257D01*
X15004Y7265D01*
X15014Y7271D01*
X15023Y7275D01*
X15030Y7278D01*
X15034Y7280D01*
X15035Y7281D01*
X15036D01*
X15044Y7283D01*
X15051Y7285D01*
X15058Y7286D01*
X15065Y7287D01*
X15070Y7288D01*
X15079D01*
Y6948D01*
D02*
G37*
G36*
Y6839D02*
X14923Y6784D01*
Y6568D01*
X15079Y6509D01*
Y6433D01*
X14566Y6641D01*
Y6715D01*
X15079Y6911D01*
Y6839D01*
D02*
G37*
G36*
Y6109D02*
X14851D01*
Y6031D01*
Y6022D01*
X14851Y6014D01*
Y6008D01*
X14852Y6002D01*
X14853Y5998D01*
Y5995D01*
X14854Y5994D01*
Y5993D01*
X14858Y5981D01*
X14862Y5972D01*
X14865Y5968D01*
X14866Y5965D01*
X14867Y5963D01*
X14868Y5962D01*
X14872Y5956D01*
X14877Y5951D01*
X14888Y5939D01*
X14894Y5935D01*
X14898Y5931D01*
X14901Y5929D01*
X14902Y5928D01*
X14912Y5920D01*
X14923Y5912D01*
X14935Y5904D01*
X14947Y5896D01*
X14957Y5889D01*
X14965Y5883D01*
X14968Y5882D01*
X14970Y5880D01*
X14972Y5879D01*
X14973D01*
X15079Y5811D01*
Y5726D01*
X14940Y5815D01*
X14925Y5825D01*
X14912Y5835D01*
X14900Y5844D01*
X14890Y5853D01*
X14882Y5860D01*
X14876Y5866D01*
X14873Y5869D01*
X14871Y5871D01*
X14866Y5876D01*
X14862Y5883D01*
X14853Y5897D01*
X14850Y5902D01*
X14848Y5907D01*
X14846Y5910D01*
X14845Y5912D01*
X14843Y5898D01*
X14841Y5886D01*
X14837Y5874D01*
X14834Y5864D01*
X14830Y5854D01*
X14826Y5845D01*
X14822Y5837D01*
X14818Y5830D01*
X14814Y5823D01*
X14811Y5818D01*
X14807Y5813D01*
X14805Y5809D01*
X14801Y5807D01*
X14800Y5805D01*
X14798Y5803D01*
X14791Y5797D01*
X14784Y5791D01*
X14768Y5782D01*
X14753Y5776D01*
X14738Y5772D01*
X14726Y5769D01*
X14720Y5768D01*
X14716D01*
X14712Y5767D01*
X14706D01*
X14691Y5768D01*
X14677Y5770D01*
X14663Y5774D01*
X14652Y5778D01*
X14642Y5782D01*
X14635Y5786D01*
X14630Y5788D01*
X14629Y5789D01*
X14616Y5798D01*
X14606Y5807D01*
X14598Y5816D01*
X14591Y5826D01*
X14586Y5834D01*
X14582Y5840D01*
X14580Y5844D01*
X14580Y5845D01*
Y5846D01*
X14577Y5853D01*
X14575Y5861D01*
X14572Y5877D01*
X14569Y5894D01*
X14567Y5911D01*
X14566Y5926D01*
Y5933D01*
X14566Y5939D01*
Y5944D01*
Y5947D01*
Y5949D01*
Y5950D01*
Y6177D01*
X15079D01*
Y6109D01*
D02*
G37*
G36*
X14913Y5689D02*
X14929Y5687D01*
X14944Y5685D01*
X14957Y5682D01*
X14969Y5679D01*
X14981Y5675D01*
X14991Y5670D01*
X15001Y5666D01*
X15009Y5662D01*
X15017Y5657D01*
X15023Y5653D01*
X15028Y5649D01*
X15032Y5647D01*
X15035Y5645D01*
X15037Y5643D01*
X15037Y5642D01*
X15046Y5633D01*
X15054Y5623D01*
X15061Y5612D01*
X15066Y5602D01*
X15071Y5591D01*
X15075Y5580D01*
X15081Y5560D01*
X15083Y5550D01*
X15085Y5541D01*
X15086Y5534D01*
X15087Y5527D01*
X15087Y5521D01*
Y5517D01*
Y5514D01*
Y5513D01*
X15086Y5490D01*
X15083Y5470D01*
X15077Y5451D01*
X15072Y5436D01*
X15069Y5429D01*
X15066Y5423D01*
X15063Y5419D01*
X15061Y5415D01*
X15059Y5411D01*
X15058Y5409D01*
X15056Y5408D01*
Y5407D01*
X15044Y5393D01*
X15029Y5381D01*
X15014Y5371D01*
X15000Y5363D01*
X14987Y5357D01*
X14981Y5355D01*
X14976Y5353D01*
X14973Y5352D01*
X14969Y5351D01*
X14968Y5350D01*
X14967D01*
X14958Y5415D01*
X14973Y5421D01*
X14985Y5427D01*
X14995Y5434D01*
X15003Y5440D01*
X15010Y5445D01*
X15014Y5450D01*
X15017Y5453D01*
X15018Y5454D01*
X15024Y5463D01*
X15028Y5473D01*
X15031Y5484D01*
X15033Y5493D01*
X15035Y5501D01*
X15036Y5507D01*
Y5512D01*
Y5513D01*
Y5513D01*
X15034Y5530D01*
X15031Y5545D01*
X15026Y5558D01*
X15019Y5570D01*
X15014Y5578D01*
X15008Y5585D01*
X15005Y5589D01*
X15004Y5591D01*
X14990Y5601D01*
X14975Y5609D01*
X14959Y5615D01*
X14944Y5620D01*
X14930Y5623D01*
X14925Y5623D01*
X14919Y5624D01*
X14916D01*
X14912Y5625D01*
X14909D01*
Y5349D01*
X14902Y5348D01*
X14893D01*
X14876Y5349D01*
X14860Y5350D01*
X14845Y5352D01*
X14832Y5355D01*
X14819Y5359D01*
X14807Y5363D01*
X14797Y5367D01*
X14787Y5371D01*
X14778Y5376D01*
X14771Y5381D01*
X14765Y5384D01*
X14759Y5388D01*
X14755Y5391D01*
X14752Y5393D01*
X14751Y5395D01*
X14750Y5395D01*
X14741Y5405D01*
X14733Y5414D01*
X14726Y5424D01*
X14720Y5434D01*
X14715Y5445D01*
X14711Y5455D01*
X14705Y5473D01*
X14702Y5483D01*
X14701Y5491D01*
X14700Y5498D01*
X14699Y5505D01*
X14698Y5510D01*
Y5514D01*
Y5516D01*
Y5517D01*
X14699Y5531D01*
X14701Y5545D01*
X14703Y5557D01*
X14706Y5569D01*
X14711Y5580D01*
X14715Y5591D01*
X14719Y5600D01*
X14724Y5609D01*
X14730Y5616D01*
X14734Y5623D01*
X14738Y5629D01*
X14742Y5634D01*
X14746Y5637D01*
X14748Y5640D01*
X14750Y5641D01*
X14751Y5642D01*
X14761Y5651D01*
X14772Y5658D01*
X14784Y5664D01*
X14795Y5670D01*
X14808Y5674D01*
X14819Y5678D01*
X14843Y5684D01*
X14854Y5686D01*
X14864Y5687D01*
X14873Y5688D01*
X14881Y5689D01*
X14887Y5690D01*
X14897D01*
X14913Y5689D01*
D02*
G37*
G36*
X15079Y5168D02*
Y5109D01*
X14707Y4968D01*
Y5033D01*
X14934Y5116D01*
X14949Y5121D01*
X14962Y5126D01*
X14975Y5130D01*
X14985Y5133D01*
X14993Y5135D01*
X14999Y5138D01*
X15003Y5138D01*
X15005Y5139D01*
X14990Y5143D01*
X14976Y5148D01*
X14964Y5152D01*
X14953Y5156D01*
X14944Y5159D01*
X14937Y5161D01*
X14932Y5163D01*
X14930Y5163D01*
X14707Y5243D01*
Y5309D01*
X15079Y5168D01*
D02*
G37*
G36*
Y4689D02*
X14923Y4634D01*
Y4418D01*
X15079Y4359D01*
Y4282D01*
X14566Y4491D01*
Y4565D01*
X15079Y4761D01*
Y4689D01*
D02*
G37*
G36*
X14851Y4252D02*
X14876Y4250D01*
X14898Y4248D01*
X14919Y4245D01*
X14938Y4241D01*
X14955Y4237D01*
X14971Y4232D01*
X14984Y4228D01*
X14997Y4223D01*
X15007Y4218D01*
X15015Y4214D01*
X15023Y4211D01*
X15028Y4207D01*
X15032Y4205D01*
X15034Y4204D01*
X15035Y4203D01*
X15044Y4194D01*
X15052Y4186D01*
X15059Y4176D01*
X15065Y4166D01*
X15070Y4157D01*
X15075Y4147D01*
X15081Y4128D01*
X15083Y4119D01*
X15084Y4111D01*
X15086Y4104D01*
X15087Y4098D01*
X15087Y4093D01*
Y4089D01*
Y4086D01*
Y4086D01*
X15086Y4065D01*
X15083Y4047D01*
X15078Y4032D01*
X15072Y4018D01*
X15067Y4008D01*
X15062Y3999D01*
X15060Y3997D01*
X15059Y3994D01*
X15058Y3993D01*
Y3993D01*
X15045Y3979D01*
X15031Y3968D01*
X15017Y3959D01*
X15003Y3951D01*
X14990Y3945D01*
X14986Y3943D01*
X14981Y3940D01*
X14977Y3939D01*
X14974Y3938D01*
X14973Y3937D01*
X14972D01*
X14961Y3934D01*
X14950Y3931D01*
X14926Y3926D01*
X14901Y3923D01*
X14878Y3921D01*
X14867Y3920D01*
X14857Y3919D01*
X14848D01*
X14841Y3918D01*
X14826D01*
X14798Y3919D01*
X14787D01*
X14775Y3920D01*
X14764Y3921D01*
X14754Y3922D01*
X14745Y3923D01*
X14737Y3924D01*
X14730Y3926D01*
X14723Y3926D01*
X14717Y3927D01*
X14713Y3929D01*
X14709Y3929D01*
X14707D01*
X14705Y3930D01*
X14705D01*
X14688Y3935D01*
X14673Y3940D01*
X14660Y3946D01*
X14649Y3951D01*
X14641Y3955D01*
X14634Y3959D01*
X14630Y3961D01*
X14628Y3962D01*
X14617Y3970D01*
X14608Y3979D01*
X14599Y3987D01*
X14592Y3995D01*
X14587Y4003D01*
X14584Y4008D01*
X14581Y4012D01*
X14580Y4014D01*
X14575Y4025D01*
X14570Y4038D01*
X14567Y4050D01*
X14566Y4061D01*
X14564Y4071D01*
X14563Y4079D01*
Y4082D01*
Y4084D01*
Y4085D01*
Y4086D01*
X14565Y4106D01*
X14568Y4124D01*
X14573Y4140D01*
X14578Y4154D01*
X14584Y4165D01*
X14589Y4172D01*
X14591Y4175D01*
X14592Y4178D01*
X14594Y4179D01*
Y4179D01*
X14606Y4193D01*
X14620Y4204D01*
X14634Y4213D01*
X14648Y4221D01*
X14660Y4227D01*
X14666Y4229D01*
X14670Y4231D01*
X14674Y4232D01*
X14677Y4234D01*
X14679Y4235D01*
X14680D01*
X14691Y4238D01*
X14702Y4241D01*
X14726Y4245D01*
X14750Y4248D01*
X14773Y4250D01*
X14784Y4251D01*
X14794Y4252D01*
X14803D01*
X14811Y4253D01*
X14826D01*
X14851Y4252D01*
D02*
G37*
G36*
X14955Y3852D02*
X14965Y3850D01*
X14986Y3843D01*
X15004Y3835D01*
X15019Y3826D01*
X15026Y3822D01*
X15031Y3817D01*
X15036Y3813D01*
X15040Y3810D01*
X15044Y3807D01*
X15046Y3804D01*
X15047Y3804D01*
X15048Y3803D01*
X15055Y3794D01*
X15061Y3785D01*
X15066Y3776D01*
X15070Y3767D01*
X15078Y3748D01*
X15083Y3730D01*
X15084Y3722D01*
X15085Y3715D01*
X15086Y3708D01*
X15087Y3702D01*
X15087Y3697D01*
Y3694D01*
Y3692D01*
Y3691D01*
X15087Y3678D01*
X15085Y3665D01*
X15083Y3652D01*
X15080Y3640D01*
X15076Y3630D01*
X15072Y3619D01*
X15069Y3610D01*
X15064Y3601D01*
X15060Y3594D01*
X15056Y3587D01*
X15052Y3581D01*
X15048Y3576D01*
X15045Y3573D01*
X15044Y3570D01*
X15042Y3569D01*
X15041Y3568D01*
X15032Y3559D01*
X15023Y3551D01*
X15013Y3545D01*
X15004Y3540D01*
X14994Y3534D01*
X14984Y3530D01*
X14966Y3525D01*
X14958Y3523D01*
X14951Y3521D01*
X14944Y3520D01*
X14938Y3519D01*
X14933Y3519D01*
X14927D01*
X14909Y3519D01*
X14893Y3523D01*
X14879Y3526D01*
X14867Y3531D01*
X14858Y3537D01*
X14851Y3540D01*
X14846Y3544D01*
X14844Y3544D01*
X14833Y3555D01*
X14823Y3566D01*
X14816Y3578D01*
X14810Y3589D01*
X14805Y3599D01*
X14803Y3607D01*
X14801Y3610D01*
Y3612D01*
X14801Y3614D01*
Y3615D01*
X14794Y3602D01*
X14787Y3591D01*
X14780Y3583D01*
X14773Y3575D01*
X14766Y3569D01*
X14762Y3565D01*
X14759Y3562D01*
X14757Y3562D01*
X14747Y3555D01*
X14736Y3551D01*
X14726Y3548D01*
X14716Y3546D01*
X14709Y3544D01*
X14702Y3544D01*
X14697D01*
X14684Y3544D01*
X14672Y3547D01*
X14661Y3550D01*
X14651Y3553D01*
X14643Y3556D01*
X14637Y3559D01*
X14633Y3562D01*
X14631Y3562D01*
X14620Y3570D01*
X14610Y3579D01*
X14602Y3588D01*
X14595Y3597D01*
X14589Y3605D01*
X14585Y3611D01*
X14583Y3615D01*
X14582Y3616D01*
Y3617D01*
X14576Y3630D01*
X14571Y3644D01*
X14568Y3657D01*
X14566Y3669D01*
X14564Y3679D01*
X14563Y3687D01*
Y3690D01*
Y3692D01*
Y3693D01*
Y3694D01*
Y3704D01*
X14565Y3715D01*
X14569Y3735D01*
X14574Y3753D01*
X14580Y3768D01*
X14587Y3779D01*
X14591Y3784D01*
X14593Y3788D01*
X14595Y3792D01*
X14597Y3794D01*
X14598Y3795D01*
X14598Y3796D01*
X14612Y3810D01*
X14628Y3821D01*
X14645Y3830D01*
X14660Y3836D01*
X14674Y3842D01*
X14680Y3844D01*
X14686Y3845D01*
X14690Y3846D01*
X14693Y3847D01*
X14695Y3847D01*
X14696D01*
X14707Y3784D01*
X14691Y3781D01*
X14677Y3776D01*
X14665Y3772D01*
X14655Y3766D01*
X14648Y3762D01*
X14642Y3758D01*
X14639Y3754D01*
X14638Y3754D01*
X14630Y3744D01*
X14625Y3733D01*
X14620Y3723D01*
X14618Y3713D01*
X14616Y3705D01*
X14615Y3698D01*
Y3694D01*
Y3693D01*
Y3692D01*
X14616Y3679D01*
X14619Y3667D01*
X14622Y3657D01*
X14627Y3648D01*
X14630Y3641D01*
X14634Y3636D01*
X14637Y3633D01*
X14638Y3632D01*
X14647Y3624D01*
X14657Y3619D01*
X14666Y3614D01*
X14675Y3612D01*
X14684Y3610D01*
X14690Y3608D01*
X14695D01*
X14711Y3610D01*
X14724Y3614D01*
X14735Y3619D01*
X14744Y3625D01*
X14751Y3631D01*
X14756Y3636D01*
X14759Y3640D01*
X14760Y3641D01*
X14767Y3654D01*
X14772Y3666D01*
X14776Y3678D01*
X14778Y3689D01*
X14780Y3699D01*
X14780Y3706D01*
Y3709D01*
Y3712D01*
Y3712D01*
Y3713D01*
Y3716D01*
X14780Y3719D01*
Y3722D01*
Y3723D01*
X14835Y3730D01*
X14833Y3721D01*
X14831Y3712D01*
X14830Y3704D01*
X14830Y3698D01*
X14829Y3693D01*
Y3689D01*
Y3687D01*
Y3686D01*
X14830Y3670D01*
X14834Y3657D01*
X14837Y3644D01*
X14843Y3634D01*
X14848Y3626D01*
X14852Y3619D01*
X14855Y3616D01*
X14857Y3615D01*
X14868Y3605D01*
X14880Y3598D01*
X14892Y3593D01*
X14903Y3590D01*
X14913Y3587D01*
X14921Y3587D01*
X14924Y3586D01*
X14928D01*
X14944Y3587D01*
X14959Y3590D01*
X14973Y3595D01*
X14983Y3601D01*
X14993Y3607D01*
X14999Y3612D01*
X15003Y3615D01*
X15005Y3616D01*
X15015Y3628D01*
X15023Y3640D01*
X15027Y3653D01*
X15031Y3665D01*
X15033Y3676D01*
X15034Y3683D01*
X15035Y3687D01*
Y3689D01*
Y3690D01*
Y3691D01*
X15034Y3704D01*
X15031Y3717D01*
X15027Y3728D01*
X15023Y3737D01*
X15019Y3744D01*
X15015Y3750D01*
X15012Y3753D01*
X15012Y3754D01*
X15001Y3763D01*
X14990Y3771D01*
X14976Y3777D01*
X14964Y3782D01*
X14952Y3786D01*
X14943Y3788D01*
X14940Y3790D01*
X14937D01*
X14935Y3790D01*
X14934D01*
X14943Y3854D01*
X14955Y3852D01*
D02*
G37*
%LPC*%
G36*
X10329Y14427D02*
X10212D01*
Y14351D01*
Y14337D01*
X10213Y14324D01*
X10214Y14315D01*
X10215Y14306D01*
X10216Y14301D01*
X10217Y14296D01*
X10218Y14293D01*
Y14293D01*
X10220Y14287D01*
X10223Y14282D01*
X10227Y14277D01*
X10229Y14274D01*
X10233Y14271D01*
X10235Y14268D01*
X10237Y14267D01*
X10238Y14267D01*
X10243Y14264D01*
X10249Y14261D01*
X10255Y14260D01*
X10260Y14258D01*
X10265Y14258D01*
X10268Y14257D01*
X10272D01*
X10279Y14258D01*
X10286Y14259D01*
X10291Y14260D01*
X10296Y14262D01*
X10300Y14264D01*
X10303Y14265D01*
X10305Y14267D01*
X10305Y14267D01*
X10310Y14271D01*
X10314Y14276D01*
X10318Y14281D01*
X10320Y14285D01*
X10322Y14290D01*
X10324Y14293D01*
X10324Y14296D01*
X10325Y14296D01*
X10326Y14303D01*
X10327Y14310D01*
X10328Y14318D01*
X10328Y14326D01*
X10329Y14333D01*
Y14340D01*
Y14341D01*
Y14343D01*
Y14344D01*
Y14345D01*
Y14427D01*
D02*
G37*
G36*
X10506D02*
X10374D01*
Y14339D01*
Y14326D01*
X10375Y14315D01*
X10376Y14305D01*
X10377Y14297D01*
X10378Y14291D01*
X10379Y14286D01*
X10380Y14284D01*
X10380Y14283D01*
X10383Y14276D01*
X10387Y14270D01*
X10390Y14265D01*
X10394Y14261D01*
X10398Y14257D01*
X10400Y14254D01*
X10403Y14253D01*
X10403Y14253D01*
X10409Y14248D01*
X10415Y14246D01*
X10422Y14244D01*
X10428Y14242D01*
X10432Y14241D01*
X10437Y14241D01*
X10440D01*
X10447Y14241D01*
X10453Y14242D01*
X10459Y14243D01*
X10463Y14244D01*
X10468Y14246D01*
X10470Y14247D01*
X10472Y14248D01*
X10473Y14248D01*
X10477Y14251D01*
X10482Y14255D01*
X10486Y14258D01*
X10489Y14261D01*
X10492Y14264D01*
X10493Y14266D01*
X10494Y14268D01*
X10494Y14268D01*
X10499Y14278D01*
X10502Y14287D01*
X10503Y14291D01*
X10504Y14295D01*
X10504Y14297D01*
Y14298D01*
X10505Y14302D01*
X10506Y14307D01*
X10506Y14319D01*
Y14324D01*
Y14328D01*
Y14331D01*
Y14332D01*
Y14427D01*
D02*
G37*
G36*
X10372Y14081D02*
X10365D01*
X10349Y14081D01*
X10335Y14079D01*
X10322Y14078D01*
X10310Y14075D01*
X10298Y14072D01*
X10288Y14069D01*
X10279Y14065D01*
X10271Y14062D01*
X10264Y14058D01*
X10258Y14055D01*
X10253Y14051D01*
X10249Y14048D01*
X10246Y14046D01*
X10243Y14044D01*
X10242Y14043D01*
X10242Y14043D01*
X10235Y14035D01*
X10229Y14027D01*
X10224Y14020D01*
X10220Y14012D01*
X10217Y14004D01*
X10214Y13996D01*
X10209Y13982D01*
X10207Y13975D01*
X10206Y13969D01*
X10205Y13964D01*
X10205Y13959D01*
X10204Y13955D01*
Y13952D01*
Y13951D01*
Y13950D01*
X10205Y13936D01*
X10207Y13923D01*
X10210Y13911D01*
X10214Y13902D01*
X10218Y13893D01*
X10221Y13887D01*
X10222Y13885D01*
X10223Y13883D01*
X10224Y13882D01*
Y13882D01*
X10231Y13871D01*
X10240Y13862D01*
X10249Y13854D01*
X10258Y13847D01*
X10266Y13842D01*
X10272Y13838D01*
X10274Y13837D01*
X10276Y13836D01*
X10277Y13835D01*
X10278D01*
X10291Y13830D01*
X10305Y13826D01*
X10320Y13823D01*
X10332Y13821D01*
X10343Y13820D01*
X10348D01*
X10352Y13819D01*
X10360D01*
X10373Y13820D01*
X10386Y13821D01*
X10398Y13823D01*
X10409Y13825D01*
X10420Y13828D01*
X10429Y13831D01*
X10437Y13834D01*
X10445Y13838D01*
X10452Y13841D01*
X10458Y13845D01*
X10463Y13848D01*
X10467Y13851D01*
X10470Y13853D01*
X10473Y13855D01*
X10474Y13856D01*
X10475Y13856D01*
X10482Y13864D01*
X10487Y13871D01*
X10493Y13879D01*
X10497Y13887D01*
X10501Y13895D01*
X10504Y13903D01*
X10509Y13917D01*
X10511Y13924D01*
X10512Y13931D01*
X10513Y13936D01*
X10514Y13941D01*
X10514Y13945D01*
Y13948D01*
Y13950D01*
Y13951D01*
X10514Y13961D01*
X10513Y13971D01*
X10511Y13980D01*
X10508Y13989D01*
X10505Y13997D01*
X10501Y14005D01*
X10498Y14012D01*
X10494Y14019D01*
X10491Y14024D01*
X10487Y14030D01*
X10484Y14034D01*
X10481Y14037D01*
X10478Y14040D01*
X10476Y14043D01*
X10475Y14044D01*
X10475Y14044D01*
X10467Y14051D01*
X10458Y14057D01*
X10449Y14061D01*
X10441Y14065D01*
X10431Y14069D01*
X10422Y14072D01*
X10405Y14076D01*
X10397Y14078D01*
X10389Y14079D01*
X10383Y14080D01*
X10377Y14081D01*
X10372Y14081D01*
D02*
G37*
G36*
X10393Y13633D02*
X10281Y13591D01*
X10267Y13586D01*
X10254Y13582D01*
X10242Y13579D01*
X10230Y13576D01*
X10221Y13573D01*
X10217Y13572D01*
X10213Y13571D01*
X10210Y13570D01*
X10208D01*
X10207Y13570D01*
X10207D01*
X10219Y13566D01*
X10233Y13562D01*
X10246Y13557D01*
X10259Y13552D01*
X10270Y13549D01*
X10275Y13547D01*
X10279Y13545D01*
X10283Y13544D01*
X10285Y13543D01*
X10287Y13542D01*
X10287D01*
X10393Y13503D01*
Y13633D01*
D02*
G37*
G36*
X10336Y13291D02*
X10210D01*
Y13170D01*
X10210Y13155D01*
X10212Y13142D01*
X10215Y13132D01*
X10218Y13123D01*
X10221Y13116D01*
X10224Y13111D01*
X10227Y13109D01*
X10227Y13108D01*
X10234Y13101D01*
X10242Y13096D01*
X10249Y13092D01*
X10256Y13090D01*
X10263Y13089D01*
X10267Y13088D01*
X10272D01*
X10279Y13088D01*
X10286Y13090D01*
X10291Y13091D01*
X10296Y13093D01*
X10301Y13095D01*
X10304Y13097D01*
X10306Y13098D01*
X10307Y13098D01*
X10312Y13102D01*
X10317Y13107D01*
X10321Y13112D01*
X10324Y13117D01*
X10327Y13121D01*
X10328Y13125D01*
X10329Y13127D01*
X10329Y13128D01*
X10332Y13136D01*
X10334Y13145D01*
X10335Y13154D01*
X10335Y13163D01*
X10336Y13170D01*
X10336Y13177D01*
Y13179D01*
Y13181D01*
Y13182D01*
Y13183D01*
Y13291D01*
D02*
G37*
G36*
X10874Y13242D02*
X10867D01*
X10851Y13241D01*
X10837Y13240D01*
X10824Y13238D01*
X10812Y13236D01*
X10800Y13233D01*
X10790Y13229D01*
X10781Y13226D01*
X10773Y13222D01*
X10766Y13219D01*
X10760Y13215D01*
X10755Y13212D01*
X10751Y13209D01*
X10748Y13207D01*
X10745Y13205D01*
X10744Y13204D01*
X10744Y13203D01*
X10737Y13196D01*
X10731Y13188D01*
X10726Y13180D01*
X10722Y13172D01*
X10719Y13165D01*
X10716Y13157D01*
X10711Y13142D01*
X10709Y13136D01*
X10708Y13130D01*
X10707Y13124D01*
X10707Y13119D01*
X10706Y13116D01*
Y13113D01*
Y13111D01*
Y13111D01*
X10707Y13097D01*
X10709Y13084D01*
X10712Y13072D01*
X10716Y13062D01*
X10720Y13054D01*
X10723Y13048D01*
X10724Y13045D01*
X10725Y13043D01*
X10726Y13043D01*
Y13042D01*
X10733Y13032D01*
X10742Y13022D01*
X10751Y13014D01*
X10760Y13008D01*
X10768Y13002D01*
X10774Y12999D01*
X10776Y12998D01*
X10778Y12997D01*
X10779Y12996D01*
X10780D01*
X10793Y12991D01*
X10807Y12987D01*
X10821Y12984D01*
X10834Y12981D01*
X10845Y12980D01*
X10850D01*
X10854Y12980D01*
X10862D01*
X10875Y12980D01*
X10888Y12981D01*
X10900Y12983D01*
X10911Y12986D01*
X10922Y12988D01*
X10931Y12991D01*
X10939Y12995D01*
X10947Y12998D01*
X10954Y13002D01*
X10960Y13005D01*
X10965Y13008D01*
X10969Y13011D01*
X10972Y13014D01*
X10975Y13015D01*
X10976Y13017D01*
X10977Y13017D01*
X10984Y13024D01*
X10989Y13032D01*
X10995Y13039D01*
X10999Y13048D01*
X11003Y13055D01*
X11006Y13063D01*
X11011Y13078D01*
X11013Y13085D01*
X11014Y13091D01*
X11015Y13097D01*
X11016Y13102D01*
X11016Y13106D01*
Y13109D01*
Y13111D01*
Y13111D01*
X11016Y13122D01*
X11015Y13131D01*
X11013Y13141D01*
X11010Y13149D01*
X11007Y13158D01*
X11003Y13166D01*
X11000Y13173D01*
X10996Y13179D01*
X10993Y13185D01*
X10989Y13190D01*
X10986Y13194D01*
X10983Y13198D01*
X10980Y13201D01*
X10978Y13203D01*
X10977Y13204D01*
X10977Y13205D01*
X10969Y13211D01*
X10960Y13217D01*
X10951Y13222D01*
X10943Y13226D01*
X10933Y13229D01*
X10924Y13233D01*
X10907Y13237D01*
X10899Y13239D01*
X10891Y13240D01*
X10885Y13241D01*
X10879Y13241D01*
X10874Y13242D01*
D02*
G37*
G36*
X10506Y12905D02*
X10212D01*
Y12825D01*
X10212Y12809D01*
X10213Y12795D01*
X10214Y12784D01*
X10216Y12775D01*
X10218Y12768D01*
X10219Y12763D01*
X10219Y12760D01*
X10220Y12759D01*
X10225Y12749D01*
X10232Y12740D01*
X10239Y12732D01*
X10246Y12725D01*
X10253Y12719D01*
X10259Y12715D01*
X10261Y12713D01*
X10263Y12712D01*
X10263Y12711D01*
X10264D01*
X10270Y12708D01*
X10277Y12705D01*
X10292Y12699D01*
X10307Y12696D01*
X10322Y12694D01*
X10329Y12693D01*
X10335Y12692D01*
X10341Y12692D01*
X10346Y12691D01*
X10356D01*
X10372Y12692D01*
X10386Y12693D01*
X10399Y12695D01*
X10410Y12696D01*
X10419Y12698D01*
X10422Y12699D01*
X10425Y12700D01*
X10428Y12701D01*
X10430Y12701D01*
X10430Y12702D01*
X10431D01*
X10441Y12706D01*
X10451Y12710D01*
X10459Y12715D01*
X10466Y12719D01*
X10472Y12723D01*
X10476Y12727D01*
X10479Y12729D01*
X10479Y12730D01*
X10484Y12735D01*
X10488Y12740D01*
X10491Y12746D01*
X10494Y12752D01*
X10496Y12757D01*
X10498Y12761D01*
X10499Y12763D01*
X10499Y12764D01*
X10501Y12773D01*
X10503Y12782D01*
X10504Y12792D01*
X10505Y12802D01*
X10506Y12811D01*
X10506Y12817D01*
Y12820D01*
Y12822D01*
Y12823D01*
Y12823D01*
Y12905D01*
D02*
G37*
G36*
X14809Y9853D02*
X14626D01*
Y9723D01*
Y9707D01*
X14627Y9693D01*
X14627Y9682D01*
X14628Y9674D01*
X14629Y9667D01*
X14630Y9663D01*
X14630Y9660D01*
Y9660D01*
X14634Y9650D01*
X14638Y9642D01*
X14644Y9635D01*
X14648Y9628D01*
X14653Y9623D01*
X14657Y9620D01*
X14660Y9617D01*
X14661Y9617D01*
X14670Y9611D01*
X14679Y9607D01*
X14688Y9604D01*
X14697Y9603D01*
X14705Y9601D01*
X14711Y9600D01*
X14716D01*
X14732Y9602D01*
X14746Y9605D01*
X14758Y9609D01*
X14767Y9614D01*
X14775Y9620D01*
X14780Y9624D01*
X14784Y9627D01*
X14785Y9628D01*
X14789Y9634D01*
X14793Y9640D01*
X14799Y9654D01*
X14803Y9670D01*
X14806Y9685D01*
X14808Y9699D01*
X14809Y9705D01*
Y9710D01*
X14809Y9715D01*
Y9718D01*
Y9721D01*
Y9721D01*
Y9853D01*
D02*
G37*
G36*
X14782Y8861D02*
X14626D01*
Y8760D01*
Y8740D01*
X14627Y8724D01*
X14628Y8711D01*
X14630Y8700D01*
X14631Y8692D01*
X14632Y8687D01*
X14634Y8683D01*
Y8682D01*
X14637Y8674D01*
X14641Y8667D01*
X14645Y8661D01*
X14649Y8656D01*
X14654Y8652D01*
X14657Y8649D01*
X14659Y8647D01*
X14660Y8647D01*
X14668Y8643D01*
X14676Y8640D01*
X14683Y8637D01*
X14690Y8636D01*
X14696Y8635D01*
X14701Y8634D01*
X14705D01*
X14716Y8635D01*
X14724Y8637D01*
X14732Y8638D01*
X14738Y8640D01*
X14744Y8644D01*
X14748Y8645D01*
X14750Y8647D01*
X14751Y8647D01*
X14757Y8653D01*
X14762Y8659D01*
X14767Y8665D01*
X14770Y8672D01*
X14773Y8678D01*
X14775Y8683D01*
X14776Y8686D01*
X14776Y8687D01*
X14778Y8695D01*
X14780Y8704D01*
X14780Y8715D01*
X14781Y8726D01*
X14782Y8736D01*
Y8744D01*
Y8747D01*
Y8749D01*
Y8751D01*
Y8751D01*
Y8861D01*
D02*
G37*
G36*
X15019D02*
X14842D01*
Y8744D01*
Y8726D01*
X14844Y8711D01*
X14844Y8698D01*
X14846Y8687D01*
X14848Y8679D01*
X14849Y8673D01*
X14850Y8670D01*
X14851Y8669D01*
X14855Y8659D01*
X14859Y8651D01*
X14864Y8644D01*
X14869Y8639D01*
X14874Y8634D01*
X14877Y8630D01*
X14880Y8629D01*
X14881Y8628D01*
X14889Y8622D01*
X14898Y8619D01*
X14906Y8616D01*
X14914Y8614D01*
X14920Y8613D01*
X14926Y8612D01*
X14930D01*
X14940Y8613D01*
X14948Y8614D01*
X14955Y8615D01*
X14962Y8617D01*
X14967Y8619D01*
X14971Y8621D01*
X14973Y8622D01*
X14974Y8622D01*
X14980Y8626D01*
X14987Y8631D01*
X14991Y8635D01*
X14995Y8640D01*
X14999Y8644D01*
X15001Y8646D01*
X15002Y8648D01*
X15003Y8649D01*
X15009Y8662D01*
X15013Y8674D01*
X15015Y8679D01*
X15015Y8684D01*
X15016Y8687D01*
Y8688D01*
X15017Y8694D01*
X15018Y8701D01*
X15019Y8716D01*
Y8723D01*
Y8729D01*
Y8733D01*
Y8734D01*
Y8861D01*
D02*
G37*
G36*
X14898Y8433D02*
X14669Y8273D01*
X14898D01*
Y8433D01*
D02*
G37*
G36*
X14837Y7613D02*
X14803D01*
X14782Y7611D01*
X14763Y7610D01*
X14746Y7608D01*
X14730Y7605D01*
X14716Y7602D01*
X14703Y7599D01*
X14692Y7596D01*
X14683Y7594D01*
X14674Y7591D01*
X14668Y7588D01*
X14662Y7585D01*
X14659Y7584D01*
X14655Y7582D01*
X14654Y7581D01*
X14653D01*
X14647Y7576D01*
X14641Y7570D01*
X14631Y7559D01*
X14625Y7547D01*
X14620Y7536D01*
X14617Y7526D01*
X14616Y7518D01*
X14616Y7515D01*
Y7513D01*
Y7512D01*
Y7511D01*
X14616Y7503D01*
X14617Y7495D01*
X14622Y7481D01*
X14629Y7469D01*
X14637Y7458D01*
X14645Y7449D01*
X14652Y7443D01*
X14656Y7439D01*
X14657Y7438D01*
X14658D01*
X14666Y7432D01*
X14677Y7428D01*
X14688Y7424D01*
X14702Y7420D01*
X14729Y7415D01*
X14757Y7412D01*
X14771Y7410D01*
X14784Y7410D01*
X14795Y7409D01*
X14805D01*
X14814Y7408D01*
X14848D01*
X14869Y7410D01*
X14888Y7410D01*
X14905Y7413D01*
X14921Y7415D01*
X14935Y7417D01*
X14947Y7420D01*
X14958Y7423D01*
X14966Y7426D01*
X14974Y7428D01*
X14981Y7431D01*
X14986Y7433D01*
X14990Y7435D01*
X14992Y7436D01*
X14994Y7438D01*
X14994D01*
X15001Y7443D01*
X15008Y7449D01*
X15014Y7456D01*
X15019Y7462D01*
X15026Y7474D01*
X15030Y7485D01*
X15033Y7495D01*
X15035Y7503D01*
X15036Y7506D01*
Y7509D01*
Y7510D01*
Y7510D01*
X15035Y7518D01*
X15034Y7526D01*
X15030Y7540D01*
X15023Y7552D01*
X15015Y7563D01*
X15008Y7572D01*
X15001Y7578D01*
X14996Y7582D01*
X14995Y7584D01*
X14994D01*
X14986Y7588D01*
X14975Y7593D01*
X14963Y7597D01*
X14951Y7600D01*
X14923Y7606D01*
X14894Y7609D01*
X14881Y7610D01*
X14868Y7611D01*
X14856Y7612D01*
X14846D01*
X14837Y7613D01*
D02*
G37*
G36*
X14868Y6764D02*
X14718Y6708D01*
X14700Y6702D01*
X14682Y6697D01*
X14666Y6692D01*
X14650Y6688D01*
X14637Y6685D01*
X14632Y6683D01*
X14627Y6682D01*
X14623Y6681D01*
X14621D01*
X14620Y6680D01*
X14619D01*
X14636Y6675D01*
X14654Y6669D01*
X14672Y6663D01*
X14689Y6657D01*
X14704Y6652D01*
X14710Y6650D01*
X14716Y6647D01*
X14720Y6646D01*
X14723Y6644D01*
X14726Y6643D01*
X14727D01*
X14868Y6590D01*
Y6764D01*
D02*
G37*
G36*
X14792Y6109D02*
X14623D01*
Y5948D01*
X14623Y5927D01*
X14627Y5910D01*
X14630Y5896D01*
X14634Y5884D01*
X14638Y5876D01*
X14642Y5869D01*
X14645Y5866D01*
X14646Y5864D01*
X14655Y5855D01*
X14666Y5848D01*
X14676Y5844D01*
X14685Y5841D01*
X14694Y5839D01*
X14700Y5837D01*
X14706D01*
X14716Y5838D01*
X14724Y5840D01*
X14732Y5842D01*
X14738Y5844D01*
X14744Y5847D01*
X14748Y5849D01*
X14751Y5851D01*
X14752Y5851D01*
X14759Y5857D01*
X14766Y5863D01*
X14771Y5870D01*
X14776Y5876D01*
X14779Y5882D01*
X14781Y5887D01*
X14782Y5890D01*
X14783Y5891D01*
X14786Y5901D01*
X14788Y5913D01*
X14790Y5926D01*
X14791Y5937D01*
X14791Y5948D01*
X14792Y5956D01*
Y5959D01*
Y5962D01*
Y5963D01*
Y5964D01*
Y6109D01*
D02*
G37*
G36*
X14858Y5622D02*
X14841Y5620D01*
X14825Y5616D01*
X14812Y5610D01*
X14801Y5605D01*
X14791Y5599D01*
X14785Y5595D01*
X14781Y5591D01*
X14780Y5590D01*
X14769Y5578D01*
X14762Y5566D01*
X14757Y5554D01*
X14754Y5542D01*
X14751Y5532D01*
X14751Y5523D01*
X14750Y5520D01*
Y5518D01*
Y5517D01*
Y5516D01*
X14751Y5508D01*
X14751Y5499D01*
X14755Y5484D01*
X14762Y5471D01*
X14769Y5459D01*
X14776Y5451D01*
X14781Y5444D01*
X14786Y5440D01*
X14787Y5438D01*
X14787D01*
X14797Y5431D01*
X14809Y5427D01*
X14820Y5422D01*
X14831Y5419D01*
X14841Y5416D01*
X14850Y5415D01*
X14853D01*
X14855Y5414D01*
X14858D01*
Y5622D01*
D02*
G37*
G36*
X14868Y4614D02*
X14718Y4558D01*
X14700Y4552D01*
X14682Y4546D01*
X14666Y4542D01*
X14650Y4538D01*
X14637Y4535D01*
X14632Y4533D01*
X14627Y4532D01*
X14623Y4531D01*
X14621D01*
X14620Y4530D01*
X14619D01*
X14636Y4525D01*
X14654Y4519D01*
X14672Y4513D01*
X14689Y4507D01*
X14704Y4502D01*
X14710Y4500D01*
X14716Y4497D01*
X14720Y4496D01*
X14723Y4494D01*
X14726Y4493D01*
X14727D01*
X14868Y4440D01*
Y4614D01*
D02*
G37*
G36*
X14837Y4188D02*
X14803D01*
X14782Y4186D01*
X14763Y4185D01*
X14746Y4183D01*
X14730Y4180D01*
X14716Y4178D01*
X14703Y4175D01*
X14692Y4172D01*
X14683Y4169D01*
X14674Y4166D01*
X14668Y4163D01*
X14662Y4161D01*
X14659Y4159D01*
X14655Y4157D01*
X14654Y4156D01*
X14653D01*
X14647Y4151D01*
X14641Y4146D01*
X14631Y4134D01*
X14625Y4122D01*
X14620Y4111D01*
X14617Y4101D01*
X14616Y4093D01*
X14616Y4090D01*
Y4088D01*
Y4087D01*
Y4086D01*
X14616Y4079D01*
X14617Y4071D01*
X14622Y4057D01*
X14629Y4044D01*
X14637Y4033D01*
X14645Y4025D01*
X14652Y4018D01*
X14656Y4015D01*
X14657Y4013D01*
X14658D01*
X14666Y4008D01*
X14677Y4003D01*
X14688Y3999D01*
X14702Y3996D01*
X14729Y3990D01*
X14757Y3987D01*
X14771Y3986D01*
X14784Y3985D01*
X14795Y3984D01*
X14805D01*
X14814Y3983D01*
X14848D01*
X14869Y3985D01*
X14888Y3986D01*
X14905Y3988D01*
X14921Y3990D01*
X14935Y3993D01*
X14947Y3995D01*
X14958Y3998D01*
X14966Y4001D01*
X14974Y4004D01*
X14981Y4006D01*
X14986Y4008D01*
X14990Y4010D01*
X14992Y4011D01*
X14994Y4013D01*
X14994D01*
X15001Y4018D01*
X15008Y4025D01*
X15014Y4031D01*
X15019Y4037D01*
X15026Y4049D01*
X15030Y4061D01*
X15033Y4071D01*
X15035Y4079D01*
X15036Y4082D01*
Y4084D01*
Y4085D01*
Y4086D01*
X15035Y4093D01*
X15034Y4101D01*
X15030Y4115D01*
X15023Y4128D01*
X15015Y4139D01*
X15008Y4147D01*
X15001Y4154D01*
X14996Y4157D01*
X14995Y4159D01*
X14994D01*
X14986Y4164D01*
X14975Y4168D01*
X14963Y4172D01*
X14951Y4175D01*
X14923Y4181D01*
X14894Y4184D01*
X14881Y4186D01*
X14868Y4186D01*
X14856Y4187D01*
X14846D01*
X14837Y4188D01*
D02*
G37*
%LPD*%
D10*
X2503Y12449D02*
X2896D01*
X2503D02*
Y12843D01*
X2503Y14269D02*
Y14663D01*
X2503D02*
X2896D01*
X9983Y14220D02*
Y14614D01*
X9589D02*
X9983D01*
X9589Y12451D02*
X9980D01*
Y12854D01*
M02*
