G04 Layer_Color=8388736*
%FSLAX24Y24*%
%MOIN*%
G70*
G01*
G75*
%ADD36C,0.0394*%
G04:AMPARAMS|DCode=37|XSize=27.6mil|YSize=27.6mil|CornerRadius=4.4mil|HoleSize=0mil|Usage=FLASHONLY|Rotation=270.000|XOffset=0mil|YOffset=0mil|HoleType=Round|Shape=RoundedRectangle|*
%AMROUNDEDRECTD37*
21,1,0.0276,0.0189,0,0,270.0*
21,1,0.0189,0.0276,0,0,270.0*
1,1,0.0087,-0.0094,-0.0094*
1,1,0.0087,-0.0094,0.0094*
1,1,0.0087,0.0094,0.0094*
1,1,0.0087,0.0094,-0.0094*
%
%ADD37ROUNDEDRECTD37*%
%ADD38C,0.0123*%
G04:AMPARAMS|DCode=39|XSize=45.3mil|YSize=92.6mil|CornerRadius=6.1mil|HoleSize=0mil|Usage=FLASHONLY|Rotation=90.000|XOffset=0mil|YOffset=0mil|HoleType=Round|Shape=RoundedRectangle|*
%AMROUNDEDRECTD39*
21,1,0.0453,0.0803,0,0,90.0*
21,1,0.0331,0.0926,0,0,90.0*
1,1,0.0123,0.0402,0.0165*
1,1,0.0123,0.0402,-0.0165*
1,1,0.0123,-0.0402,-0.0165*
1,1,0.0123,-0.0402,0.0165*
%
%ADD39ROUNDEDRECTD39*%
G04:AMPARAMS|DCode=40|XSize=45.3mil|YSize=47.3mil|CornerRadius=6.1mil|HoleSize=0mil|Usage=FLASHONLY|Rotation=90.000|XOffset=0mil|YOffset=0mil|HoleType=Round|Shape=RoundedRectangle|*
%AMROUNDEDRECTD40*
21,1,0.0453,0.0350,0,0,90.0*
21,1,0.0331,0.0473,0,0,90.0*
1,1,0.0123,0.0175,0.0165*
1,1,0.0123,0.0175,-0.0165*
1,1,0.0123,-0.0175,-0.0165*
1,1,0.0123,-0.0175,0.0165*
%
%ADD40ROUNDEDRECTD40*%
G04:AMPARAMS|DCode=41|XSize=23.7mil|YSize=27.6mil|CornerRadius=4mil|HoleSize=0mil|Usage=FLASHONLY|Rotation=0.000|XOffset=0mil|YOffset=0mil|HoleType=Round|Shape=RoundedRectangle|*
%AMROUNDEDRECTD41*
21,1,0.0237,0.0197,0,0,0.0*
21,1,0.0157,0.0276,0,0,0.0*
1,1,0.0079,0.0079,-0.0098*
1,1,0.0079,-0.0079,-0.0098*
1,1,0.0079,-0.0079,0.0098*
1,1,0.0079,0.0079,0.0098*
%
%ADD41ROUNDEDRECTD41*%
%ADD42R,0.0248X0.0248*%
%ADD43R,0.0209X0.0091*%
%ADD44R,0.0091X0.0209*%
D36*
X15212Y-3D02*
G03*
X15747Y532I-4J539D01*
G01*
X0Y521D02*
G03*
X524Y-3I533J9D01*
G01*
X512Y14764D02*
G03*
X1Y14253I4J-514D01*
G01*
X15748Y14262D02*
G03*
X15245Y14764I-512J-9D01*
G01*
X472Y0D02*
X15157D01*
X15748Y536D02*
Y14291D01*
X-0Y531D02*
X0Y14213D01*
X571Y14761D02*
X15276Y14761D01*
D37*
X7461Y14439D02*
D03*
X7106D02*
D03*
X7815D02*
D03*
X7461D02*
D03*
D38*
X8966Y11428D02*
D03*
Y11152D02*
D03*
X8809Y11428D02*
D03*
X8887Y11290D02*
D03*
X8809Y11152D02*
D03*
X8651Y11428D02*
D03*
X8730Y11290D02*
D03*
X8651Y11152D02*
D03*
D39*
X3229Y13139D02*
D03*
Y14321D02*
D03*
D40*
X3858Y13730D02*
D03*
D41*
X9439Y11073D02*
D03*
Y11427D02*
D03*
D42*
X8957Y12923D02*
D03*
X8563D02*
D03*
Y14075D02*
D03*
X8957D02*
D03*
X7480Y12598D02*
D03*
Y13386D02*
D03*
D43*
X8140Y13780D02*
D03*
Y13622D02*
D03*
Y13465D02*
D03*
Y13307D02*
D03*
Y13150D02*
D03*
Y12992D02*
D03*
Y12835D02*
D03*
X9016Y12677D02*
D03*
Y12520D02*
D03*
Y12362D02*
D03*
Y12205D02*
D03*
Y12047D02*
D03*
X6732D02*
D03*
Y12205D02*
D03*
Y12362D02*
D03*
Y12520D02*
D03*
Y12677D02*
D03*
Y12835D02*
D03*
Y12992D02*
D03*
Y13150D02*
D03*
Y13307D02*
D03*
Y13465D02*
D03*
Y13622D02*
D03*
Y13780D02*
D03*
Y13937D02*
D03*
D44*
X8346Y12628D02*
D03*
X8504D02*
D03*
X8661D02*
D03*
X8819Y11850D02*
D03*
X8661D02*
D03*
X8504D02*
D03*
X8346D02*
D03*
X8189D02*
D03*
X8031D02*
D03*
X7874D02*
D03*
X7717D02*
D03*
X7559D02*
D03*
X7402D02*
D03*
X7244D02*
D03*
X7087D02*
D03*
X6929D02*
D03*
Y14134D02*
D03*
X7087D02*
D03*
X7244D02*
D03*
X7402D02*
D03*
X7559D02*
D03*
X7717D02*
D03*
X7874D02*
D03*
X8031D02*
D03*
X8189D02*
D03*
M02*
