M48
;GenerationSoftware,Autodesk,EAGLE,8.6.3*%
;CreationDate,2018-03-03T20:44:33Z*%
FMAT,2
ICI,OFF
INCH,TZ,00.0000
T2C0.0150
T1C0.0400
%
G90
M72
T1
X5000Y500
X4000Y500
X3000Y500
X2000Y500
X1000Y500
T2
X4125Y2625
X3750Y3375
X4750Y4250
X1000Y5500
X3250Y4000
X2665Y1525
X5375Y1000
X4500Y2125
X3000Y3000
X500Y1250
X2750Y6500
X5500Y5875
X4750Y5375
X750Y5000
X2925Y4935
X1375Y3000
X500Y4000
X3125Y5845
X3375Y4875
X5140Y4750
X3250Y1625
X875Y4375
X3750Y3875
X4625Y3000
X2375Y5250
X2375Y3375
M30