G04 EAGLE Gerber X2 export*
%TF.Part,Single*%
%TF.FileFunction,Paste,Top*%
%TF.FilePolarity,Positive*%
%TF.GenerationSoftware,Autodesk,EAGLE,8.6.3*%
%TF.CreationDate,2018-03-03T20:44:34Z*%
G75*
%MOIN*%
%FSLAX36Y36*%
%LPD*%
%AMOC8*
5,1,8,0,0,1.08239X$1,22.5*%
G01*
%ADD10R,0.039370X0.043307*%
%ADD11R,0.039000X0.012000*%

G36*
X310003Y190927D02*
X310003Y190927D01*
X310240Y190953D01*
X310317Y191004D01*
X310407Y191026D01*
X310586Y191183D01*
X310784Y191315D01*
X310829Y191396D01*
X310899Y191457D01*
X310986Y191679D01*
X311101Y191887D01*
X311118Y192018D01*
X311137Y192066D01*
X311131Y192117D01*
X311149Y192248D01*
X311149Y238311D01*
X311092Y238542D01*
X311067Y238779D01*
X311016Y238856D01*
X310994Y238946D01*
X310837Y239126D01*
X310705Y239324D01*
X310624Y239368D01*
X310563Y239438D01*
X310341Y239525D01*
X310133Y239640D01*
X310002Y239657D01*
X309954Y239676D01*
X309903Y239671D01*
X309772Y239688D01*
X288512Y239688D01*
X288281Y239632D01*
X288044Y239606D01*
X287967Y239555D01*
X287877Y239533D01*
X287697Y239376D01*
X287499Y239244D01*
X287454Y239164D01*
X287385Y239102D01*
X287298Y238880D01*
X287183Y238672D01*
X287165Y238541D01*
X287147Y238493D01*
X287152Y238442D01*
X287135Y238311D01*
X287135Y192248D01*
X287191Y192017D01*
X287217Y191780D01*
X287268Y191703D01*
X287290Y191613D01*
X287447Y191433D01*
X287578Y191235D01*
X287659Y191191D01*
X287720Y191121D01*
X287943Y191034D01*
X288151Y190919D01*
X288282Y190902D01*
X288330Y190883D01*
X288381Y190888D01*
X288512Y190871D01*
X309772Y190871D01*
X310003Y190927D01*
G37*
G36*
X332838Y235556D02*
X332838Y235556D01*
X342055Y235556D01*
X342102Y235567D01*
X342346Y235587D01*
X343431Y235821D01*
X343462Y235836D01*
X343496Y235837D01*
X343833Y235977D01*
X344793Y236535D01*
X344817Y236559D01*
X344850Y236570D01*
X345127Y236807D01*
X345867Y237635D01*
X345883Y237665D01*
X345910Y237686D01*
X346100Y237997D01*
X346549Y239012D01*
X346555Y239046D01*
X346575Y239075D01*
X346659Y239429D01*
X346772Y240534D01*
X346770Y240544D01*
X346762Y240889D01*
X346598Y241923D01*
X346585Y241954D01*
X346586Y241989D01*
X346465Y242333D01*
X345990Y243266D01*
X345967Y243292D01*
X345958Y243325D01*
X345736Y243614D01*
X344996Y244354D01*
X344967Y244372D01*
X344947Y244401D01*
X344647Y244608D01*
X343714Y245083D01*
X343681Y245091D01*
X343654Y245112D01*
X343305Y245216D01*
X342271Y245380D01*
X342216Y245375D01*
X342055Y245397D01*
X331425Y245397D01*
X331387Y245388D01*
X331301Y245391D01*
X330379Y245308D01*
X330346Y245297D01*
X330312Y245300D01*
X329961Y245202D01*
X329110Y244837D01*
X329082Y244817D01*
X329049Y244810D01*
X328745Y244608D01*
X328048Y243998D01*
X328029Y243970D01*
X327999Y243953D01*
X327772Y243667D01*
X327298Y242872D01*
X327288Y242839D01*
X327265Y242814D01*
X327138Y242472D01*
X326933Y241569D01*
X326933Y241526D01*
X326898Y241264D01*
X326898Y239886D01*
X326915Y239818D01*
X326905Y239749D01*
X326989Y239395D01*
X327415Y238277D01*
X327435Y238249D01*
X327441Y238215D01*
X327630Y237904D01*
X328381Y236973D01*
X328408Y236952D01*
X328424Y236922D01*
X328700Y236684D01*
X329702Y236031D01*
X329734Y236020D01*
X329759Y235996D01*
X330095Y235855D01*
X331250Y235543D01*
X331284Y235542D01*
X331315Y235527D01*
X331678Y235497D01*
X332838Y235556D01*
G37*
G36*
X258035Y235556D02*
X258035Y235556D01*
X267252Y235556D01*
X267299Y235567D01*
X267543Y235587D01*
X268628Y235821D01*
X268659Y235836D01*
X268693Y235837D01*
X269030Y235977D01*
X269989Y236535D01*
X270014Y236559D01*
X270047Y236570D01*
X270323Y236807D01*
X271064Y237635D01*
X271080Y237665D01*
X271107Y237686D01*
X271297Y237997D01*
X271746Y239012D01*
X271752Y239046D01*
X271771Y239075D01*
X271856Y239429D01*
X271969Y240534D01*
X271967Y240544D01*
X271959Y240889D01*
X271795Y241923D01*
X271782Y241954D01*
X271783Y241989D01*
X271662Y242333D01*
X271186Y243266D01*
X271164Y243292D01*
X271154Y243325D01*
X270933Y243614D01*
X270193Y244354D01*
X270164Y244372D01*
X270144Y244401D01*
X269844Y244608D01*
X268911Y245083D01*
X268878Y245091D01*
X268851Y245112D01*
X268501Y245216D01*
X267467Y245380D01*
X267413Y245375D01*
X267252Y245397D01*
X256622Y245397D01*
X256584Y245388D01*
X256498Y245391D01*
X255576Y245308D01*
X255543Y245297D01*
X255509Y245300D01*
X255158Y245202D01*
X254307Y244837D01*
X254279Y244817D01*
X254246Y244810D01*
X253942Y244608D01*
X253245Y243998D01*
X253226Y243970D01*
X253196Y243953D01*
X252969Y243667D01*
X252495Y242872D01*
X252485Y242839D01*
X252462Y242814D01*
X252335Y242472D01*
X252130Y241569D01*
X252130Y241526D01*
X252095Y241264D01*
X252095Y239886D01*
X252112Y239818D01*
X252102Y239749D01*
X252186Y239395D01*
X252612Y238277D01*
X252632Y238249D01*
X252638Y238215D01*
X252827Y237904D01*
X253578Y236973D01*
X253605Y236952D01*
X253621Y236922D01*
X253897Y236684D01*
X254899Y236031D01*
X254931Y236020D01*
X254956Y235996D01*
X255292Y235855D01*
X256447Y235543D01*
X256481Y235542D01*
X256512Y235527D01*
X256875Y235497D01*
X258035Y235556D01*
G37*
G36*
X258035Y209965D02*
X258035Y209965D01*
X267252Y209965D01*
X267299Y209977D01*
X267543Y209996D01*
X268628Y210231D01*
X268659Y210246D01*
X268693Y210246D01*
X269030Y210386D01*
X269989Y210944D01*
X270014Y210968D01*
X270047Y210980D01*
X270323Y211217D01*
X271064Y212044D01*
X271080Y212074D01*
X271107Y212095D01*
X271297Y212406D01*
X271746Y213422D01*
X271752Y213456D01*
X271771Y213484D01*
X271856Y213838D01*
X271969Y214943D01*
X271967Y214954D01*
X271959Y215298D01*
X271795Y216332D01*
X271782Y216364D01*
X271783Y216398D01*
X271662Y216742D01*
X271186Y217675D01*
X271164Y217701D01*
X271154Y217734D01*
X270933Y218023D01*
X270193Y218764D01*
X270164Y218781D01*
X270144Y218810D01*
X269844Y219017D01*
X268911Y219492D01*
X268878Y219500D01*
X268851Y219522D01*
X268501Y219626D01*
X267467Y219789D01*
X267413Y219785D01*
X267252Y219806D01*
X256622Y219806D01*
X256584Y219797D01*
X256498Y219801D01*
X255576Y219717D01*
X255543Y219706D01*
X255509Y219709D01*
X255158Y219611D01*
X254307Y219247D01*
X254279Y219226D01*
X254246Y219219D01*
X253942Y219017D01*
X253245Y218408D01*
X253226Y218380D01*
X253196Y218362D01*
X252969Y218077D01*
X252495Y217281D01*
X252485Y217249D01*
X252462Y217223D01*
X252335Y216882D01*
X252130Y215979D01*
X252130Y215936D01*
X252095Y215673D01*
X252095Y214295D01*
X252112Y214228D01*
X252102Y214159D01*
X252186Y213804D01*
X252612Y212687D01*
X252632Y212659D01*
X252638Y212625D01*
X252827Y212313D01*
X253578Y211383D01*
X253605Y211362D01*
X253621Y211331D01*
X253897Y211094D01*
X254899Y210440D01*
X254931Y210429D01*
X254956Y210405D01*
X255292Y210264D01*
X256447Y209953D01*
X256481Y209952D01*
X256512Y209937D01*
X256875Y209907D01*
X258035Y209965D01*
G37*
G36*
X332838Y209965D02*
X332838Y209965D01*
X342055Y209965D01*
X342102Y209977D01*
X342346Y209996D01*
X343431Y210231D01*
X343462Y210246D01*
X343496Y210246D01*
X343833Y210386D01*
X344793Y210944D01*
X344817Y210968D01*
X344850Y210980D01*
X345127Y211217D01*
X345867Y212044D01*
X345883Y212074D01*
X345910Y212095D01*
X346100Y212406D01*
X346549Y213422D01*
X346555Y213456D01*
X346575Y213484D01*
X346659Y213838D01*
X346772Y214943D01*
X346770Y214954D01*
X346762Y215298D01*
X346598Y216332D01*
X346585Y216364D01*
X346586Y216398D01*
X346465Y216742D01*
X345990Y217675D01*
X345967Y217701D01*
X345958Y217734D01*
X345736Y218023D01*
X344996Y218764D01*
X344967Y218781D01*
X344947Y218810D01*
X344647Y219017D01*
X343714Y219492D01*
X343681Y219500D01*
X343654Y219522D01*
X343305Y219626D01*
X342271Y219789D01*
X342216Y219785D01*
X342055Y219806D01*
X331425Y219806D01*
X331387Y219797D01*
X331301Y219801D01*
X330379Y219717D01*
X330346Y219706D01*
X330312Y219709D01*
X329961Y219611D01*
X329110Y219247D01*
X329082Y219226D01*
X329049Y219219D01*
X328745Y219017D01*
X328048Y218408D01*
X328029Y218380D01*
X327999Y218362D01*
X327772Y218077D01*
X327298Y217281D01*
X327288Y217249D01*
X327265Y217223D01*
X327138Y216882D01*
X326933Y215979D01*
X326933Y215936D01*
X326898Y215673D01*
X326898Y214295D01*
X326915Y214228D01*
X326905Y214159D01*
X326989Y213804D01*
X327415Y212687D01*
X327435Y212659D01*
X327441Y212625D01*
X327630Y212313D01*
X328381Y211383D01*
X328408Y211362D01*
X328424Y211331D01*
X328700Y211094D01*
X329702Y210440D01*
X329734Y210429D01*
X329759Y210405D01*
X330095Y210264D01*
X331250Y209953D01*
X331284Y209952D01*
X331315Y209937D01*
X331678Y209907D01*
X332838Y209965D01*
G37*
G36*
X332838Y184375D02*
X332838Y184375D01*
X342055Y184375D01*
X342102Y184386D01*
X342346Y184406D01*
X343431Y184640D01*
X343462Y184655D01*
X343496Y184656D01*
X343833Y184796D01*
X344793Y185354D01*
X344817Y185378D01*
X344850Y185389D01*
X345127Y185626D01*
X345867Y186453D01*
X345883Y186484D01*
X345910Y186505D01*
X346100Y186816D01*
X346549Y187831D01*
X346555Y187865D01*
X346575Y187893D01*
X346659Y188248D01*
X346772Y189352D01*
X346770Y189363D01*
X346762Y189708D01*
X346598Y190742D01*
X346585Y190773D01*
X346586Y190808D01*
X346465Y191151D01*
X345990Y192084D01*
X345967Y192110D01*
X345958Y192143D01*
X345736Y192433D01*
X344996Y193173D01*
X344967Y193191D01*
X344947Y193220D01*
X344647Y193427D01*
X343714Y193902D01*
X343681Y193910D01*
X343654Y193931D01*
X343305Y194035D01*
X342271Y194199D01*
X342216Y194194D01*
X342055Y194216D01*
X331425Y194216D01*
X331387Y194206D01*
X331301Y194210D01*
X330379Y194126D01*
X330346Y194115D01*
X330312Y194119D01*
X329961Y194021D01*
X329110Y193656D01*
X329082Y193636D01*
X329049Y193628D01*
X328745Y193427D01*
X328048Y192817D01*
X328029Y192789D01*
X327999Y192772D01*
X327772Y192486D01*
X327298Y191691D01*
X327288Y191658D01*
X327265Y191633D01*
X327138Y191291D01*
X326933Y190388D01*
X326933Y190345D01*
X326898Y190083D01*
X326898Y188705D01*
X326915Y188637D01*
X326905Y188568D01*
X326989Y188214D01*
X327415Y187096D01*
X327435Y187068D01*
X327441Y187034D01*
X327630Y186723D01*
X328381Y185792D01*
X328408Y185771D01*
X328424Y185741D01*
X328700Y185503D01*
X329702Y184850D01*
X329734Y184838D01*
X329759Y184815D01*
X330095Y184674D01*
X331250Y184362D01*
X331284Y184361D01*
X331315Y184346D01*
X331678Y184316D01*
X332838Y184375D01*
G37*
G36*
X258035Y184375D02*
X258035Y184375D01*
X267252Y184375D01*
X267299Y184386D01*
X267543Y184406D01*
X268628Y184640D01*
X268659Y184655D01*
X268693Y184656D01*
X269030Y184796D01*
X269989Y185354D01*
X270014Y185378D01*
X270047Y185389D01*
X270323Y185626D01*
X271064Y186453D01*
X271080Y186484D01*
X271107Y186505D01*
X271297Y186816D01*
X271746Y187831D01*
X271752Y187865D01*
X271771Y187893D01*
X271856Y188248D01*
X271969Y189352D01*
X271967Y189363D01*
X271959Y189708D01*
X271795Y190742D01*
X271782Y190773D01*
X271783Y190808D01*
X271662Y191151D01*
X271186Y192084D01*
X271164Y192110D01*
X271154Y192143D01*
X270933Y192433D01*
X270193Y193173D01*
X270164Y193191D01*
X270144Y193220D01*
X269844Y193427D01*
X268911Y193902D01*
X268878Y193910D01*
X268851Y193931D01*
X268501Y194035D01*
X267467Y194199D01*
X267413Y194194D01*
X267252Y194216D01*
X256622Y194216D01*
X256584Y194206D01*
X256498Y194210D01*
X255576Y194126D01*
X255543Y194115D01*
X255509Y194119D01*
X255158Y194021D01*
X254307Y193656D01*
X254279Y193636D01*
X254246Y193628D01*
X253942Y193427D01*
X253245Y192817D01*
X253226Y192789D01*
X253196Y192772D01*
X252969Y192486D01*
X252495Y191691D01*
X252485Y191658D01*
X252462Y191633D01*
X252335Y191291D01*
X252130Y190388D01*
X252130Y190345D01*
X252095Y190083D01*
X252095Y188705D01*
X252112Y188637D01*
X252102Y188568D01*
X252186Y188214D01*
X252612Y187096D01*
X252632Y187068D01*
X252638Y187034D01*
X252827Y186723D01*
X253578Y185792D01*
X253605Y185771D01*
X253621Y185741D01*
X253897Y185503D01*
X254899Y184850D01*
X254931Y184838D01*
X254956Y184815D01*
X255292Y184674D01*
X256447Y184362D01*
X256481Y184361D01*
X256512Y184346D01*
X256875Y184316D01*
X258035Y184375D01*
G37*
D10*
X175000Y245965D03*
X175000Y179035D03*
X512500Y370965D03*
X512500Y304035D03*
X512500Y173535D03*
X512500Y240465D03*
D11*
X185126Y576772D03*
X185126Y551181D03*
X185126Y525591D03*
X185126Y500000D03*
X185126Y474409D03*
X185126Y448819D03*
X185126Y423228D03*
X414874Y423228D03*
X414874Y448819D03*
X414874Y474409D03*
X414874Y500000D03*
X414874Y525591D03*
X414874Y551181D03*
X414874Y576772D03*
D10*
X87500Y245965D03*
X87500Y179035D03*
M02*
