G04 EAGLE Gerber X2 export*
%TF.Part,Single*%
%TF.FileFunction,Copper,L1,Top,Mixed*%
%TF.FilePolarity,Positive*%
%TF.GenerationSoftware,Autodesk,EAGLE,8.6.3*%
%TF.CreationDate,2018-03-03T20:44:34Z*%
G75*
%MOIN*%
%FSLAX36Y36*%
%LPD*%
%AMOC8*
5,1,8,0,0,1.08239X$1,22.5*%
G01*
%ADD10R,0.025591X0.053150*%
%ADD11C,0.009843*%
%ADD12R,0.039370X0.043307*%
%ADD13C,0.074000*%
%ADD14R,0.039000X0.012000*%
%ADD15C,0.008000*%
%ADD16C,0.029000*%

G36*
X67232Y11017D02*
X67232Y11017D01*
X67347Y11007D01*
X67785Y11095D01*
X68227Y11157D01*
X68331Y11204D01*
X68444Y11227D01*
X68841Y11433D01*
X69248Y11615D01*
X69336Y11689D01*
X69438Y11742D01*
X69762Y12050D01*
X70103Y12338D01*
X70167Y12434D01*
X70250Y12513D01*
X70477Y12899D01*
X70724Y13270D01*
X70758Y13380D01*
X70817Y13479D01*
X70927Y13911D01*
X71062Y14337D01*
X71065Y14453D01*
X71093Y14564D01*
X71079Y15009D01*
X71091Y15456D01*
X71062Y15568D01*
X71059Y15683D01*
X70922Y16107D01*
X70809Y16540D01*
X70750Y16639D01*
X70715Y16748D01*
X70537Y16998D01*
X70237Y17502D01*
X70056Y17672D01*
X69946Y17828D01*
X62698Y25075D01*
X55999Y41248D01*
X55999Y58752D01*
X62698Y74925D01*
X75328Y87554D01*
X75534Y87828D01*
X75769Y88079D01*
X75869Y88274D01*
X76001Y88449D01*
X76123Y88770D01*
X76280Y89075D01*
X76311Y89263D01*
X76400Y89495D01*
X76448Y90079D01*
X76499Y90382D01*
X76499Y146382D01*
X76467Y146609D01*
X76473Y146838D01*
X76389Y147161D01*
X76343Y147490D01*
X76249Y147699D01*
X76191Y147922D01*
X76021Y148208D01*
X75885Y148512D01*
X75737Y148687D01*
X75619Y148884D01*
X75377Y149113D01*
X75162Y149367D01*
X74971Y149494D01*
X74804Y149651D01*
X74507Y149803D01*
X74230Y149988D01*
X74011Y150057D01*
X73807Y150162D01*
X73539Y150207D01*
X73163Y150326D01*
X72767Y150336D01*
X72500Y150381D01*
X64915Y150381D01*
X60814Y154482D01*
X60814Y160000D01*
X60782Y160227D01*
X60788Y160456D01*
X60704Y160779D01*
X60657Y161109D01*
X60564Y161318D01*
X60506Y161540D01*
X60336Y161827D01*
X60200Y162130D01*
X60052Y162305D01*
X59934Y162503D01*
X59692Y162731D01*
X59477Y162985D01*
X59286Y163112D01*
X59118Y163269D01*
X58822Y163421D01*
X58545Y163606D01*
X58326Y163675D01*
X58122Y163780D01*
X57854Y163825D01*
X57478Y163944D01*
X57082Y163954D01*
X56815Y163999D01*
X45443Y163999D01*
X26499Y182943D01*
X26499Y342057D01*
X34115Y349672D01*
X56115Y371672D01*
X56184Y371764D01*
X56272Y371838D01*
X56519Y372210D01*
X56788Y372567D01*
X56829Y372674D01*
X56893Y372770D01*
X57028Y373196D01*
X57187Y373613D01*
X57196Y373727D01*
X57231Y373837D01*
X57243Y374285D01*
X57280Y374729D01*
X57257Y374841D01*
X57260Y374956D01*
X57147Y375389D01*
X57060Y375826D01*
X57007Y375928D01*
X56978Y376040D01*
X56750Y376425D01*
X56544Y376820D01*
X56465Y376903D01*
X56406Y377003D01*
X56081Y377308D01*
X55774Y377632D01*
X55674Y377690D01*
X55590Y377769D01*
X55193Y377973D01*
X54808Y378199D01*
X54697Y378227D01*
X54594Y378280D01*
X54291Y378331D01*
X53723Y378475D01*
X53475Y378468D01*
X53287Y378499D01*
X45723Y378499D01*
X37820Y381773D01*
X31773Y387820D01*
X28499Y395723D01*
X28499Y404287D01*
X28451Y404626D01*
X28441Y404969D01*
X28373Y405178D01*
X28343Y405395D01*
X28202Y405708D01*
X28097Y406035D01*
X27986Y406190D01*
X27885Y406417D01*
X27506Y406865D01*
X27328Y407115D01*
X26499Y407943D01*
X26499Y554557D01*
X70443Y598501D01*
X119419Y598501D01*
X127034Y590885D01*
X151798Y566121D01*
X151890Y566052D01*
X151964Y565964D01*
X152336Y565717D01*
X152693Y565448D01*
X152800Y565407D01*
X152896Y565344D01*
X153322Y565209D01*
X153739Y565050D01*
X153853Y565040D01*
X153963Y565005D01*
X154411Y564993D01*
X154855Y564956D01*
X154967Y564979D01*
X155082Y564976D01*
X155515Y565089D01*
X155952Y565176D01*
X156054Y565229D01*
X156166Y565258D01*
X156551Y565487D01*
X156946Y565692D01*
X157029Y565771D01*
X157129Y565830D01*
X157434Y566155D01*
X157758Y566462D01*
X157816Y566562D01*
X157895Y566646D01*
X158099Y567043D01*
X158325Y567428D01*
X158353Y567539D01*
X158406Y567642D01*
X158457Y567945D01*
X158601Y568513D01*
X158594Y568761D01*
X158625Y568949D01*
X158625Y585672D01*
X162726Y589772D01*
X207526Y589772D01*
X210126Y587172D01*
X210400Y586966D01*
X210650Y586731D01*
X210845Y586631D01*
X211021Y586499D01*
X211341Y586377D01*
X211647Y586220D01*
X211835Y586189D01*
X212067Y586100D01*
X212651Y586052D01*
X212954Y586001D01*
X217057Y586001D01*
X224672Y578386D01*
X224672Y578385D01*
X240885Y562172D01*
X248501Y554557D01*
X248501Y546062D01*
X248549Y545723D01*
X248559Y545380D01*
X248627Y545171D01*
X248657Y544954D01*
X248798Y544641D01*
X248903Y544314D01*
X249014Y544159D01*
X249115Y543932D01*
X249494Y543484D01*
X249672Y543234D01*
X255727Y537179D01*
X258092Y531470D01*
X258322Y531081D01*
X258530Y530680D01*
X258605Y530600D01*
X258661Y530506D01*
X258989Y530196D01*
X259300Y529868D01*
X259395Y529812D01*
X259475Y529737D01*
X259876Y529530D01*
X260266Y529301D01*
X260373Y529274D01*
X260470Y529224D01*
X260913Y529136D01*
X261351Y529025D01*
X261461Y529028D01*
X261569Y529007D01*
X262018Y529046D01*
X262470Y529060D01*
X262575Y529093D01*
X262684Y529103D01*
X263107Y529265D01*
X263535Y529403D01*
X263615Y529460D01*
X263729Y529504D01*
X264578Y530146D01*
X264615Y530172D01*
X264622Y530179D01*
X264623Y530180D01*
X289009Y554566D01*
X289009Y554567D01*
X297690Y563248D01*
X297828Y563431D01*
X297994Y563589D01*
X298163Y563876D01*
X298363Y564142D01*
X298445Y564357D01*
X298561Y564555D01*
X298643Y564877D01*
X298762Y565188D01*
X298781Y565417D01*
X298838Y565639D01*
X298827Y565972D01*
X298855Y566304D01*
X298810Y566529D01*
X298803Y566758D01*
X298700Y567075D01*
X298635Y567402D01*
X298530Y567605D01*
X298459Y567824D01*
X298301Y568045D01*
X298120Y568396D01*
X297848Y568682D01*
X297690Y568903D01*
X294273Y572321D01*
X290999Y580223D01*
X290999Y588777D01*
X294273Y596679D01*
X300320Y602727D01*
X308223Y606001D01*
X316777Y606001D01*
X324679Y602727D01*
X330727Y596679D01*
X333394Y590241D01*
X333397Y590237D01*
X333398Y590232D01*
X333681Y589754D01*
X333963Y589277D01*
X333967Y589273D01*
X333969Y589269D01*
X334373Y588890D01*
X334777Y588508D01*
X334781Y588506D01*
X334785Y588502D01*
X335275Y588252D01*
X335772Y587995D01*
X335777Y587994D01*
X335782Y587992D01*
X335829Y587984D01*
X336870Y587778D01*
X336991Y587789D01*
X337089Y587772D01*
X388818Y587772D01*
X389157Y587820D01*
X389501Y587831D01*
X389710Y587898D01*
X389926Y587929D01*
X390239Y588069D01*
X390566Y588175D01*
X390721Y588285D01*
X390948Y588387D01*
X391395Y588765D01*
X391646Y588944D01*
X392474Y589772D01*
X437274Y589772D01*
X441375Y585672D01*
X441375Y567872D01*
X440307Y566804D01*
X440169Y566621D01*
X440003Y566463D01*
X439834Y566175D01*
X439634Y565909D01*
X439552Y565695D01*
X439436Y565497D01*
X439354Y565174D01*
X439235Y564863D01*
X439216Y564635D01*
X439160Y564412D01*
X439170Y564079D01*
X439142Y563748D01*
X439187Y563523D01*
X439194Y563293D01*
X439297Y562976D01*
X439362Y562650D01*
X439468Y562446D01*
X439538Y562228D01*
X439696Y562007D01*
X439878Y561656D01*
X440149Y561370D01*
X440307Y561148D01*
X441375Y560081D01*
X441375Y542281D01*
X440307Y541214D01*
X440169Y541030D01*
X440003Y540872D01*
X439834Y540585D01*
X439634Y540319D01*
X439552Y540105D01*
X439436Y539907D01*
X439354Y539584D01*
X439235Y539273D01*
X439216Y539044D01*
X439160Y538822D01*
X439170Y538489D01*
X439142Y538157D01*
X439187Y537932D01*
X439194Y537703D01*
X439297Y537385D01*
X439362Y537059D01*
X439468Y536856D01*
X439538Y536637D01*
X439696Y536416D01*
X439878Y536065D01*
X440149Y535779D01*
X440307Y535558D01*
X441375Y534490D01*
X441375Y515109D01*
X441346Y514778D01*
X441369Y514662D01*
X441366Y514543D01*
X441478Y514115D01*
X441564Y513680D01*
X441619Y513575D01*
X441649Y513460D01*
X441875Y513079D01*
X442078Y512686D01*
X442160Y512599D01*
X442220Y512497D01*
X442543Y512194D01*
X442847Y511872D01*
X442950Y511812D01*
X443036Y511731D01*
X443430Y511529D01*
X443812Y511304D01*
X443927Y511274D01*
X444032Y511220D01*
X444336Y511169D01*
X444896Y511025D01*
X445149Y511033D01*
X445340Y511001D01*
X467349Y511001D01*
X467689Y511049D01*
X468032Y511059D01*
X468241Y511127D01*
X468458Y511157D01*
X468771Y511298D01*
X469097Y511403D01*
X469253Y511514D01*
X469479Y511615D01*
X469927Y511994D01*
X470177Y512172D01*
X481506Y523501D01*
X542057Y523501D01*
X561001Y504557D01*
X561001Y432943D01*
X553385Y425328D01*
X534208Y406151D01*
X534070Y405968D01*
X533904Y405810D01*
X533735Y405522D01*
X533535Y405256D01*
X533453Y405042D01*
X533337Y404844D01*
X533255Y404521D01*
X533137Y404210D01*
X533117Y403982D01*
X533061Y403759D01*
X533071Y403426D01*
X533043Y403094D01*
X533088Y402870D01*
X533096Y402640D01*
X533198Y402323D01*
X533263Y401997D01*
X533369Y401793D01*
X533439Y401575D01*
X533597Y401353D01*
X533779Y401003D01*
X534051Y400717D01*
X534208Y400495D01*
X539186Y395518D01*
X539186Y346411D01*
X535085Y342310D01*
X489915Y342310D01*
X485814Y346411D01*
X485814Y355965D01*
X485782Y356191D01*
X485788Y356421D01*
X485704Y356744D01*
X485657Y357073D01*
X485564Y357282D01*
X485506Y357504D01*
X485336Y357791D01*
X485200Y358095D01*
X485052Y358270D01*
X484934Y358467D01*
X484692Y358695D01*
X484477Y358949D01*
X484286Y359077D01*
X484118Y359234D01*
X483822Y359386D01*
X483545Y359570D01*
X483326Y359640D01*
X483122Y359744D01*
X482854Y359789D01*
X482478Y359909D01*
X482082Y359919D01*
X481815Y359964D01*
X464678Y359964D01*
X464338Y359916D01*
X463995Y359905D01*
X463786Y359838D01*
X463569Y359807D01*
X463256Y359667D01*
X462930Y359561D01*
X462774Y359451D01*
X462548Y359349D01*
X462100Y358970D01*
X461850Y358792D01*
X353855Y250798D01*
X353718Y250615D01*
X353551Y250457D01*
X353382Y250169D01*
X353182Y249903D01*
X353101Y249689D01*
X352984Y249491D01*
X352902Y249168D01*
X352784Y248857D01*
X352765Y248628D01*
X352708Y248406D01*
X352718Y248074D01*
X352691Y247742D01*
X352736Y247516D01*
X352743Y247287D01*
X352845Y246971D01*
X352910Y246644D01*
X353016Y246440D01*
X353087Y246222D01*
X353244Y246000D01*
X353426Y245650D01*
X353583Y245484D01*
X353583Y235538D01*
X348554Y230509D01*
X348416Y230326D01*
X348250Y230168D01*
X348081Y229880D01*
X347881Y229614D01*
X347799Y229400D01*
X347683Y229202D01*
X347601Y228879D01*
X347482Y228568D01*
X347463Y228339D01*
X347407Y228117D01*
X347417Y227784D01*
X347389Y227452D01*
X347434Y227228D01*
X347441Y226998D01*
X347544Y226681D01*
X347609Y226355D01*
X347715Y226151D01*
X347785Y225933D01*
X347943Y225711D01*
X348125Y225361D01*
X348397Y225074D01*
X348554Y224853D01*
X353583Y219824D01*
X353583Y209947D01*
X348554Y204918D01*
X348416Y204735D01*
X348250Y204577D01*
X348081Y204290D01*
X347881Y204024D01*
X347799Y203809D01*
X347683Y203611D01*
X347601Y203289D01*
X347482Y202977D01*
X347463Y202749D01*
X347407Y202527D01*
X347417Y202194D01*
X347389Y201862D01*
X347434Y201637D01*
X347441Y201408D01*
X347544Y201090D01*
X347609Y200764D01*
X347715Y200560D01*
X347785Y200342D01*
X347943Y200121D01*
X348125Y199770D01*
X348397Y199484D01*
X348554Y199263D01*
X353583Y194234D01*
X353583Y189666D01*
X353631Y189327D01*
X353642Y188983D01*
X353709Y188774D01*
X353740Y188557D01*
X353880Y188244D01*
X353986Y187918D01*
X354096Y187763D01*
X354198Y187536D01*
X354577Y187088D01*
X354755Y186838D01*
X362885Y178707D01*
X363160Y178501D01*
X363410Y178266D01*
X363605Y178166D01*
X363780Y178034D01*
X364101Y177912D01*
X364406Y177756D01*
X364594Y177724D01*
X364826Y177636D01*
X365410Y177587D01*
X365713Y177536D01*
X397500Y177536D01*
X397727Y177568D01*
X397956Y177562D01*
X398279Y177646D01*
X398609Y177693D01*
X398818Y177786D01*
X399040Y177844D01*
X399327Y178015D01*
X399630Y178151D01*
X399805Y178299D01*
X400003Y178416D01*
X400231Y178659D01*
X400485Y178874D01*
X400612Y179065D01*
X400769Y179232D01*
X400921Y179528D01*
X401106Y179805D01*
X401175Y180024D01*
X401280Y180228D01*
X401325Y180496D01*
X401444Y180873D01*
X401454Y181268D01*
X401499Y181535D01*
X401499Y241438D01*
X401451Y241777D01*
X401441Y242120D01*
X401373Y242329D01*
X401343Y242546D01*
X401202Y242859D01*
X401097Y243186D01*
X400986Y243341D01*
X400885Y243568D01*
X400506Y244016D01*
X400328Y244266D01*
X394273Y250321D01*
X390999Y258223D01*
X390999Y266777D01*
X394273Y274679D01*
X400320Y280727D01*
X408223Y284001D01*
X416777Y284001D01*
X424679Y280727D01*
X430727Y274679D01*
X434001Y266777D01*
X434001Y258223D01*
X430727Y250321D01*
X424672Y244266D01*
X424466Y243991D01*
X424231Y243741D01*
X424131Y243546D01*
X423999Y243371D01*
X423877Y243050D01*
X423720Y242745D01*
X423689Y242557D01*
X423600Y242325D01*
X423552Y241741D01*
X423501Y241438D01*
X423501Y177500D01*
X423533Y177273D01*
X423527Y177043D01*
X423611Y176721D01*
X423657Y176391D01*
X423751Y176182D01*
X423809Y175960D01*
X423979Y175673D01*
X424115Y175370D01*
X424263Y175195D01*
X424380Y174997D01*
X424623Y174769D01*
X424838Y174515D01*
X425029Y174388D01*
X425196Y174231D01*
X425493Y174079D01*
X425770Y173894D01*
X425988Y173825D01*
X426193Y173720D01*
X426461Y173675D01*
X426837Y173556D01*
X427232Y173546D01*
X427500Y173501D01*
X468787Y173501D01*
X469126Y173549D01*
X469469Y173559D01*
X469678Y173627D01*
X469895Y173657D01*
X470208Y173798D01*
X470535Y173903D01*
X470690Y174014D01*
X470917Y174115D01*
X471365Y174494D01*
X471615Y174672D01*
X481479Y184536D01*
X481815Y184536D01*
X482042Y184568D01*
X482271Y184562D01*
X482594Y184646D01*
X482923Y184693D01*
X483133Y184786D01*
X483355Y184844D01*
X483641Y185015D01*
X483945Y185151D01*
X484120Y185299D01*
X484318Y185416D01*
X484546Y185659D01*
X484800Y185874D01*
X484927Y186065D01*
X485084Y186232D01*
X485236Y186528D01*
X485421Y186805D01*
X485490Y187024D01*
X485595Y187228D01*
X485640Y187496D01*
X485759Y187873D01*
X485769Y188268D01*
X485814Y188535D01*
X485814Y198089D01*
X489915Y202190D01*
X535085Y202190D01*
X539186Y198089D01*
X539186Y148982D01*
X535085Y144881D01*
X489915Y144881D01*
X485669Y149127D01*
X485657Y149210D01*
X485610Y149315D01*
X485588Y149429D01*
X485382Y149825D01*
X485200Y150232D01*
X485125Y150320D01*
X485072Y150422D01*
X484765Y150746D01*
X484477Y151087D01*
X484381Y151151D01*
X484301Y151234D01*
X483916Y151460D01*
X483545Y151708D01*
X483435Y151742D01*
X483336Y151801D01*
X482904Y151911D01*
X482478Y152046D01*
X482362Y152049D01*
X482251Y152077D01*
X481806Y152063D01*
X481359Y152075D01*
X481247Y152046D01*
X481132Y152042D01*
X480708Y151906D01*
X480275Y151793D01*
X480176Y151734D01*
X480066Y151699D01*
X479816Y151520D01*
X479781Y151499D01*
X473713Y151499D01*
X473599Y151483D01*
X473484Y151493D01*
X473046Y151405D01*
X472604Y151343D01*
X472500Y151296D01*
X472387Y151273D01*
X471990Y151067D01*
X471583Y150885D01*
X471495Y150810D01*
X471393Y150757D01*
X471069Y150450D01*
X470728Y150162D01*
X470664Y150066D01*
X470581Y149987D01*
X470355Y149601D01*
X470107Y149230D01*
X470073Y149120D01*
X470014Y149021D01*
X469904Y148589D01*
X469769Y148163D01*
X469766Y148047D01*
X469738Y147936D01*
X469751Y147490D01*
X469740Y147044D01*
X469769Y146932D01*
X469772Y146817D01*
X469909Y146393D01*
X470022Y145960D01*
X470081Y145861D01*
X470116Y145752D01*
X470294Y145502D01*
X470594Y144997D01*
X470775Y144827D01*
X470885Y144672D01*
X498501Y117057D01*
X498501Y98000D01*
X498533Y97773D01*
X498527Y97543D01*
X498611Y97220D01*
X498657Y96891D01*
X498751Y96682D01*
X498809Y96460D01*
X498979Y96173D01*
X499115Y95870D01*
X499263Y95695D01*
X499380Y95497D01*
X499623Y95269D01*
X499838Y95015D01*
X500029Y94888D01*
X500196Y94731D01*
X500493Y94579D01*
X500770Y94394D01*
X500988Y94325D01*
X501193Y94220D01*
X501461Y94175D01*
X501837Y94056D01*
X502232Y94046D01*
X502500Y94001D01*
X508752Y94001D01*
X524925Y87302D01*
X537302Y74925D01*
X544001Y58752D01*
X544001Y41248D01*
X537302Y25075D01*
X530054Y17828D01*
X529985Y17736D01*
X529897Y17662D01*
X529650Y17291D01*
X529381Y16933D01*
X529340Y16825D01*
X529276Y16730D01*
X529141Y16304D01*
X528982Y15887D01*
X528973Y15773D01*
X528938Y15663D01*
X528926Y15215D01*
X528889Y14771D01*
X528912Y14659D01*
X528909Y14543D01*
X529022Y14110D01*
X529109Y13674D01*
X529162Y13572D01*
X529191Y13460D01*
X529420Y13075D01*
X529625Y12680D01*
X529704Y12596D01*
X529762Y12497D01*
X530088Y12191D01*
X530395Y11868D01*
X530495Y11809D01*
X530578Y11731D01*
X530976Y11527D01*
X531361Y11301D01*
X531472Y11273D01*
X531575Y11220D01*
X531878Y11169D01*
X532446Y11024D01*
X532694Y11032D01*
X532882Y11001D01*
X572500Y11001D01*
X572727Y11033D01*
X572956Y11027D01*
X573279Y11111D01*
X573609Y11157D01*
X573818Y11251D01*
X574040Y11309D01*
X574327Y11479D01*
X574630Y11615D01*
X574805Y11763D01*
X575003Y11880D01*
X575231Y12123D01*
X575485Y12338D01*
X575612Y12529D01*
X575769Y12696D01*
X575921Y12993D01*
X576106Y13270D01*
X576175Y13488D01*
X576280Y13693D01*
X576325Y13961D01*
X576444Y14337D01*
X576454Y14732D01*
X576499Y15000D01*
X576499Y675868D01*
X576452Y676202D01*
X576442Y676541D01*
X576374Y676755D01*
X576343Y676976D01*
X576204Y677285D01*
X576101Y677607D01*
X575977Y677793D01*
X575885Y677998D01*
X575666Y678256D01*
X575478Y678537D01*
X575306Y678682D01*
X575162Y678853D01*
X574881Y679040D01*
X574622Y679258D01*
X574416Y679349D01*
X574230Y679473D01*
X573907Y679576D01*
X573599Y679713D01*
X573377Y679744D01*
X573163Y679812D01*
X572824Y679821D01*
X572490Y679867D01*
X572268Y679835D01*
X572044Y679841D01*
X571716Y679756D01*
X571382Y679707D01*
X571177Y679615D01*
X570960Y679559D01*
X570670Y679386D01*
X570361Y679247D01*
X570190Y679102D01*
X569997Y678987D01*
X569766Y678741D01*
X569508Y678522D01*
X569405Y678356D01*
X569231Y678171D01*
X568969Y677659D01*
X568805Y677398D01*
X565278Y668883D01*
X543618Y647222D01*
X515316Y635499D01*
X484684Y635499D01*
X456382Y647222D01*
X434722Y668882D01*
X422999Y697184D01*
X422999Y727816D01*
X434722Y756118D01*
X456382Y777778D01*
X464898Y781305D01*
X465190Y781477D01*
X465498Y781615D01*
X465669Y781760D01*
X465862Y781874D01*
X466094Y782120D01*
X466353Y782338D01*
X466477Y782525D01*
X466631Y782688D01*
X466786Y782989D01*
X466973Y783270D01*
X467041Y783484D01*
X467144Y783683D01*
X467209Y784014D01*
X467312Y784337D01*
X467318Y784562D01*
X467361Y784781D01*
X467332Y785118D01*
X467341Y785456D01*
X467284Y785674D01*
X467265Y785897D01*
X467144Y786213D01*
X467059Y786540D01*
X466944Y786733D01*
X466864Y786942D01*
X466660Y787212D01*
X466487Y787503D01*
X466324Y787656D01*
X466188Y787835D01*
X465918Y788038D01*
X465671Y788269D01*
X465472Y788371D01*
X465292Y788506D01*
X464976Y788625D01*
X464675Y788780D01*
X464483Y788812D01*
X464245Y788902D01*
X463672Y788948D01*
X463368Y788999D01*
X124132Y788999D01*
X123798Y788952D01*
X123459Y788942D01*
X123245Y788874D01*
X123024Y788843D01*
X122715Y788704D01*
X122393Y788601D01*
X122207Y788477D01*
X122002Y788385D01*
X121744Y788166D01*
X121463Y787978D01*
X121318Y787806D01*
X121147Y787662D01*
X120960Y787381D01*
X120742Y787122D01*
X120651Y786916D01*
X120526Y786730D01*
X120424Y786407D01*
X120287Y786099D01*
X120256Y785877D01*
X120188Y785663D01*
X120179Y785324D01*
X120133Y784990D01*
X120165Y784768D01*
X120159Y784544D01*
X120244Y784216D01*
X120292Y783882D01*
X120385Y783677D01*
X120441Y783460D01*
X120614Y783170D01*
X120753Y782861D01*
X120898Y782690D01*
X121013Y782497D01*
X121259Y782266D01*
X121478Y782008D01*
X121643Y781905D01*
X121829Y781731D01*
X122341Y781469D01*
X122602Y781305D01*
X131118Y777778D01*
X152778Y756118D01*
X164501Y727816D01*
X164501Y697184D01*
X152778Y668882D01*
X131118Y647222D01*
X102816Y635499D01*
X72184Y635499D01*
X43882Y647222D01*
X22222Y668882D01*
X18695Y677398D01*
X18523Y677690D01*
X18385Y677998D01*
X18240Y678169D01*
X18126Y678362D01*
X17880Y678594D01*
X17662Y678853D01*
X17475Y678977D01*
X17312Y679131D01*
X17011Y679286D01*
X16730Y679473D01*
X16516Y679541D01*
X16317Y679644D01*
X15986Y679709D01*
X15663Y679812D01*
X15438Y679818D01*
X15218Y679861D01*
X14882Y679832D01*
X14543Y679841D01*
X14326Y679784D01*
X14103Y679765D01*
X13787Y679644D01*
X13460Y679559D01*
X13267Y679444D01*
X13058Y679364D01*
X12788Y679160D01*
X12497Y678987D01*
X12344Y678824D01*
X12165Y678688D01*
X11962Y678418D01*
X11731Y678171D01*
X11629Y677972D01*
X11494Y677792D01*
X11374Y677476D01*
X11220Y677175D01*
X11188Y676983D01*
X11098Y676745D01*
X11052Y676172D01*
X11001Y675868D01*
X11001Y15000D01*
X11033Y14773D01*
X11027Y14543D01*
X11111Y14221D01*
X11157Y13891D01*
X11251Y13682D01*
X11309Y13460D01*
X11479Y13173D01*
X11615Y12870D01*
X11763Y12695D01*
X11880Y12497D01*
X12123Y12269D01*
X12338Y12015D01*
X12529Y11888D01*
X12696Y11731D01*
X12993Y11579D01*
X13270Y11394D01*
X13488Y11325D01*
X13693Y11220D01*
X13961Y11175D01*
X14337Y11056D01*
X14732Y11046D01*
X15000Y11001D01*
X67118Y11001D01*
X67232Y11017D01*
G37*
G36*
X162989Y11017D02*
X162989Y11017D01*
X163104Y11007D01*
X163543Y11095D01*
X163984Y11157D01*
X164089Y11204D01*
X164202Y11227D01*
X164599Y11433D01*
X165006Y11615D01*
X165093Y11689D01*
X165196Y11742D01*
X165520Y12050D01*
X165860Y12338D01*
X165924Y12434D01*
X166008Y12513D01*
X166234Y12899D01*
X166481Y13270D01*
X166516Y13379D01*
X166574Y13479D01*
X166684Y13912D01*
X166819Y14337D01*
X166822Y14453D01*
X166851Y14564D01*
X166837Y15009D01*
X166849Y15456D01*
X166820Y15568D01*
X166816Y15683D01*
X166679Y16108D01*
X166566Y16540D01*
X166508Y16639D01*
X166472Y16748D01*
X166294Y16998D01*
X165995Y17502D01*
X165814Y17673D01*
X165703Y17828D01*
X164150Y19381D01*
X159801Y25367D01*
X156443Y31958D01*
X154157Y38994D01*
X153680Y42001D01*
X195999Y42001D01*
X196226Y42033D01*
X196456Y42027D01*
X196779Y42111D01*
X197108Y42157D01*
X197317Y42251D01*
X197539Y42309D01*
X197826Y42479D01*
X198130Y42615D01*
X198305Y42763D01*
X198502Y42881D01*
X198730Y43123D01*
X198984Y43338D01*
X199111Y43529D01*
X199269Y43696D01*
X199421Y43993D01*
X199605Y44270D01*
X199674Y44489D01*
X199779Y44693D01*
X199824Y44961D01*
X199943Y45337D01*
X199954Y45733D01*
X199999Y46000D01*
X199999Y50001D01*
X200001Y50001D01*
X200001Y46000D01*
X200033Y45773D01*
X200027Y45544D01*
X200111Y45221D01*
X200158Y44891D01*
X200252Y44682D01*
X200310Y44460D01*
X200480Y44173D01*
X200616Y43870D01*
X200764Y43695D01*
X200881Y43497D01*
X201124Y43269D01*
X201339Y43015D01*
X201530Y42888D01*
X201697Y42731D01*
X201994Y42579D01*
X202271Y42394D01*
X202489Y42325D01*
X202693Y42220D01*
X202961Y42175D01*
X203338Y42056D01*
X203733Y42046D01*
X204000Y42001D01*
X246320Y42001D01*
X245843Y38994D01*
X243557Y31958D01*
X240199Y25367D01*
X235850Y19381D01*
X234297Y17828D01*
X234228Y17736D01*
X234140Y17662D01*
X233892Y17290D01*
X233624Y16933D01*
X233583Y16826D01*
X233519Y16730D01*
X233384Y16304D01*
X233225Y15887D01*
X233215Y15773D01*
X233180Y15663D01*
X233169Y15215D01*
X233132Y14771D01*
X233154Y14659D01*
X233151Y14543D01*
X233264Y14111D01*
X233352Y13674D01*
X233405Y13571D01*
X233434Y13460D01*
X233661Y13077D01*
X233867Y12680D01*
X233946Y12596D01*
X234005Y12497D01*
X234330Y12192D01*
X234638Y11868D01*
X234737Y11809D01*
X234821Y11731D01*
X235218Y11527D01*
X235603Y11301D01*
X235715Y11273D01*
X235817Y11220D01*
X236120Y11169D01*
X236688Y11024D01*
X236937Y11032D01*
X237125Y11001D01*
X267118Y11001D01*
X267232Y11017D01*
X267347Y11007D01*
X267785Y11095D01*
X268227Y11157D01*
X268331Y11204D01*
X268444Y11227D01*
X268841Y11433D01*
X269248Y11615D01*
X269336Y11689D01*
X269438Y11742D01*
X269762Y12050D01*
X270103Y12338D01*
X270167Y12434D01*
X270250Y12513D01*
X270477Y12899D01*
X270724Y13270D01*
X270758Y13380D01*
X270817Y13479D01*
X270927Y13911D01*
X271062Y14337D01*
X271065Y14453D01*
X271093Y14564D01*
X271079Y15009D01*
X271091Y15456D01*
X271062Y15568D01*
X271059Y15683D01*
X270922Y16107D01*
X270809Y16540D01*
X270750Y16639D01*
X270715Y16748D01*
X270537Y16998D01*
X270237Y17502D01*
X270056Y17672D01*
X269946Y17828D01*
X262698Y25075D01*
X255999Y41248D01*
X255999Y58752D01*
X262698Y74925D01*
X275075Y87302D01*
X291248Y94001D01*
X308752Y94001D01*
X324925Y87302D01*
X337302Y74925D01*
X344001Y58752D01*
X344001Y41248D01*
X337302Y25075D01*
X330054Y17828D01*
X329985Y17736D01*
X329897Y17662D01*
X329650Y17291D01*
X329381Y16933D01*
X329340Y16825D01*
X329276Y16730D01*
X329141Y16304D01*
X328982Y15887D01*
X328973Y15773D01*
X328938Y15663D01*
X328926Y15215D01*
X328889Y14771D01*
X328912Y14659D01*
X328909Y14543D01*
X329022Y14110D01*
X329109Y13674D01*
X329162Y13572D01*
X329191Y13460D01*
X329420Y13075D01*
X329625Y12680D01*
X329704Y12596D01*
X329762Y12497D01*
X330088Y12191D01*
X330395Y11868D01*
X330495Y11809D01*
X330578Y11731D01*
X330976Y11527D01*
X331361Y11301D01*
X331472Y11273D01*
X331575Y11220D01*
X331878Y11169D01*
X332446Y11024D01*
X332694Y11032D01*
X332882Y11001D01*
X367118Y11001D01*
X367232Y11017D01*
X367347Y11007D01*
X367785Y11095D01*
X368227Y11157D01*
X368331Y11204D01*
X368444Y11227D01*
X368841Y11433D01*
X369248Y11615D01*
X369336Y11689D01*
X369438Y11742D01*
X369762Y12050D01*
X370103Y12338D01*
X370167Y12434D01*
X370250Y12513D01*
X370477Y12899D01*
X370724Y13270D01*
X370758Y13380D01*
X370817Y13479D01*
X370927Y13911D01*
X371062Y14337D01*
X371065Y14453D01*
X371093Y14564D01*
X371079Y15009D01*
X371091Y15456D01*
X371062Y15568D01*
X371059Y15683D01*
X370922Y16107D01*
X370809Y16540D01*
X370750Y16639D01*
X370715Y16748D01*
X370537Y16998D01*
X370237Y17502D01*
X370056Y17672D01*
X369946Y17828D01*
X362698Y25075D01*
X355999Y41248D01*
X355999Y58752D01*
X362698Y74925D01*
X375075Y87302D01*
X391248Y94001D01*
X408752Y94001D01*
X424925Y87302D01*
X437302Y74925D01*
X444001Y58752D01*
X444001Y41248D01*
X437302Y25075D01*
X430054Y17828D01*
X429985Y17736D01*
X429897Y17662D01*
X429650Y17291D01*
X429381Y16933D01*
X429340Y16825D01*
X429276Y16730D01*
X429141Y16304D01*
X428982Y15887D01*
X428973Y15773D01*
X428938Y15663D01*
X428926Y15215D01*
X428889Y14771D01*
X428912Y14659D01*
X428909Y14543D01*
X429022Y14110D01*
X429109Y13674D01*
X429162Y13572D01*
X429191Y13460D01*
X429420Y13075D01*
X429625Y12680D01*
X429704Y12596D01*
X429762Y12497D01*
X430088Y12191D01*
X430395Y11868D01*
X430495Y11809D01*
X430578Y11731D01*
X430976Y11527D01*
X431361Y11301D01*
X431472Y11273D01*
X431575Y11220D01*
X431878Y11169D01*
X432446Y11024D01*
X432694Y11032D01*
X432882Y11001D01*
X467118Y11001D01*
X467232Y11017D01*
X467347Y11007D01*
X467785Y11095D01*
X468227Y11157D01*
X468331Y11204D01*
X468444Y11227D01*
X468841Y11433D01*
X469248Y11615D01*
X469336Y11689D01*
X469438Y11742D01*
X469762Y12050D01*
X470103Y12338D01*
X470167Y12434D01*
X470250Y12513D01*
X470477Y12899D01*
X470724Y13270D01*
X470758Y13380D01*
X470817Y13479D01*
X470927Y13911D01*
X471062Y14337D01*
X471065Y14453D01*
X471093Y14564D01*
X471079Y15009D01*
X471091Y15456D01*
X471062Y15568D01*
X471059Y15683D01*
X470922Y16107D01*
X470809Y16540D01*
X470750Y16639D01*
X470715Y16748D01*
X470537Y16998D01*
X470237Y17502D01*
X470056Y17672D01*
X469946Y17828D01*
X462698Y25075D01*
X455999Y41248D01*
X455999Y58752D01*
X462698Y74924D01*
X475328Y87554D01*
X475534Y87828D01*
X475769Y88078D01*
X475869Y88273D01*
X476001Y88449D01*
X476123Y88770D01*
X476280Y89075D01*
X476311Y89263D01*
X476400Y89495D01*
X476448Y90079D01*
X476499Y90382D01*
X476499Y106287D01*
X476451Y106626D01*
X476441Y106969D01*
X476373Y107178D01*
X476343Y107395D01*
X476202Y107708D01*
X476097Y108035D01*
X475986Y108190D01*
X475885Y108417D01*
X475506Y108865D01*
X475328Y109115D01*
X449115Y135328D01*
X448840Y135534D01*
X448590Y135769D01*
X448395Y135869D01*
X448220Y136001D01*
X447899Y136123D01*
X447594Y136280D01*
X447406Y136311D01*
X447174Y136400D01*
X446590Y136448D01*
X446287Y136499D01*
X352765Y136499D01*
X343913Y145351D01*
X343730Y145489D01*
X343572Y145656D01*
X343285Y145824D01*
X343019Y146024D01*
X342805Y146106D01*
X342606Y146222D01*
X342283Y146304D01*
X341973Y146423D01*
X341744Y146442D01*
X341522Y146499D01*
X341189Y146488D01*
X340857Y146516D01*
X340632Y146471D01*
X340403Y146464D01*
X340085Y146361D01*
X339759Y146296D01*
X339556Y146191D01*
X339337Y146120D01*
X339116Y145963D01*
X338765Y145781D01*
X338478Y145508D01*
X338258Y145351D01*
X337179Y144273D01*
X329277Y140999D01*
X320723Y140999D01*
X312820Y144273D01*
X306773Y150320D01*
X303499Y158223D01*
X303499Y166777D01*
X306773Y174679D01*
X312820Y180727D01*
X317428Y182636D01*
X317433Y182638D01*
X317438Y182640D01*
X317905Y182917D01*
X318392Y183205D01*
X318396Y183209D01*
X318400Y183211D01*
X318780Y183615D01*
X319161Y184019D01*
X319163Y184023D01*
X319167Y184027D01*
X319414Y184509D01*
X319674Y185014D01*
X319675Y185019D01*
X319677Y185023D01*
X319685Y185071D01*
X319891Y186112D01*
X319881Y186233D01*
X319897Y186331D01*
X319897Y194234D01*
X324926Y199263D01*
X325064Y199446D01*
X325230Y199604D01*
X325399Y199891D01*
X325599Y200157D01*
X325681Y200372D01*
X325797Y200569D01*
X325879Y200892D01*
X325998Y201203D01*
X326017Y201432D01*
X326074Y201654D01*
X326063Y201987D01*
X326091Y202319D01*
X326046Y202544D01*
X326039Y202773D01*
X325936Y203091D01*
X325871Y203417D01*
X325766Y203620D01*
X325695Y203839D01*
X325538Y204060D01*
X325356Y204411D01*
X325083Y204697D01*
X324926Y204918D01*
X319897Y209947D01*
X319897Y219824D01*
X324926Y224853D01*
X325064Y225036D01*
X325230Y225194D01*
X325399Y225481D01*
X325599Y225748D01*
X325681Y225962D01*
X325797Y226160D01*
X325879Y226482D01*
X325998Y226794D01*
X326017Y227023D01*
X326074Y227245D01*
X326063Y227578D01*
X326091Y227910D01*
X326046Y228134D01*
X326039Y228364D01*
X325936Y228681D01*
X325871Y229007D01*
X325766Y229211D01*
X325695Y229429D01*
X325538Y229650D01*
X325356Y230001D01*
X325083Y230288D01*
X324926Y230509D01*
X319897Y235538D01*
X319897Y245415D01*
X324568Y250086D01*
X324774Y250360D01*
X325009Y250610D01*
X325109Y250805D01*
X325241Y250980D01*
X325363Y251301D01*
X325520Y251606D01*
X325551Y251794D01*
X325640Y252026D01*
X325688Y252611D01*
X325739Y252914D01*
X325739Y253797D01*
X381115Y309172D01*
X381184Y309264D01*
X381272Y309338D01*
X381519Y309710D01*
X381788Y310067D01*
X381829Y310174D01*
X381893Y310270D01*
X382028Y310696D01*
X382187Y311113D01*
X382196Y311227D01*
X382231Y311337D01*
X382243Y311785D01*
X382280Y312229D01*
X382257Y312341D01*
X382260Y312456D01*
X382147Y312889D01*
X382060Y313326D01*
X382007Y313428D01*
X381978Y313540D01*
X381750Y313925D01*
X381544Y314320D01*
X381465Y314403D01*
X381406Y314503D01*
X381081Y314808D01*
X380774Y315132D01*
X380674Y315190D01*
X380590Y315269D01*
X380193Y315473D01*
X379808Y315699D01*
X379697Y315727D01*
X379594Y315780D01*
X379291Y315831D01*
X378723Y315975D01*
X378475Y315968D01*
X378287Y315999D01*
X370723Y315999D01*
X362820Y319273D01*
X356773Y325320D01*
X353499Y333223D01*
X353499Y340787D01*
X353483Y340901D01*
X353493Y341016D01*
X353405Y341454D01*
X353343Y341895D01*
X353296Y342000D01*
X353273Y342113D01*
X353067Y342510D01*
X352885Y342917D01*
X352810Y343005D01*
X352757Y343107D01*
X352450Y343431D01*
X352162Y343772D01*
X352066Y343836D01*
X351987Y343919D01*
X351601Y344146D01*
X351230Y344393D01*
X351120Y344427D01*
X351021Y344486D01*
X350589Y344596D01*
X350163Y344731D01*
X350047Y344734D01*
X349936Y344762D01*
X349491Y344748D01*
X349044Y344760D01*
X348932Y344731D01*
X348817Y344727D01*
X348392Y344590D01*
X347960Y344478D01*
X347861Y344419D01*
X347752Y344384D01*
X347502Y344206D01*
X346997Y343906D01*
X346827Y343725D01*
X346672Y343615D01*
X337172Y334115D01*
X329557Y326499D01*
X258562Y326499D01*
X258223Y326451D01*
X257880Y326441D01*
X257671Y326373D01*
X257454Y326343D01*
X257141Y326202D01*
X256814Y326097D01*
X256659Y325986D01*
X256432Y325885D01*
X255984Y325506D01*
X255734Y325328D01*
X249679Y319273D01*
X241777Y315999D01*
X233223Y315999D01*
X229030Y317736D01*
X228594Y317849D01*
X228163Y317985D01*
X228053Y317988D01*
X227946Y318016D01*
X227495Y318003D01*
X227043Y318014D01*
X226937Y317987D01*
X226827Y317984D01*
X226397Y317846D01*
X225960Y317732D01*
X225866Y317676D01*
X225761Y317643D01*
X225385Y317391D01*
X224997Y317161D01*
X224922Y317081D01*
X224831Y317019D01*
X224539Y316673D01*
X224231Y316345D01*
X224181Y316247D01*
X224110Y316163D01*
X223926Y315750D01*
X223720Y315348D01*
X223704Y315251D01*
X223655Y315140D01*
X223509Y314089D01*
X223501Y314041D01*
X223501Y255476D01*
X223533Y255250D01*
X223527Y255020D01*
X223611Y254697D01*
X223657Y254368D01*
X223751Y254159D01*
X223809Y253936D01*
X223979Y253650D01*
X224115Y253346D01*
X224263Y253171D01*
X224380Y252974D01*
X224623Y252746D01*
X224838Y252491D01*
X225029Y252364D01*
X225196Y252207D01*
X225493Y252055D01*
X225770Y251871D01*
X225988Y251801D01*
X226193Y251697D01*
X226461Y251652D01*
X226837Y251532D01*
X227232Y251522D01*
X227500Y251477D01*
X249500Y251477D01*
X249840Y251525D01*
X250183Y251536D01*
X250391Y251603D01*
X250608Y251634D01*
X250922Y251774D01*
X251248Y251880D01*
X251403Y251990D01*
X251630Y252092D01*
X251992Y252398D01*
X271797Y252398D01*
X278780Y245415D01*
X278780Y235538D01*
X271797Y228554D01*
X252007Y228554D01*
X251803Y228746D01*
X251609Y228845D01*
X251433Y228977D01*
X251112Y229100D01*
X250807Y229256D01*
X250619Y229288D01*
X250387Y229376D01*
X249802Y229425D01*
X249500Y229476D01*
X207756Y229476D01*
X207618Y229579D01*
X207511Y229620D01*
X207415Y229684D01*
X206990Y229819D01*
X206572Y229978D01*
X206458Y229987D01*
X206348Y230022D01*
X205901Y230034D01*
X205457Y230071D01*
X205344Y230048D01*
X205228Y230051D01*
X204796Y229939D01*
X204359Y229851D01*
X204257Y229798D01*
X204145Y229769D01*
X203761Y229541D01*
X203365Y229336D01*
X203281Y229257D01*
X203182Y229198D01*
X202877Y228872D01*
X202553Y228565D01*
X202495Y228466D01*
X202416Y228382D01*
X202212Y227984D01*
X201986Y227600D01*
X201958Y227488D01*
X201905Y227385D01*
X201854Y227083D01*
X201710Y226515D01*
X201717Y226266D01*
X201686Y226078D01*
X201686Y221411D01*
X196927Y216652D01*
X196835Y216530D01*
X196719Y216429D01*
X196499Y216084D01*
X196254Y215758D01*
X196199Y215614D01*
X196117Y215485D01*
X196001Y215094D01*
X195855Y214711D01*
X195842Y214558D01*
X195799Y214412D01*
X195796Y214003D01*
X195762Y213596D01*
X195792Y213445D01*
X195791Y213292D01*
X195901Y212898D01*
X195982Y212498D01*
X196052Y212362D01*
X196094Y212214D01*
X196309Y211866D01*
X196497Y211504D01*
X196602Y211393D01*
X196683Y211263D01*
X196987Y210989D01*
X197268Y210692D01*
X197400Y210615D01*
X197514Y210512D01*
X197791Y210385D01*
X198234Y210126D01*
X198427Y210076D01*
X200826Y208691D01*
X202687Y206830D01*
X204004Y204549D01*
X204686Y202006D01*
X204686Y187034D01*
X179000Y187034D01*
X178774Y187002D01*
X178544Y187008D01*
X178221Y186924D01*
X177892Y186878D01*
X177683Y186784D01*
X177461Y186726D01*
X177174Y186556D01*
X176870Y186420D01*
X176695Y186272D01*
X176498Y186155D01*
X176270Y185912D01*
X176016Y185697D01*
X175888Y185506D01*
X175731Y185339D01*
X175579Y185042D01*
X175395Y184765D01*
X175325Y184547D01*
X175221Y184342D01*
X175176Y184074D01*
X175056Y183698D01*
X175046Y183303D01*
X175001Y183035D01*
X175001Y179034D01*
X174999Y179034D01*
X174999Y183035D01*
X174968Y183252D01*
X174973Y183425D01*
X174971Y183431D01*
X174973Y183492D01*
X174889Y183814D01*
X174842Y184144D01*
X174748Y184353D01*
X174690Y184575D01*
X174520Y184862D01*
X174384Y185165D01*
X174236Y185340D01*
X174119Y185538D01*
X173876Y185766D01*
X173661Y186020D01*
X173470Y186147D01*
X173303Y186304D01*
X173006Y186456D01*
X172729Y186641D01*
X172511Y186710D01*
X172307Y186815D01*
X172039Y186860D01*
X171662Y186979D01*
X171267Y186989D01*
X171000Y187034D01*
X145314Y187034D01*
X145314Y202006D01*
X145996Y204549D01*
X147313Y206830D01*
X149174Y208691D01*
X151508Y210039D01*
X151572Y210051D01*
X151935Y210240D01*
X152311Y210400D01*
X152430Y210496D01*
X152566Y210567D01*
X152862Y210848D01*
X153179Y211106D01*
X153266Y211232D01*
X153378Y211338D01*
X153585Y211690D01*
X153817Y212026D01*
X153867Y212171D01*
X153944Y212303D01*
X154045Y212699D01*
X154176Y213086D01*
X154183Y213240D01*
X154221Y213388D01*
X154208Y213797D01*
X154226Y214205D01*
X154191Y214354D01*
X154186Y214507D01*
X154060Y214897D01*
X153965Y215294D01*
X153889Y215427D01*
X153842Y215573D01*
X153665Y215821D01*
X153412Y216267D01*
X153201Y216473D01*
X153073Y216652D01*
X148314Y221411D01*
X148314Y270518D01*
X152345Y274549D01*
X152398Y274619D01*
X197500Y274619D01*
X197727Y274651D01*
X197956Y274645D01*
X198279Y274729D01*
X198609Y274775D01*
X198818Y274869D01*
X199040Y274927D01*
X199327Y275097D01*
X199630Y275233D01*
X199805Y275381D01*
X200003Y275499D01*
X200231Y275741D01*
X200485Y275956D01*
X200612Y276147D01*
X200769Y276314D01*
X200921Y276611D01*
X201106Y276888D01*
X201175Y277107D01*
X201280Y277311D01*
X201325Y277579D01*
X201444Y277955D01*
X201454Y278351D01*
X201499Y278618D01*
X201499Y329557D01*
X217049Y345106D01*
X217121Y345202D01*
X217213Y345280D01*
X217376Y345542D01*
X217722Y346001D01*
X217813Y346239D01*
X217916Y346404D01*
X219273Y349679D01*
X225320Y355727D01*
X233223Y359001D01*
X241777Y359001D01*
X249679Y355727D01*
X255734Y349672D01*
X256009Y349466D01*
X256259Y349231D01*
X256454Y349131D01*
X256629Y348999D01*
X256950Y348877D01*
X257255Y348720D01*
X257444Y348689D01*
X257675Y348600D01*
X258259Y348552D01*
X258562Y348501D01*
X318787Y348501D01*
X319126Y348549D01*
X319469Y348559D01*
X319678Y348627D01*
X319895Y348657D01*
X320208Y348798D01*
X320535Y348903D01*
X320690Y349014D01*
X320917Y349115D01*
X321365Y349494D01*
X321615Y349672D01*
X352328Y380385D01*
X352534Y380660D01*
X352769Y380910D01*
X352869Y381105D01*
X353001Y381280D01*
X353123Y381601D01*
X353280Y381906D01*
X353311Y382094D01*
X353400Y382326D01*
X353448Y382910D01*
X353499Y383213D01*
X353499Y391777D01*
X356773Y399679D01*
X362828Y405734D01*
X363034Y406009D01*
X363269Y406259D01*
X363369Y406453D01*
X363501Y406629D01*
X363623Y406950D01*
X363780Y407255D01*
X363811Y407443D01*
X363900Y407675D01*
X363948Y408259D01*
X363999Y408562D01*
X363999Y417057D01*
X371615Y424672D01*
X379115Y432172D01*
X379159Y432231D01*
X379194Y432261D01*
X379212Y432288D01*
X379272Y432338D01*
X379519Y432709D01*
X379788Y433067D01*
X379829Y433175D01*
X379893Y433270D01*
X380028Y433696D01*
X380187Y434113D01*
X380196Y434227D01*
X380231Y434337D01*
X380243Y434785D01*
X380280Y435229D01*
X380257Y435341D01*
X380260Y435456D01*
X380147Y435890D01*
X380060Y436326D01*
X380007Y436428D01*
X379978Y436540D01*
X379749Y436925D01*
X379544Y437320D01*
X379465Y437403D01*
X379406Y437503D01*
X379081Y437808D01*
X378774Y438132D01*
X378674Y438190D01*
X378590Y438269D01*
X378193Y438473D01*
X377808Y438699D01*
X377697Y438727D01*
X377594Y438780D01*
X377291Y438831D01*
X376723Y438975D01*
X376475Y438968D01*
X376287Y438999D01*
X318713Y438999D01*
X318374Y438951D01*
X318030Y438941D01*
X317821Y438873D01*
X317605Y438843D01*
X317292Y438702D01*
X316965Y438597D01*
X316810Y438486D01*
X316583Y438385D01*
X316135Y438006D01*
X315885Y437828D01*
X292057Y413999D01*
X243713Y413999D01*
X243374Y413951D01*
X243030Y413941D01*
X242821Y413873D01*
X242605Y413843D01*
X242292Y413702D01*
X241965Y413597D01*
X241810Y413486D01*
X241583Y413385D01*
X241135Y413006D01*
X240885Y412828D01*
X150810Y322752D01*
X150672Y322569D01*
X150505Y322411D01*
X150337Y322124D01*
X150137Y321858D01*
X150055Y321643D01*
X149939Y321445D01*
X149857Y321123D01*
X149738Y320812D01*
X149719Y320583D01*
X149662Y320361D01*
X149673Y320028D01*
X149645Y319696D01*
X149690Y319471D01*
X149697Y319242D01*
X149799Y318924D01*
X149865Y318598D01*
X149970Y318394D01*
X150041Y318176D01*
X150198Y317955D01*
X150380Y317604D01*
X150652Y317318D01*
X150810Y317097D01*
X155727Y312179D01*
X159001Y304277D01*
X159001Y295723D01*
X155727Y287821D01*
X149352Y281446D01*
X149294Y281368D01*
X149279Y281369D01*
X149089Y281325D01*
X148835Y281317D01*
X148287Y281141D01*
X147987Y281072D01*
X141777Y278499D01*
X133223Y278499D01*
X125320Y281773D01*
X119273Y287820D01*
X115999Y295723D01*
X115999Y304277D01*
X119273Y312179D01*
X125328Y318234D01*
X125534Y318509D01*
X125769Y318759D01*
X125869Y318953D01*
X126001Y319129D01*
X126123Y319450D01*
X126280Y319755D01*
X126311Y319943D01*
X126400Y320175D01*
X126448Y320759D01*
X126499Y321062D01*
X126499Y329557D01*
X197343Y400400D01*
X197412Y400492D01*
X197500Y400567D01*
X197748Y400939D01*
X198016Y401295D01*
X198057Y401402D01*
X198121Y401498D01*
X198256Y401925D01*
X198415Y402341D01*
X198424Y402456D01*
X198459Y402566D01*
X198471Y403013D01*
X198508Y403457D01*
X198485Y403570D01*
X198488Y403685D01*
X198376Y404118D01*
X198288Y404555D01*
X198235Y404657D01*
X198206Y404768D01*
X197978Y405152D01*
X197773Y405549D01*
X197693Y405632D01*
X197635Y405731D01*
X197310Y406036D01*
X197002Y406360D01*
X196902Y406419D01*
X196819Y406498D01*
X196421Y406701D01*
X196036Y406927D01*
X195925Y406955D01*
X195822Y407008D01*
X195519Y407059D01*
X194951Y407204D01*
X194703Y407196D01*
X194515Y407228D01*
X189126Y407227D01*
X189126Y423227D01*
X189094Y423454D01*
X189100Y423683D01*
X189016Y424006D01*
X188969Y424336D01*
X188875Y424545D01*
X188817Y424767D01*
X188647Y425054D01*
X188511Y425357D01*
X188363Y425532D01*
X188246Y425730D01*
X188244Y425731D01*
X188003Y425958D01*
X187788Y426212D01*
X187786Y426214D01*
X187595Y426341D01*
X187428Y426498D01*
X187132Y426650D01*
X186855Y426835D01*
X186636Y426904D01*
X186432Y427008D01*
X186164Y427054D01*
X185787Y427173D01*
X185392Y427183D01*
X185125Y427228D01*
X155625Y427228D01*
X155625Y430413D01*
X155609Y430527D01*
X155619Y430641D01*
X155531Y431080D01*
X155469Y431521D01*
X155422Y431626D01*
X155399Y431739D01*
X155193Y432136D01*
X155011Y432543D01*
X154936Y432631D01*
X154883Y432733D01*
X154576Y433057D01*
X154288Y433398D01*
X154192Y433461D01*
X154113Y433545D01*
X153728Y433771D01*
X153356Y434019D01*
X153246Y434053D01*
X153147Y434112D01*
X152714Y434222D01*
X152289Y434357D01*
X152174Y434360D01*
X152062Y434388D01*
X151616Y434374D01*
X151170Y434386D01*
X151058Y434357D01*
X150943Y434353D01*
X150518Y434216D01*
X150086Y434104D01*
X149987Y434045D01*
X149878Y434010D01*
X149628Y433832D01*
X149123Y433532D01*
X148953Y433351D01*
X148798Y433241D01*
X49672Y334115D01*
X49466Y333840D01*
X49231Y333590D01*
X49131Y333395D01*
X48999Y333220D01*
X48877Y332899D01*
X48720Y332594D01*
X48689Y332406D01*
X48600Y332174D01*
X48552Y331590D01*
X48501Y331287D01*
X48501Y193713D01*
X48549Y193374D01*
X48559Y193030D01*
X48627Y192821D01*
X48657Y192605D01*
X48798Y192292D01*
X48903Y191965D01*
X49014Y191810D01*
X49115Y191583D01*
X49494Y191135D01*
X49672Y190885D01*
X53385Y187172D01*
X53660Y186966D01*
X53910Y186731D01*
X54105Y186631D01*
X54280Y186499D01*
X54601Y186377D01*
X54906Y186220D01*
X55094Y186189D01*
X55326Y186100D01*
X55910Y186052D01*
X56213Y186001D01*
X56815Y186001D01*
X57042Y186033D01*
X57271Y186027D01*
X57594Y186111D01*
X57923Y186157D01*
X58133Y186251D01*
X58355Y186309D01*
X58641Y186479D01*
X58945Y186615D01*
X59120Y186763D01*
X59318Y186880D01*
X59546Y187123D01*
X59800Y187338D01*
X59927Y187529D01*
X60084Y187696D01*
X60236Y187993D01*
X60421Y188270D01*
X60490Y188488D01*
X60595Y188693D01*
X60640Y188961D01*
X60759Y189337D01*
X60769Y189732D01*
X60814Y190000D01*
X60814Y203589D01*
X65573Y208348D01*
X65665Y208470D01*
X65781Y208571D01*
X66000Y208915D01*
X66246Y209242D01*
X66301Y209386D01*
X66383Y209515D01*
X66499Y209906D01*
X66645Y210288D01*
X66658Y210441D01*
X66701Y210588D01*
X66704Y210996D01*
X66738Y211404D01*
X66708Y211555D01*
X66709Y211708D01*
X66598Y212102D01*
X66518Y212502D01*
X66448Y212638D01*
X66406Y212786D01*
X66191Y213133D01*
X66003Y213496D01*
X65897Y213607D01*
X65817Y213737D01*
X65513Y214011D01*
X65232Y214308D01*
X65100Y214385D01*
X64986Y214488D01*
X64709Y214615D01*
X64266Y214874D01*
X64073Y214924D01*
X61674Y216309D01*
X59813Y218170D01*
X58496Y220451D01*
X57814Y222994D01*
X57814Y237965D01*
X83500Y237965D01*
X83726Y237998D01*
X83956Y237992D01*
X84279Y238076D01*
X84608Y238122D01*
X84817Y238216D01*
X85039Y238274D01*
X85326Y238444D01*
X85630Y238580D01*
X85805Y238728D01*
X86002Y238845D01*
X86230Y239088D01*
X86484Y239303D01*
X86612Y239494D01*
X86769Y239661D01*
X86921Y239958D01*
X87105Y240235D01*
X87174Y240453D01*
X87279Y240658D01*
X87324Y240925D01*
X87444Y241302D01*
X87454Y241697D01*
X87499Y241965D01*
X87499Y245966D01*
X87501Y245966D01*
X87501Y241965D01*
X87533Y241738D01*
X87527Y241508D01*
X87611Y241185D01*
X87658Y240856D01*
X87751Y240647D01*
X87809Y240425D01*
X87980Y240138D01*
X88116Y239835D01*
X88264Y239659D01*
X88381Y239462D01*
X88624Y239234D01*
X88839Y238980D01*
X89030Y238853D01*
X89197Y238695D01*
X89493Y238544D01*
X89770Y238359D01*
X89989Y238290D01*
X90193Y238185D01*
X90461Y238140D01*
X90838Y238021D01*
X91233Y238010D01*
X91500Y237965D01*
X117186Y237965D01*
X117186Y222994D01*
X116504Y220451D01*
X115187Y218170D01*
X113326Y216309D01*
X110992Y214961D01*
X110928Y214948D01*
X110565Y214760D01*
X110189Y214600D01*
X110070Y214503D01*
X109934Y214433D01*
X109638Y214152D01*
X109321Y213894D01*
X109234Y213768D01*
X109122Y213662D01*
X108915Y213310D01*
X108682Y212974D01*
X108633Y212829D01*
X108556Y212697D01*
X108455Y212301D01*
X108324Y211913D01*
X108317Y211760D01*
X108279Y211612D01*
X108292Y211203D01*
X108273Y210795D01*
X108309Y210646D01*
X108314Y210493D01*
X108440Y210103D01*
X108535Y209706D01*
X108611Y209573D01*
X108658Y209427D01*
X108835Y209179D01*
X109088Y208733D01*
X109299Y208527D01*
X109427Y208348D01*
X114186Y203589D01*
X114186Y154482D01*
X110085Y150381D01*
X102500Y150381D01*
X102273Y150349D01*
X102043Y150355D01*
X101721Y150271D01*
X101391Y150224D01*
X101182Y150131D01*
X100960Y150073D01*
X100673Y149903D01*
X100370Y149767D01*
X100195Y149618D01*
X99997Y149501D01*
X99769Y149259D01*
X99515Y149044D01*
X99388Y148853D01*
X99231Y148685D01*
X99079Y148389D01*
X98894Y148112D01*
X98825Y147893D01*
X98720Y147689D01*
X98675Y147421D01*
X98556Y147045D01*
X98546Y146649D01*
X98501Y146382D01*
X98501Y98000D01*
X98533Y97773D01*
X98527Y97543D01*
X98611Y97220D01*
X98657Y96891D01*
X98751Y96682D01*
X98809Y96460D01*
X98979Y96173D01*
X99115Y95870D01*
X99263Y95695D01*
X99380Y95497D01*
X99623Y95269D01*
X99838Y95015D01*
X100029Y94888D01*
X100196Y94731D01*
X100493Y94579D01*
X100770Y94394D01*
X100988Y94325D01*
X101193Y94220D01*
X101461Y94175D01*
X101837Y94056D01*
X102232Y94046D01*
X102500Y94001D01*
X108752Y94001D01*
X124925Y87302D01*
X137302Y74925D01*
X144001Y58752D01*
X144001Y41248D01*
X137302Y25075D01*
X130054Y17828D01*
X129985Y17736D01*
X129897Y17662D01*
X129650Y17291D01*
X129381Y16933D01*
X129340Y16825D01*
X129276Y16730D01*
X129141Y16304D01*
X128982Y15887D01*
X128973Y15773D01*
X128938Y15663D01*
X128926Y15215D01*
X128889Y14771D01*
X128912Y14659D01*
X128909Y14543D01*
X129022Y14110D01*
X129109Y13674D01*
X129162Y13572D01*
X129191Y13460D01*
X129420Y13075D01*
X129625Y12680D01*
X129704Y12596D01*
X129762Y12497D01*
X130088Y12191D01*
X130395Y11868D01*
X130495Y11809D01*
X130578Y11731D01*
X130976Y11527D01*
X131361Y11301D01*
X131472Y11273D01*
X131575Y11220D01*
X131878Y11169D01*
X132446Y11024D01*
X132694Y11032D01*
X132882Y11001D01*
X162875Y11001D01*
X162989Y11017D01*
G37*
%LPC*%
G36*
X489915Y211810D02*
X489915Y211810D01*
X485814Y215911D01*
X485814Y265018D01*
X490218Y269422D01*
X490356Y269605D01*
X490523Y269763D01*
X490691Y270051D01*
X490891Y270317D01*
X490973Y270531D01*
X491089Y270729D01*
X491172Y271052D01*
X491290Y271363D01*
X491309Y271591D01*
X491366Y271814D01*
X491356Y272147D01*
X491383Y272479D01*
X491338Y272703D01*
X491331Y272933D01*
X491229Y273250D01*
X491163Y273576D01*
X491058Y273780D01*
X490987Y273998D01*
X490830Y274220D01*
X490648Y274570D01*
X490376Y274857D01*
X490218Y275078D01*
X485814Y279482D01*
X485814Y283253D01*
X485798Y283367D01*
X485808Y283481D01*
X485720Y283920D01*
X485657Y284361D01*
X485610Y284466D01*
X485588Y284579D01*
X485382Y284976D01*
X485200Y285383D01*
X485125Y285471D01*
X485072Y285573D01*
X484765Y285897D01*
X484477Y286238D01*
X484381Y286301D01*
X484302Y286385D01*
X483916Y286611D01*
X483545Y286858D01*
X483435Y286893D01*
X483336Y286951D01*
X482904Y287062D01*
X482478Y287197D01*
X482362Y287200D01*
X482251Y287228D01*
X481806Y287214D01*
X481359Y287226D01*
X481247Y287197D01*
X481132Y287193D01*
X480707Y287056D01*
X480275Y286944D01*
X480176Y286885D01*
X480067Y286850D01*
X479816Y286671D01*
X479312Y286372D01*
X479142Y286191D01*
X478987Y286081D01*
X474679Y281773D01*
X466777Y278499D01*
X458223Y278499D01*
X450320Y281773D01*
X444273Y287820D01*
X440999Y295723D01*
X440999Y304277D01*
X444273Y312179D01*
X450320Y318227D01*
X458223Y321501D01*
X466777Y321501D01*
X474679Y318227D01*
X476699Y316207D01*
X476974Y316001D01*
X477223Y315766D01*
X477418Y315666D01*
X477594Y315534D01*
X477914Y315412D01*
X478220Y315256D01*
X478408Y315224D01*
X478640Y315136D01*
X479224Y315087D01*
X479527Y315036D01*
X481815Y315036D01*
X482042Y315068D01*
X482271Y315062D01*
X482594Y315146D01*
X482923Y315193D01*
X483133Y315286D01*
X483355Y315344D01*
X483641Y315515D01*
X483945Y315651D01*
X484120Y315799D01*
X484318Y315916D01*
X484546Y316159D01*
X484800Y316374D01*
X484927Y316565D01*
X485084Y316732D01*
X485236Y317028D01*
X485421Y317305D01*
X485490Y317524D01*
X485595Y317728D01*
X485640Y317996D01*
X485759Y318373D01*
X485769Y318768D01*
X485814Y319035D01*
X485814Y328589D01*
X489915Y332690D01*
X535085Y332690D01*
X539186Y328589D01*
X539186Y279482D01*
X534781Y275078D01*
X534644Y274895D01*
X534477Y274737D01*
X534309Y274450D01*
X534108Y274183D01*
X534027Y273969D01*
X533911Y273771D01*
X533828Y273449D01*
X533710Y273137D01*
X533691Y272908D01*
X533634Y272686D01*
X533644Y272353D01*
X533617Y272021D01*
X533662Y271797D01*
X533669Y271567D01*
X533771Y271250D01*
X533836Y270924D01*
X533942Y270720D01*
X534013Y270502D01*
X534170Y270281D01*
X534352Y269930D01*
X534624Y269643D01*
X534781Y269422D01*
X539186Y265018D01*
X539186Y215911D01*
X535085Y211810D01*
X489915Y211810D01*
G37*
%LPD*%
G36*
X75509Y392751D02*
X75509Y392751D01*
X75956Y392740D01*
X76068Y392769D01*
X76183Y392772D01*
X76607Y392909D01*
X77040Y393022D01*
X77139Y393081D01*
X77248Y393116D01*
X77498Y393294D01*
X78002Y393594D01*
X78173Y393775D01*
X78328Y393885D01*
X93615Y409172D01*
X93684Y409264D01*
X93772Y409338D01*
X94019Y409710D01*
X94288Y410067D01*
X94329Y410174D01*
X94393Y410270D01*
X94528Y410696D01*
X94687Y411113D01*
X94696Y411227D01*
X94731Y411337D01*
X94743Y411785D01*
X94780Y412229D01*
X94757Y412341D01*
X94760Y412456D01*
X94647Y412889D01*
X94560Y413326D01*
X94507Y413428D01*
X94478Y413540D01*
X94250Y413924D01*
X94044Y414320D01*
X93965Y414404D01*
X93906Y414503D01*
X93581Y414808D01*
X93274Y415132D01*
X93174Y415190D01*
X93090Y415269D01*
X92693Y415473D01*
X92308Y415699D01*
X92197Y415727D01*
X92094Y415780D01*
X91791Y415831D01*
X91223Y415975D01*
X90975Y415968D01*
X90787Y415999D01*
X83223Y415999D01*
X75320Y419273D01*
X69273Y425320D01*
X65999Y433223D01*
X65999Y441777D01*
X69273Y449679D01*
X75320Y455727D01*
X83223Y459001D01*
X91787Y459001D01*
X92126Y459049D01*
X92469Y459059D01*
X92678Y459127D01*
X92895Y459157D01*
X93208Y459298D01*
X93535Y459403D01*
X93690Y459514D01*
X93917Y459615D01*
X94365Y459994D01*
X94615Y460172D01*
X142205Y507763D01*
X142274Y507855D01*
X142362Y507929D01*
X142610Y508300D01*
X142878Y508657D01*
X142920Y508765D01*
X142983Y508861D01*
X143118Y509286D01*
X143277Y509703D01*
X143287Y509818D01*
X143321Y509928D01*
X143333Y510375D01*
X143370Y510819D01*
X143348Y510932D01*
X143351Y511047D01*
X143238Y511480D01*
X143150Y511917D01*
X143097Y512019D01*
X143068Y512130D01*
X142840Y512515D01*
X142635Y512911D01*
X142556Y512994D01*
X142497Y513093D01*
X142171Y513399D01*
X141864Y513723D01*
X141765Y513781D01*
X141681Y513860D01*
X141283Y514063D01*
X140898Y514289D01*
X140787Y514318D01*
X140685Y514370D01*
X140381Y514421D01*
X139814Y514566D01*
X139565Y514558D01*
X139377Y514590D01*
X119853Y514590D01*
X107115Y527328D01*
X106840Y527534D01*
X106590Y527769D01*
X106395Y527869D01*
X106220Y528001D01*
X105899Y528123D01*
X105594Y528280D01*
X105406Y528311D01*
X105174Y528400D01*
X104590Y528448D01*
X104287Y528499D01*
X95723Y528499D01*
X87820Y531773D01*
X81773Y537820D01*
X78499Y545723D01*
X78499Y554277D01*
X81773Y562179D01*
X87821Y568227D01*
X89216Y568805D01*
X89507Y568977D01*
X89816Y569115D01*
X89987Y569260D01*
X90180Y569374D01*
X90413Y569620D01*
X90670Y569838D01*
X90795Y570025D01*
X90949Y570188D01*
X91104Y570489D01*
X91291Y570770D01*
X91359Y570984D01*
X91462Y571183D01*
X91527Y571514D01*
X91630Y571837D01*
X91635Y572062D01*
X91679Y572281D01*
X91650Y572618D01*
X91659Y572956D01*
X91602Y573174D01*
X91583Y573397D01*
X91462Y573712D01*
X91376Y574040D01*
X91262Y574233D01*
X91182Y574442D01*
X90978Y574712D01*
X90805Y575003D01*
X90641Y575156D01*
X90506Y575335D01*
X90235Y575538D01*
X89989Y575769D01*
X89790Y575871D01*
X89610Y576006D01*
X89294Y576125D01*
X88993Y576280D01*
X88800Y576312D01*
X88563Y576402D01*
X87989Y576448D01*
X87686Y576499D01*
X81213Y576499D01*
X80874Y576451D01*
X80530Y576441D01*
X80321Y576373D01*
X80105Y576343D01*
X79792Y576202D01*
X79465Y576097D01*
X79310Y575986D01*
X79083Y575885D01*
X78635Y575506D01*
X78385Y575328D01*
X49672Y546615D01*
X49466Y546340D01*
X49231Y546090D01*
X49131Y545895D01*
X48999Y545720D01*
X48877Y545399D01*
X48720Y545094D01*
X48689Y544906D01*
X48600Y544674D01*
X48552Y544090D01*
X48501Y543787D01*
X48501Y425500D01*
X48533Y425273D01*
X48527Y425043D01*
X48611Y424721D01*
X48657Y424391D01*
X48751Y424182D01*
X48809Y423960D01*
X48979Y423673D01*
X49115Y423370D01*
X49263Y423195D01*
X49380Y422997D01*
X49623Y422769D01*
X49838Y422515D01*
X50029Y422388D01*
X50196Y422231D01*
X50493Y422079D01*
X50770Y421894D01*
X50988Y421825D01*
X51193Y421720D01*
X51461Y421675D01*
X51837Y421556D01*
X52232Y421546D01*
X52500Y421501D01*
X54277Y421501D01*
X62179Y418227D01*
X68227Y412179D01*
X71501Y404277D01*
X71501Y396713D01*
X71517Y396599D01*
X71507Y396484D01*
X71595Y396046D01*
X71657Y395604D01*
X71704Y395500D01*
X71727Y395387D01*
X71933Y394990D01*
X72115Y394583D01*
X72189Y394495D01*
X72242Y394393D01*
X72550Y394069D01*
X72838Y393728D01*
X72934Y393664D01*
X73013Y393581D01*
X73399Y393355D01*
X73770Y393107D01*
X73880Y393073D01*
X73979Y393014D01*
X74411Y392904D01*
X74837Y392769D01*
X74953Y392766D01*
X75064Y392738D01*
X75509Y392751D01*
G37*
G36*
X281626Y436049D02*
X281626Y436049D01*
X281969Y436059D01*
X282178Y436127D01*
X282395Y436157D01*
X282708Y436298D01*
X283035Y436403D01*
X283190Y436514D01*
X283417Y436615D01*
X283865Y436994D01*
X284115Y437172D01*
X307943Y461001D01*
X322500Y461001D01*
X322727Y461033D01*
X322956Y461027D01*
X323279Y461111D01*
X323609Y461157D01*
X323818Y461251D01*
X324040Y461309D01*
X324327Y461479D01*
X324630Y461615D01*
X324805Y461763D01*
X325003Y461880D01*
X325231Y462123D01*
X325485Y462338D01*
X325612Y462529D01*
X325769Y462696D01*
X325921Y462993D01*
X326106Y463270D01*
X326175Y463488D01*
X326280Y463693D01*
X326325Y463961D01*
X326444Y464337D01*
X326454Y464732D01*
X326499Y465000D01*
X326499Y466438D01*
X326451Y466777D01*
X326441Y467120D01*
X326373Y467329D01*
X326343Y467546D01*
X326202Y467859D01*
X326097Y468186D01*
X325986Y468341D01*
X325885Y468568D01*
X325506Y469016D01*
X325328Y469265D01*
X319273Y475320D01*
X315999Y483223D01*
X315999Y491777D01*
X319273Y499679D01*
X325320Y505727D01*
X333223Y509001D01*
X341777Y509001D01*
X349679Y505727D01*
X355727Y499679D01*
X359001Y491777D01*
X359001Y483223D01*
X355727Y475320D01*
X349672Y469265D01*
X349466Y468991D01*
X349231Y468741D01*
X349131Y468546D01*
X348999Y468371D01*
X348877Y468050D01*
X348720Y467745D01*
X348689Y467556D01*
X348600Y467325D01*
X348552Y466740D01*
X348501Y466438D01*
X348501Y465000D01*
X348533Y464773D01*
X348527Y464543D01*
X348611Y464221D01*
X348657Y463891D01*
X348751Y463682D01*
X348809Y463460D01*
X348979Y463173D01*
X349115Y462870D01*
X349263Y462695D01*
X349380Y462497D01*
X349623Y462269D01*
X349838Y462015D01*
X350029Y461888D01*
X350196Y461731D01*
X350493Y461579D01*
X350770Y461394D01*
X350988Y461325D01*
X351193Y461220D01*
X351461Y461175D01*
X351837Y461056D01*
X352232Y461046D01*
X352500Y461001D01*
X384374Y461001D01*
X384601Y461033D01*
X384830Y461027D01*
X385153Y461111D01*
X385483Y461157D01*
X385692Y461251D01*
X385914Y461309D01*
X386201Y461479D01*
X386504Y461615D01*
X386679Y461763D01*
X386877Y461880D01*
X387105Y462123D01*
X387359Y462338D01*
X387486Y462529D01*
X387643Y462696D01*
X387795Y462993D01*
X387980Y463270D01*
X388049Y463488D01*
X388154Y463693D01*
X388199Y463961D01*
X388318Y464337D01*
X388328Y464732D01*
X388373Y465000D01*
X388373Y483309D01*
X389441Y484377D01*
X389579Y484560D01*
X389745Y484718D01*
X389914Y485005D01*
X390114Y485271D01*
X390195Y485486D01*
X390312Y485684D01*
X390394Y486006D01*
X390513Y486317D01*
X390532Y486546D01*
X390588Y486768D01*
X390578Y487101D01*
X390606Y487433D01*
X390561Y487658D01*
X390554Y487887D01*
X390451Y488204D01*
X390386Y488531D01*
X390280Y488735D01*
X390210Y488953D01*
X390053Y489173D01*
X389870Y489525D01*
X389598Y489812D01*
X389441Y490032D01*
X388373Y491100D01*
X388373Y510482D01*
X388401Y510812D01*
X388378Y510928D01*
X388382Y511047D01*
X388270Y511476D01*
X388184Y511910D01*
X388129Y512016D01*
X388099Y512130D01*
X387873Y512511D01*
X387670Y512905D01*
X387588Y512991D01*
X387528Y513093D01*
X387205Y513396D01*
X386901Y513718D01*
X386798Y513779D01*
X386712Y513860D01*
X386318Y514062D01*
X385936Y514287D01*
X385821Y514316D01*
X385715Y514370D01*
X385412Y514421D01*
X384852Y514565D01*
X384599Y514558D01*
X384408Y514590D01*
X361853Y514590D01*
X351499Y524943D01*
X351499Y536181D01*
X351467Y536408D01*
X351473Y536638D01*
X351389Y536960D01*
X351343Y537290D01*
X351249Y537499D01*
X351191Y537721D01*
X351021Y538008D01*
X350885Y538311D01*
X350737Y538486D01*
X350619Y538684D01*
X350377Y538912D01*
X350162Y539166D01*
X349971Y539293D01*
X349804Y539450D01*
X349507Y539602D01*
X349230Y539787D01*
X349011Y539856D01*
X348807Y539961D01*
X348539Y540006D01*
X348163Y540125D01*
X347767Y540135D01*
X347500Y540180D01*
X307394Y540180D01*
X307055Y540132D01*
X306711Y540122D01*
X306502Y540054D01*
X306286Y540024D01*
X305973Y539883D01*
X305646Y539778D01*
X305491Y539667D01*
X305264Y539566D01*
X304816Y539187D01*
X304566Y539009D01*
X262135Y496578D01*
X261997Y496395D01*
X261831Y496237D01*
X261662Y495949D01*
X261462Y495683D01*
X261380Y495469D01*
X261264Y495271D01*
X261182Y494948D01*
X261063Y494637D01*
X261044Y494408D01*
X260988Y494186D01*
X260998Y493853D01*
X260970Y493521D01*
X261015Y493297D01*
X261023Y493067D01*
X261125Y492750D01*
X261190Y492424D01*
X261296Y492220D01*
X261366Y492002D01*
X261524Y491781D01*
X261706Y491430D01*
X261978Y491143D01*
X262135Y490922D01*
X273501Y479557D01*
X273501Y457943D01*
X265885Y450328D01*
X258385Y442828D01*
X258316Y442736D01*
X258228Y442662D01*
X257981Y442291D01*
X257712Y441933D01*
X257671Y441825D01*
X257607Y441730D01*
X257472Y441304D01*
X257313Y440887D01*
X257304Y440773D01*
X257269Y440663D01*
X257257Y440215D01*
X257220Y439771D01*
X257243Y439659D01*
X257240Y439543D01*
X257353Y439110D01*
X257440Y438674D01*
X257493Y438572D01*
X257522Y438460D01*
X257751Y438075D01*
X257956Y437680D01*
X258035Y437596D01*
X258094Y437497D01*
X258419Y437191D01*
X258726Y436868D01*
X258826Y436809D01*
X258909Y436731D01*
X259307Y436527D01*
X259692Y436301D01*
X259803Y436273D01*
X259906Y436220D01*
X260209Y436169D01*
X260777Y436024D01*
X261025Y436032D01*
X261213Y436001D01*
X281287Y436001D01*
X281626Y436049D01*
G37*
%LPC*%
G36*
X207999Y57999D02*
X207999Y57999D01*
X207999Y96320D01*
X211006Y95843D01*
X218042Y93557D01*
X224633Y90199D01*
X230619Y85850D01*
X235850Y80619D01*
X240199Y74633D01*
X243557Y68042D01*
X245843Y61006D01*
X246320Y57999D01*
X207999Y57999D01*
G37*
%LPD*%
%LPC*%
G36*
X153680Y57999D02*
X153680Y57999D01*
X154157Y61006D01*
X156443Y68042D01*
X159801Y74633D01*
X164150Y80619D01*
X169381Y85850D01*
X175367Y90199D01*
X181958Y93557D01*
X188994Y95843D01*
X192001Y96320D01*
X192001Y57999D01*
X153680Y57999D01*
G37*
%LPD*%
%LPC*%
G36*
X95499Y253963D02*
X95499Y253963D01*
X95499Y277619D01*
X108502Y277619D01*
X111045Y276937D01*
X113326Y275620D01*
X115187Y273759D01*
X116504Y271478D01*
X117186Y268935D01*
X117186Y253963D01*
X95499Y253963D01*
G37*
%LPD*%
%LPC*%
G36*
X182999Y147381D02*
X182999Y147381D01*
X182999Y171036D01*
X204686Y171036D01*
X204686Y156065D01*
X204004Y153522D01*
X202687Y151241D01*
X200826Y149379D01*
X198545Y148063D01*
X196002Y147381D01*
X182999Y147381D01*
G37*
%LPD*%
%LPC*%
G36*
X57814Y253963D02*
X57814Y253963D01*
X57814Y268935D01*
X58496Y271478D01*
X59813Y273759D01*
X61674Y275620D01*
X63955Y276937D01*
X66498Y277619D01*
X79501Y277619D01*
X79501Y253963D01*
X57814Y253963D01*
G37*
%LPD*%
%LPC*%
G36*
X153998Y147381D02*
X153998Y147381D01*
X151455Y148063D01*
X149174Y149379D01*
X147313Y151241D01*
X145996Y153522D01*
X145314Y156065D01*
X145314Y171036D01*
X167001Y171036D01*
X167001Y147381D01*
X153998Y147381D01*
G37*
%LPD*%
%LPC*%
G36*
X164309Y407228D02*
X164309Y407228D01*
X161766Y407909D01*
X159485Y409226D01*
X157624Y411088D01*
X156307Y413368D01*
X155625Y415911D01*
X155625Y419228D01*
X181126Y419228D01*
X181126Y407228D01*
X164309Y407228D01*
G37*
%LPD*%
D10*
X299339Y214886D03*
D11*
X266858Y240476D02*
X257016Y240476D01*
X257016Y240476D01*
X266858Y240476D01*
X266858Y240476D01*
X266858Y214886D02*
X257016Y214886D01*
X257016Y214886D01*
X266858Y214886D01*
X266858Y214886D01*
X266858Y189295D02*
X257016Y189295D01*
X257016Y189295D01*
X266858Y189295D01*
X266858Y189295D01*
X331819Y189295D02*
X341661Y189295D01*
X331819Y189295D02*
X331819Y189295D01*
X341661Y189295D01*
X341661Y189295D01*
X341661Y214886D02*
X331819Y214886D01*
X331819Y214886D01*
X341661Y214886D01*
X341661Y214886D01*
X341661Y240476D02*
X331819Y240476D01*
X331819Y240476D01*
X341661Y240476D01*
X341661Y240476D01*
D12*
X175000Y245965D03*
X175000Y179035D03*
X512500Y370965D03*
X512500Y304035D03*
X512500Y173535D03*
X512500Y240465D03*
D13*
X500000Y50000D03*
X400000Y50000D03*
X300000Y50000D03*
X200000Y50000D03*
X100000Y50000D03*
D14*
X185126Y576772D03*
X185126Y551181D03*
X185126Y525591D03*
X185126Y500000D03*
X185126Y474409D03*
X185126Y448819D03*
X185126Y423228D03*
X414874Y423228D03*
X414874Y448819D03*
X414874Y474409D03*
X414874Y500000D03*
X414874Y525591D03*
X414874Y551181D03*
X414874Y576772D03*
D12*
X87500Y245965D03*
X87500Y179035D03*
D15*
X458465Y370965D02*
X512500Y370965D01*
X336740Y249240D02*
X336740Y240476D01*
X336740Y249240D02*
X458465Y370965D01*
X512500Y370965D02*
X516535Y375000D01*
X537500Y512500D02*
X486063Y512500D01*
X516535Y404035D02*
X516535Y375000D01*
X516535Y404035D02*
X550000Y437500D01*
X550000Y500000D01*
X537500Y512500D01*
X473563Y500000D02*
X414874Y500000D01*
X473563Y500000D02*
X486063Y512500D01*
X336740Y189295D02*
X359500Y166535D01*
X412500Y166535D01*
D16*
X412500Y262500D03*
X375000Y337500D03*
D15*
X387500Y337500D01*
D16*
X475000Y425000D03*
D15*
X412500Y262500D02*
X412500Y166535D01*
X387500Y337500D02*
X475000Y425000D01*
X124409Y525591D02*
X100000Y550000D01*
D16*
X100000Y550000D03*
D15*
X124409Y525591D02*
X185126Y525591D01*
X486035Y173535D02*
X512500Y173535D01*
X486035Y173535D02*
X475000Y162500D01*
X416535Y162500D02*
X412500Y166535D01*
X416535Y162500D02*
X475000Y162500D01*
D16*
X325000Y400000D03*
X266500Y152500D03*
X537500Y100000D03*
X450000Y212500D03*
X300000Y300000D03*
X50000Y125000D03*
X275000Y650000D03*
X550000Y587500D03*
X475000Y537500D03*
X75000Y500000D03*
X292500Y493500D03*
D15*
X413693Y450000D02*
X414874Y448819D01*
X337500Y450000D02*
X312500Y450000D01*
D16*
X137500Y300000D03*
D15*
X337500Y450000D02*
X413693Y450000D01*
X312500Y450000D02*
X287500Y425000D01*
X237500Y425000D01*
X185126Y551181D02*
X151181Y551181D01*
D16*
X50000Y400000D03*
D15*
X37500Y550000D02*
X75000Y587500D01*
D16*
X312500Y584500D03*
X337500Y487500D03*
D15*
X337500Y450000D01*
X151181Y551181D02*
X114862Y587500D01*
X75000Y587500D01*
X137500Y325000D02*
X137500Y300000D01*
X137500Y325000D02*
X237500Y425000D01*
X37500Y412500D02*
X37500Y550000D01*
X37500Y412500D02*
X50000Y400000D01*
X312500Y584500D02*
X320228Y576772D01*
X414874Y576772D01*
X414874Y551181D02*
X362500Y551181D01*
X301181Y551181D01*
X224409Y474409D02*
X185126Y474409D01*
X243750Y493750D02*
X301181Y551181D01*
X243750Y493750D02*
X224409Y474409D01*
X186307Y450000D02*
X185126Y448819D01*
X186307Y450000D02*
X250000Y450000D01*
X414283Y525000D02*
X414874Y525591D01*
X262500Y462500D02*
X250000Y450000D01*
X262500Y462500D02*
X262500Y475000D01*
X243750Y493750D01*
X366409Y525591D02*
X414874Y525591D01*
X362500Y529500D02*
X362500Y551181D01*
X362500Y529500D02*
X366409Y525591D01*
X87500Y62500D02*
X100000Y50000D01*
X87500Y175000D02*
X87500Y179035D01*
X87500Y175000D02*
X87500Y62500D01*
X148819Y448819D02*
X185126Y448819D01*
X148819Y448819D02*
X37500Y337500D01*
X37500Y187500D01*
X50000Y175000D01*
X87500Y175000D01*
D16*
X514000Y475000D03*
D15*
X415465Y475000D02*
X414874Y474409D01*
X415465Y475000D02*
X514000Y475000D01*
X185126Y500000D02*
X150000Y500000D01*
X87500Y437500D01*
D16*
X325000Y162500D03*
X87500Y437500D03*
D15*
X487500Y62500D02*
X500000Y50000D01*
X487500Y62500D02*
X487500Y112500D01*
X342322Y162500D02*
X325000Y162500D01*
X452500Y147500D02*
X487500Y112500D01*
X452500Y147500D02*
X357322Y147500D01*
X342322Y162500D01*
X261937Y240476D02*
X212500Y240476D01*
X225000Y337500D02*
X237500Y337500D01*
X225000Y337500D02*
X212500Y325000D01*
X212500Y240476D01*
D16*
X375000Y387500D03*
X462500Y300000D03*
D15*
X512500Y304035D02*
X512500Y240465D01*
X237500Y550000D02*
X212500Y575000D01*
X237500Y550000D02*
X237500Y525000D01*
D16*
X237500Y525000D03*
X237500Y337500D03*
D15*
X186898Y575000D02*
X185126Y576772D01*
X186898Y575000D02*
X212500Y575000D01*
X375000Y387500D02*
X325000Y337500D01*
X237500Y337500D01*
X385728Y423228D02*
X414874Y423228D01*
X385728Y423228D02*
X375000Y412500D01*
X375000Y387500D01*
X466535Y304035D02*
X512500Y304035D01*
X466535Y304035D02*
X462500Y300000D01*
X212500Y240476D02*
X207012Y245965D01*
X175000Y245965D01*
M02*
